<svg xmlns="http://www.w3.org/2000/svg" viewBox="-2 -2 1028 1028" version="1.1" width="200px" height="200px">
<g id="Parent-Group"><g id="Group-rgba(0,0,0,0)" fill="rgba(0,0,0,0)">
<path fill="rgba(0,0,0,0)" opacity="1.00" d=" M 0.00 0.00 L 1024.00 0.00 L 1024.00 1024.00 L 684.98 1024.00 C 683.56 998.24 682.79 972.43 680.67 946.71 C 694.74 944.55 708.85 939.31 719.23 929.27 C 724.69 924.17 729.17 918.05 732.56 911.40 C 736.44 903.73 739.80 895.58 740.39 886.91 C 741.63 872.26 741.12 857.51 740.12 842.87 C 738.70 842.49 737.27 842.13 735.86 841.83 C 735.41 834.15 734.43 826.52 734.16 818.83 C 735.45 817.81 737.74 817.13 737.05 815.04 C 733.74 781.09 731.20 747.06 729.10 713.01 C 728.16 698.34 728.27 683.64 727.69 668.96 C 726.54 651.51 724.96 634.05 721.66 616.86 C 717.84 598.06 712.65 579.32 703.47 562.37 C 695.77 548.14 685.90 535.01 673.75 524.28 C 699.29 514.65 724.39 503.83 749.01 492.06 C 748.83 470.84 744.25 449.27 733.18 430.96 C 724.44 416.59 714.01 403.34 704.73 389.33 C 692.66 371.57 682.00 352.74 674.35 332.64 C 668.48 318.24 664.75 303.09 661.14 287.99 C 656.39 266.85 654.74 244.94 647.38 224.44 C 634.46 186.69 606.95 154.02 571.65 135.32 C 552.29 125.14 529.39 119.45 507.72 124.68 C 491.47 128.21 474.77 130.27 459.22 136.39 C 441.93 142.96 427.02 154.26 412.79 165.82 C 411.42 166.88 409.62 166.99 408.00 167.36 C 392.58 169.99 377.15 173.85 363.20 181.11 C 353.67 186.10 344.66 192.51 337.98 201.04 C 320.29 223.87 321.97 259.82 342.69 280.23 C 350.35 287.71 360.43 292.96 371.08 294.36 C 371.55 294.51 372.47 294.83 372.93 294.99 C 374.03 311.56 375.29 328.25 379.41 344.40 C 380.41 348.59 382.49 352.61 382.11 357.04 C 381.44 376.29 379.61 395.56 375.70 414.44 C 373.28 426.10 371.01 437.78 368.63 449.44 C 363.34 477.90 363.45 507.01 364.22 535.83 C 373.86 538.12 383.67 539.73 393.47 541.18 C 388.41 551.39 385.81 562.55 382.57 573.42 C 375.21 600.87 367.07 628.16 360.92 655.92 C 358.61 648.07 353.58 640.44 345.63 637.50 C 340.06 635.10 333.90 635.74 328.01 635.95 C 306.30 636.76 284.61 638.10 262.89 638.59 C 254.67 638.70 246.30 643.14 242.55 650.63 C 239.96 655.93 239.50 662.21 241.39 667.81 C 246.61 682.99 251.94 698.15 256.77 713.45 C 253.12 715.36 250.03 718.64 249.83 722.95 C 249.05 727.93 252.31 732.17 255.74 735.34 C 250.63 744.22 252.78 754.90 255.55 764.17 C 261.02 781.89 268.08 799.25 277.92 815.03 C 279.92 818.26 282.12 821.36 284.60 824.25 C 280.24 836.39 274.44 849.55 278.63 862.59 C 283.26 876.33 290.00 889.26 297.13 901.85 C 305.44 916.03 314.94 929.78 327.30 940.76 C 331.98 944.82 337.48 948.73 343.91 949.00 C 347.68 949.35 351.27 947.98 354.83 946.93 C 353.91 958.60 352.46 970.25 352.35 981.98 C 352.11 995.99 351.27 1009.99 351.19 1024.00 L 0.00 1024.00 L 0.00 0.00 Z"/>
<path fill="rgba(0,0,0,0)" opacity="1.00" d=" M 448.90 207.90 C 452.19 199.83 453.82 191.23 456.62 183.01 C 458.18 192.96 459.76 203.01 463.34 212.47 C 470.50 232.34 484.46 249.33 501.51 261.59 C 515.51 271.92 532.11 278.00 548.86 282.17 C 564.06 286.01 580.29 284.68 595.10 279.87 C 597.07 279.51 598.16 277.99 598.50 276.11 C 608.97 271.89 621.56 273.76 630.57 280.51 C 642.08 288.85 646.33 304.52 643.49 318.05 C 640.64 331.58 629.31 342.76 615.96 346.00 C 608.74 348.03 600.28 346.42 595.22 340.64 C 593.78 339.13 593.29 336.50 591.03 335.99 C 589.49 336.12 588.30 337.27 588.36 338.84 C 586.73 356.95 584.04 374.95 581.50 392.95 C 579.33 407.71 569.37 419.96 558.02 429.00 C 540.72 442.68 519.62 451.00 498.05 454.95 C 477.34 458.71 454.43 457.28 436.39 445.52 C 424.25 437.38 416.85 424.34 410.37 411.62 C 399.42 390.02 389.04 367.81 383.80 344.05 C 379.72 326.01 379.23 307.48 377.62 289.14 C 377.02 280.47 374.47 271.81 376.14 263.12 C 378.14 250.89 380.30 237.55 389.18 228.20 C 392.55 224.39 397.94 222.72 402.84 224.27 C 412.41 226.96 422.63 230.81 432.55 227.35 C 441.29 224.64 446.22 216.09 448.90 207.90 M 485.00 285.12 C 486.08 286.03 487.14 287.06 488.54 287.47 C 500.49 291.67 513.45 293.11 525.97 291.06 C 527.41 290.81 528.97 290.36 529.89 289.12 C 530.27 286.97 528.40 284.36 526.06 285.26 C 513.66 287.31 500.80 285.99 488.98 281.81 C 486.72 281.03 485.88 283.66 485.00 285.12 M 426.24 283.25 C 415.24 288.37 402.93 289.88 390.91 289.91 C 388.59 289.72 386.98 292.81 388.55 294.57 C 390.80 295.84 393.48 295.78 395.99 295.75 C 404.47 295.44 413.11 294.71 421.05 291.50 C 424.33 290.04 428.20 289.34 430.72 286.61 C 431.82 283.95 428.60 281.31 426.24 283.25 M 609.19 289.24 C 604.06 290.27 599.30 293.54 596.74 298.11 C 595.62 300.08 598.28 302.62 600.14 301.25 C 602.89 298.80 605.33 295.60 609.14 294.75 C 612.10 293.67 615.09 295.13 618.07 295.36 C 619.82 295.10 620.26 292.34 619.13 291.18 C 616.49 288.72 612.54 288.57 609.19 289.24 M 444.26 302.02 C 449.40 321.02 447.20 341.21 441.95 359.93 C 440.49 364.45 440.71 370.15 444.64 373.37 C 449.05 376.51 454.88 376.23 459.97 375.32 C 465.26 374.09 470.61 372.34 475.05 369.12 C 474.76 368.36 474.18 366.86 473.89 366.10 C 472.61 364.59 470.71 365.76 469.29 366.28 C 463.28 368.91 456.65 371.17 450.03 369.92 C 447.44 369.41 445.92 366.59 446.48 364.10 C 447.40 357.35 449.72 350.89 450.70 344.15 C 452.95 329.68 452.94 314.68 449.40 300.42 C 449.00 296.51 442.75 298.60 444.26 302.02 M 609.43 312.57 C 606.92 313.34 604.25 314.61 602.93 317.00 C 601.93 319.47 605.83 321.96 607.55 319.76 C 610.14 317.29 614.67 316.94 617.00 319.96 C 619.52 322.77 618.33 326.60 618.35 329.96 C 618.76 332.88 622.82 332.54 623.49 329.98 C 624.33 326.55 623.61 322.90 622.54 319.59 C 620.77 314.44 614.72 310.95 609.43 312.57 M 503.34 321.43 C 500.55 324.62 500.94 329.23 501.33 333.16 C 501.89 337.03 502.82 341.43 506.12 343.91 C 508.02 344.48 510.44 344.39 511.65 342.56 C 514.06 338.87 513.70 334.09 513.06 329.94 C 512.33 326.51 511.28 322.44 507.89 320.72 C 506.41 319.85 504.55 320.35 503.34 321.43 M 414.36 322.24 C 411.85 323.97 411.69 327.30 411.61 330.05 C 411.63 334.60 412.04 339.49 414.70 343.34 C 415.97 345.33 418.66 345.67 420.74 344.91 C 423.81 342.64 423.96 338.43 423.89 334.96 C 423.62 330.99 422.80 326.81 420.44 323.52 C 419.12 321.55 416.36 321.09 414.36 322.24 M 454.42 402.67 C 451.16 402.92 451.57 408.43 455.03 407.80 C 465.11 407.44 475.19 407.10 485.27 406.66 C 483.44 411.49 479.41 416.08 473.92 416.34 C 469.41 416.86 465.47 414.39 461.55 412.61 C 459.75 411.54 457.57 413.25 457.41 415.12 C 458.17 416.79 459.80 417.79 461.32 418.68 C 466.81 421.64 473.56 422.75 479.48 420.41 C 485.43 418.06 489.42 412.22 490.72 406.11 C 491.16 403.91 489.61 400.94 487.02 401.48 C 476.16 401.90 465.29 402.29 454.42 402.67 Z"/>
<path fill="rgba(0,0,0,0)" opacity="1.00" d=" M 464.99 197.55 C 467.68 200.24 469.25 203.75 471.18 206.97 C 476.45 215.70 480.61 225.09 486.34 233.55 C 493.33 243.39 502.17 251.77 511.60 259.26 C 513.65 260.94 516.05 262.39 517.23 264.87 C 492.93 253.58 474.25 231.22 466.31 205.73 C 465.40 203.10 464.85 200.34 464.99 197.55 Z"/>
<path fill="rgba(0,0,0,0)" opacity="1.00" d=" M 550.55 440.48 C 557.31 436.35 563.34 431.19 569.12 425.82 C 570.77 447.94 572.87 470.03 574.12 492.17 C 568.21 497.05 561.44 500.87 554.14 503.20 C 536.39 508.83 517.22 510.65 498.90 506.89 C 495.26 491.75 492.33 476.45 489.02 461.23 C 510.80 459.44 531.99 451.91 550.55 440.48 Z"/>
<path fill="rgba(0,0,0,0)" opacity="1.00" d=" M 479.44 489.44 C 482.28 487.19 486.12 487.32 489.48 486.49 C 490.55 492.79 492.14 498.98 493.43 505.24 C 490.09 503.62 486.43 501.76 484.78 498.22 C 483.65 496.50 483.52 493.43 480.84 493.57 C 479.07 493.97 478.99 496.38 479.12 497.85 C 480.44 503.80 485.96 507.52 491.27 509.68 C 502.95 514.17 515.73 514.59 528.08 513.79 C 543.15 512.22 558.59 508.90 571.45 500.49 C 576.80 497.10 581.38 492.49 584.37 486.88 C 589.32 490.69 594.91 493.54 600.24 496.78 C 611.52 499.09 622.74 501.73 633.94 504.47 C 663.94 516.64 688.12 541.21 701.73 570.39 C 711.34 590.41 716.16 612.32 719.45 634.17 C 721.80 652.34 723.17 670.68 723.05 689.01 C 724.15 731.10 728.02 773.06 731.97 814.96 C 731.89 816.46 732.64 817.73 733.57 818.86 C 734.05 825.91 734.62 832.95 735.29 839.99 C 735.55 856.26 737.21 872.66 735.22 888.90 C 732.78 903.74 725.04 917.81 713.63 927.64 C 701.85 937.61 686.15 941.44 671.05 942.21 C 643.82 943.05 617.04 936.81 590.92 929.86 C 562.89 921.93 535.52 911.58 509.44 898.61 C 498.31 892.96 487.17 887.16 477.05 879.81 C 473.21 877.04 469.57 873.34 468.74 868.49 C 467.48 862.90 470.69 857.61 470.09 852.03 C 469.84 845.27 464.98 839.99 460.38 835.56 C 455.00 829.81 448.75 824.77 444.33 818.20 C 446.01 818.43 446.47 820.43 447.88 821.19 C 454.39 825.35 460.82 829.70 467.74 833.18 C 472.40 835.50 478.12 836.23 482.91 833.84 C 492.11 829.99 497.83 821.03 501.20 812.02 C 505.11 801.17 507.62 789.11 504.35 777.77 C 502.52 770.89 497.60 765.54 493.09 760.27 C 496.39 757.51 499.98 754.99 504.03 753.49 C 510.76 751.11 517.82 753.56 524.53 754.70 C 543.26 759.20 561.21 766.31 579.40 772.55 C 593.04 777.64 606.96 781.95 620.49 787.35 C 640.10 795.06 658.71 805.23 676.06 817.18 C 681.23 820.60 685.77 824.89 691.08 828.10 C 692.14 827.29 693.80 826.59 693.63 824.97 C 692.29 822.47 689.66 821.14 687.54 819.42 C 674.43 809.43 660.34 800.80 645.72 793.23 C 641.73 790.87 637.14 789.69 633.33 787.04 C 633.76 767.36 634.57 747.69 635.46 728.03 C 636.52 697.97 638.43 667.34 631.19 637.85 C 630.69 635.09 626.52 635.39 626.10 638.02 C 626.22 641.07 627.42 643.95 627.90 646.95 C 632.08 669.41 631.36 692.37 630.74 715.10 C 629.68 738.37 628.92 761.65 628.03 784.93 C 612.25 778.17 595.84 773.07 579.72 767.23 C 562.59 761.25 545.68 754.55 528.14 749.85 C 520.55 748.12 512.60 746.11 504.82 747.73 C 498.78 749.36 493.33 752.97 489.07 757.51 C 484.00 755.04 478.73 752.75 473.08 752.04 C 469.71 751.63 466.32 752.08 462.95 751.82 C 455.84 743.69 448.11 736.03 439.66 729.27 C 431.31 722.84 421.71 717.07 410.91 716.52 C 401.55 716.06 392.24 717.58 382.98 718.70 C 384.75 692.81 386.34 666.91 388.04 641.01 C 389.07 628.66 390.42 616.28 393.25 604.20 C 393.86 601.11 395.39 598.23 395.70 595.10 C 395.50 592.44 391.33 591.99 390.78 594.72 C 385.06 613.23 383.90 632.74 382.17 651.92 C 381.35 669.98 379.93 688.01 378.67 706.05 C 374.46 694.34 370.43 682.58 366.16 670.90 C 365.40 668.62 364.47 666.39 364.07 664.02 C 367.68 647.64 371.99 631.42 376.30 615.21 C 382.33 593.95 387.29 572.36 394.46 551.44 C 398.60 539.05 406.40 527.41 418.05 521.03 C 432.07 515.76 446.13 510.46 459.57 503.79 C 462.47 515.78 472.31 524.65 483.05 529.90 C 502.54 539.27 524.75 541.41 546.09 539.59 C 559.95 538.20 574.04 534.72 585.58 526.62 C 594.38 520.34 600.84 510.70 602.78 500.03 C 603.21 497.98 599.56 496.25 598.43 498.16 C 596.76 501.75 596.09 505.74 594.24 509.26 C 589.43 518.94 579.96 525.46 570.01 529.03 C 552.15 535.67 532.62 535.90 513.90 533.81 C 499.52 531.53 484.54 527.46 473.53 517.43 C 468.81 513.34 465.91 507.62 464.20 501.70 C 469.08 497.37 474.36 493.53 479.44 489.44 Z"/>
<path fill="rgba(0,0,0,0)" opacity="1.00" d=" M 261.97 643.58 C 286.66 642.68 311.35 641.68 336.05 640.94 C 342.27 640.76 348.66 643.62 352.22 648.81 C 354.56 652.22 355.84 656.20 357.17 660.08 C 363.71 680.01 371.54 699.50 378.05 719.44 C 375.34 719.54 372.63 719.85 369.93 719.74 C 369.36 719.07 368.94 718.33 368.67 717.51 C 361.88 698.26 354.51 679.22 347.54 660.04 C 346.29 656.53 344.30 653.11 341.04 651.14 C 335.72 647.59 329.04 648.18 322.96 648.13 C 298.57 648.30 274.16 648.21 249.78 648.91 C 253.01 645.71 257.39 643.65 261.97 643.58 Z"/>
<path fill="rgba(0,0,0,0)" opacity="1.00" d=" M 300.37 665.38 C 304.34 663.64 308.42 666.97 308.34 671.08 C 309.43 675.41 302.67 678.56 300.42 674.51 C 298.81 671.92 296.54 667.14 300.37 665.38 Z"/>
<path fill="rgba(0,0,0,0)" opacity="1.00" d=" M 254.90 722.95 C 254.72 720.68 256.86 719.41 258.49 718.37 C 260.78 722.11 261.27 726.63 263.01 730.64 C 261.82 731.10 260.62 731.57 259.43 732.04 C 256.90 729.69 254.44 726.64 254.90 722.95 Z"/>
<path fill="rgba(0,0,0,0)" opacity="1.00" d=" M 392.64 722.82 C 403.19 721.63 414.64 720.39 424.41 725.51 C 437.89 732.30 448.61 743.28 458.80 754.18 C 460.22 755.67 462.04 756.67 463.80 757.71 C 461.43 771.04 456.68 783.94 449.57 795.48 C 445.49 801.53 440.93 807.78 434.18 811.03 C 425.36 808.10 416.83 804.39 408.02 801.46 C 402.17 799.48 395.85 799.30 389.78 800.17 C 389.74 801.48 389.71 802.79 389.71 804.12 C 389.26 803.04 388.81 801.98 388.35 800.93 C 382.57 801.96 376.95 804.56 371.00 804.20 C 367.23 803.69 366.19 799.21 366.42 796.02 C 366.59 792.62 369.69 790.26 372.86 789.81 C 382.81 788.08 393.01 788.42 402.98 786.97 C 405.96 786.52 404.75 781.44 402.00 781.89 C 391.38 782.71 380.71 783.21 370.14 784.57 C 366.99 784.82 363.78 786.14 360.63 785.40 C 358.98 782.52 358.79 779.05 358.86 775.81 C 359.75 772.62 362.99 770.92 366.08 770.53 C 376.02 769.14 386.05 768.42 396.00 767.11 C 398.27 767.30 400.01 764.41 398.37 762.64 C 397.53 761.08 395.44 761.71 394.04 761.73 C 382.72 763.24 371.34 764.21 360.05 765.93 C 357.72 766.31 355.36 766.49 353.02 766.21 C 352.89 761.50 353.17 756.74 354.11 752.13 C 355.78 750.95 357.88 750.72 359.82 750.29 C 369.88 748.68 379.97 747.22 390.04 745.61 C 392.01 745.15 394.51 745.11 395.65 743.12 C 395.50 742.32 395.18 740.71 395.02 739.91 C 394.29 739.82 392.83 739.64 392.11 739.55 C 378.07 742.03 363.96 744.06 349.89 746.30 C 348.80 741.59 347.84 736.78 347.92 731.93 C 347.86 728.42 351.72 727.08 354.58 726.69 C 362.98 725.49 371.44 724.45 379.94 724.49 C 384.03 723.09 388.41 723.44 392.64 722.82 Z"/>
<path fill="rgba(0,0,0,0)" opacity="1.00" d=" M 289.83 726.75 C 292.03 726.23 294.63 725.69 296.51 727.32 C 300.71 730.82 303.74 735.71 304.92 741.07 C 294.28 745.75 283.31 749.64 272.13 752.80 C 269.58 752.96 268.08 755.99 270.01 757.87 C 273.02 758.54 276.05 757.34 279.03 756.94 C 290.65 755.04 302.28 753.17 313.88 751.13 C 319.32 749.76 322.34 756.75 320.82 761.12 C 320.16 764.60 317.44 767.41 313.95 768.14 C 302.87 771.60 291.25 772.73 279.88 774.86 C 277.35 775.12 277.75 777.98 278.09 779.77 C 282.76 780.11 287.41 779.43 292.07 779.15 C 303.37 778.62 314.67 777.82 325.98 777.81 C 335.33 777.38 337.44 794.27 327.99 795.53 C 314.16 797.03 300.19 797.20 286.35 798.47 C 283.97 798.90 284.68 801.81 284.77 803.51 C 299.85 803.46 314.90 801.83 329.99 801.55 C 332.42 801.30 334.21 803.69 334.13 805.96 C 334.61 810.30 333.44 816.01 328.64 817.41 C 318.71 820.38 308.20 820.25 297.96 821.15 C 294.47 821.00 290.64 822.16 287.37 820.92 C 275.41 803.20 266.67 783.43 260.49 763.00 C 258.44 755.45 255.96 746.98 259.21 739.44 C 262.88 735.03 268.90 733.82 274.05 731.90 C 279.32 730.23 284.47 728.13 289.83 726.75 Z"/>
<path fill="rgba(0,0,0,0)" opacity="1.00" d=" M 466.83 757.83 C 477.04 755.64 487.32 761.84 494.09 769.11 C 487.23 766.91 480.79 763.69 474.27 760.68 C 472.49 759.49 469.94 760.28 469.90 762.73 C 469.35 762.14 468.80 761.57 468.25 761.00 C 467.78 759.93 467.30 758.88 466.83 757.83 Z"/>
<path fill="rgba(0,0,0,0)" opacity="1.00" d=" M 468.04 762.17 C 471.78 766.79 477.95 768.21 483.03 770.89 C 487.48 772.62 492.18 775.37 497.10 774.23 C 502.85 784.69 500.78 797.32 497.20 808.14 C 494.91 813.61 492.86 819.44 488.70 823.81 C 485.32 826.61 481.61 829.50 477.14 830.14 C 472.84 830.00 468.94 827.82 465.21 825.88 C 459.19 822.23 452.93 818.84 447.62 814.17 C 446.27 812.92 444.64 812.03 442.97 811.30 C 449.80 805.03 454.92 797.07 458.71 788.65 C 463.02 780.31 466.16 771.34 468.04 762.17 M 469.92 778.61 C 475.21 781.48 480.91 783.48 486.58 785.48 C 490.93 786.91 495.44 788.44 500.09 788.08 C 500.12 787.26 500.18 785.62 500.21 784.80 C 499.21 784.10 498.32 783.14 497.09 782.93 C 491.01 781.23 484.94 779.41 479.17 776.84 C 476.87 775.85 474.57 774.66 472.05 774.43 C 469.94 774.82 469.89 776.89 469.92 778.61 M 459.76 788.34 C 465.57 792.24 472.09 794.92 478.58 797.48 C 484.82 799.60 491.13 802.06 497.81 802.16 C 497.69 800.60 498.97 798.63 497.86 797.34 C 493.36 795.98 488.63 795.49 484.19 793.88 C 476.46 791.14 468.90 787.87 461.79 783.77 C 461.07 785.27 460.39 786.79 459.76 788.34 M 456.91 801.00 C 467.75 807.94 479.86 812.93 492.49 815.47 C 493.12 814.01 493.90 812.58 494.13 811.00 C 493.24 809.97 491.70 810.02 490.53 809.56 C 482.93 807.61 475.39 805.26 468.36 801.76 C 464.42 799.64 460.78 797.01 456.74 795.09 C 454.94 796.69 454.60 799.67 456.91 801.00 M 450.28 804.80 C 448.97 806.17 447.70 808.85 449.76 810.18 C 460.35 816.90 471.66 822.86 483.95 825.78 C 486.49 825.79 487.18 821.95 484.76 821.20 C 478.01 818.26 470.80 816.36 464.31 812.81 C 459.46 810.45 455.21 806.92 450.28 804.80 Z"/>
<path fill="rgba(0,0,0,0)" opacity="1.00" d=" M 396.66 804.30 C 399.51 805.19 402.77 804.97 405.39 806.38 C 407.20 811.27 409.63 815.96 410.77 821.09 C 411.89 826.37 409.41 831.85 405.32 835.21 C 405.74 832.88 406.12 830.48 405.42 828.18 C 403.48 819.89 399.31 812.36 396.66 804.30 Z"/>
<path fill="rgba(0,0,0,0)" opacity="1.00" d=" M 411.59 807.88 C 419.21 811.04 426.82 814.37 434.93 816.12 C 442.17 824.54 450.22 832.19 458.06 840.04 C 461.59 843.55 465.52 847.66 465.25 853.04 C 464.90 858.37 462.92 863.65 463.96 869.05 C 465.03 876.51 471.03 881.96 477.05 885.86 C 500.10 900.91 525.45 912.02 551.00 922.05 C 575.36 931.06 600.31 938.70 625.91 943.28 C 642.32 946.53 659.12 948.28 675.85 947.30 C 676.52 959.22 677.46 971.14 678.03 983.07 C 671.06 985.51 663.38 986.27 656.06 987.67 C 601.88 996.45 546.64 996.56 492.02 992.56 C 461.23 990.13 430.62 985.98 400.11 981.23 C 385.87 979.07 371.59 977.14 357.38 974.80 C 361.10 932.04 363.69 889.19 366.47 846.35 C 374.95 846.21 383.44 846.57 391.92 846.24 C 398.50 845.93 405.06 843.39 409.63 838.54 C 413.71 834.09 416.23 828.02 415.75 821.93 C 415.38 816.99 413.32 812.44 411.59 807.88 Z"/>
<path fill="rgba(0,0,0,0)" opacity="1.00" d=" M 293.11 826.69 C 295.29 826.75 297.48 826.82 299.66 826.92 C 300.87 831.77 303.31 836.17 306.12 840.27 C 299.12 839.44 294.94 832.91 293.11 826.69 Z"/>
<path fill="rgba(0,0,0,0)" opacity="1.00" d=" M 288.44 827.47 C 290.91 834.00 292.63 841.07 297.25 846.52 C 302.10 852.87 310.22 855.75 317.98 856.06 C 326.77 856.43 335.40 852.43 341.38 846.09 C 348.13 846.36 354.91 845.93 361.66 846.47 C 359.26 877.67 357.71 908.97 355.06 940.14 C 351.20 943.90 344.93 945.00 339.91 943.04 C 333.55 940.68 328.67 935.68 323.98 930.97 C 308.88 914.44 297.89 894.62 288.61 874.37 C 285.24 866.72 281.61 858.65 282.54 850.07 C 282.96 842.18 286.39 834.98 288.44 827.47 Z"/>
<path fill="rgba(0,0,0,0)" opacity="1.00" d=" M 301.76 844.47 C 307.27 845.75 312.91 846.00 318.55 845.90 C 318.41 847.61 318.28 849.33 318.14 851.06 C 312.29 850.33 305.84 849.15 301.76 844.47 Z"/>
<path fill="rgba(0,0,0,0)" opacity="1.00" d=" M 324.06 845.93 C 327.43 845.83 330.80 845.74 334.17 845.83 C 331.04 848.22 327.20 849.26 323.57 850.63 C 323.74 849.05 323.90 847.48 324.06 845.93 Z"/>
</g>
<g id="Group-000000" fill="#1b245a">
<path fill="#1b245a" opacity="1.00" d=" M 507.72 124.68 C 529.39 119.45 552.29 125.14 571.65 135.32 C 606.95 154.02 634.46 186.69 647.38 224.44 C 654.74 244.94 656.39 266.85 661.14 287.99 C 664.75 303.09 668.48 318.24 674.35 332.64 C 682.00 352.74 692.66 371.57 704.73 389.33 C 714.01 403.34 724.44 416.59 733.18 430.96 C 744.25 449.27 748.83 470.84 749.01 492.06 C 724.39 503.83 699.29 514.65 673.75 524.28 C 685.90 535.01 695.77 548.14 703.47 562.37 C 712.65 579.32 717.84 598.06 721.66 616.86 C 724.96 634.05 726.54 651.51 727.69 668.96 C 728.27 683.64 728.16 698.34 729.10 713.01 C 731.20 747.06 733.74 781.09 737.05 815.04 C 737.74 817.13 735.45 817.81 734.16 818.83 C 734.43 826.52 735.41 834.15 735.86 841.83 C 737.27 842.13 738.70 842.49 740.12 842.87 C 741.12 857.51 741.63 872.26 740.39 886.91 C 739.80 895.58 736.44 903.73 732.56 911.40 C 729.17 918.05 724.69 924.17 719.23 929.27 C 708.85 939.31 694.74 944.55 680.67 946.71 C 682.79 972.43 683.56 998.24 684.98 1024.00 L 351.19 1024.00 C 351.27 1009.99 352.11 995.99 352.35 981.98 C 352.46 970.25 353.91 958.60 354.83 946.93 C 351.27 947.98 347.68 949.35 343.91 949.00 C 337.48 948.73 331.98 944.82 327.30 940.76 C 314.94 929.78 305.44 916.03 297.13 901.85 C 290.00 889.26 283.26 876.33 278.63 862.59 C 274.44 849.55 280.24 836.39 284.60 824.25 C 282.12 821.36 279.92 818.26 277.92 815.03 C 268.08 799.25 261.02 781.89 255.55 764.17 C 252.78 754.90 250.63 744.22 255.74 735.34 C 252.31 732.17 249.05 727.93 249.83 722.95 C 250.03 718.64 253.12 715.36 256.77 713.45 C 251.94 698.15 246.61 682.99 241.39 667.81 C 239.50 662.21 239.96 655.93 242.55 650.63 C 246.30 643.14 254.67 638.70 262.89 638.59 C 284.61 638.10 306.30 636.76 328.01 635.95 C 333.90 635.74 340.06 635.10 345.63 637.50 C 353.58 640.44 358.61 648.07 360.92 655.92 C 367.07 628.16 375.21 600.87 382.57 573.42 C 385.81 562.55 388.41 551.39 393.47 541.18 C 383.67 539.73 373.86 538.12 364.22 535.83 C 363.45 507.01 363.34 477.90 368.63 449.44 C 371.01 437.78 373.28 426.10 375.70 414.44 C 379.61 395.56 381.44 376.29 382.11 357.04 C 382.49 352.61 380.41 348.59 379.41 344.40 C 375.29 328.25 374.03 311.56 372.93 294.99 C 372.47 294.83 371.55 294.51 371.08 294.36 C 360.43 292.96 350.35 287.71 342.69 280.23 C 321.97 259.82 320.29 223.87 337.98 201.04 C 344.66 192.51 353.67 186.10 363.20 181.11 C 377.15 173.85 392.58 169.99 408.00 167.36 C 409.62 166.99 411.42 166.88 412.79 165.82 C 427.02 154.26 441.93 142.96 459.22 136.39 C 474.77 130.27 491.47 128.21 507.72 124.68 M 448.90 207.90 C 446.22 216.09 441.29 224.64 432.55 227.35 C 422.63 230.81 412.41 226.96 402.84 224.27 C 397.94 222.72 392.55 224.39 389.18 228.20 C 380.30 237.55 378.14 250.89 376.14 263.12 C 374.47 271.81 377.02 280.47 377.62 289.14 C 379.23 307.48 379.72 326.01 383.80 344.05 C 389.04 367.81 399.42 390.02 410.37 411.62 C 416.85 424.34 424.25 437.38 436.39 445.52 C 454.43 457.28 477.34 458.71 498.05 454.95 C 519.62 451.00 540.72 442.68 558.02 429.00 C 569.37 419.96 579.33 407.71 581.50 392.95 C 584.04 374.95 586.73 356.95 588.36 338.84 C 588.30 337.27 589.49 336.12 591.03 335.99 C 593.29 336.50 593.78 339.13 595.22 340.64 C 600.28 346.42 608.74 348.03 615.96 346.00 C 629.31 342.76 640.64 331.58 643.49 318.05 C 646.33 304.52 642.08 288.85 630.57 280.51 C 621.56 273.76 608.97 271.89 598.50 276.11 C 598.16 277.99 597.07 279.51 595.10 279.87 C 580.29 284.68 564.06 286.01 548.86 282.17 C 532.11 278.00 515.51 271.92 501.51 261.59 C 484.46 249.33 470.50 232.34 463.34 212.47 C 459.76 203.01 458.18 192.96 456.62 183.01 C 453.82 191.23 452.19 199.83 448.90 207.90 M 464.99 197.55 C 464.85 200.34 465.40 203.10 466.31 205.73 C 474.25 231.22 492.93 253.58 517.23 264.87 C 516.05 262.39 513.65 260.94 511.60 259.26 C 502.17 251.77 493.33 243.39 486.34 233.55 C 480.61 225.09 476.45 215.70 471.18 206.97 C 469.25 203.75 467.68 200.24 464.99 197.55 M 550.55 440.48 C 531.99 451.91 510.80 459.44 489.02 461.23 C 492.33 476.45 495.26 491.75 498.90 506.89 C 517.22 510.65 536.39 508.83 554.14 503.20 C 561.44 500.87 568.21 497.05 574.12 492.17 C 572.87 470.03 570.77 447.94 569.12 425.82 C 563.34 431.19 557.31 436.35 550.55 440.48 M 479.44 489.44 C 474.36 493.53 469.08 497.37 464.20 501.70 C 465.91 507.62 468.81 513.34 473.53 517.43 C 484.54 527.46 499.52 531.53 513.90 533.81 C 532.62 535.90 552.15 535.67 570.01 529.03 C 579.96 525.46 589.43 518.94 594.24 509.26 C 596.09 505.74 596.76 501.75 598.43 498.16 C 599.56 496.25 603.21 497.98 602.78 500.03 C 600.84 510.70 594.38 520.34 585.58 526.62 C 574.04 534.72 559.95 538.20 546.09 539.59 C 524.75 541.41 502.54 539.27 483.05 529.90 C 472.31 524.65 462.47 515.78 459.57 503.79 C 446.13 510.46 432.07 515.76 418.05 521.03 C 406.40 527.41 398.60 539.05 394.46 551.44 C 387.29 572.36 382.33 593.95 376.30 615.21 C 371.99 631.42 367.68 647.64 364.07 664.02 C 364.47 666.39 365.40 668.62 366.16 670.90 C 370.43 682.58 374.46 694.34 378.67 706.05 C 379.93 688.01 381.35 669.98 382.17 651.92 C 383.90 632.74 385.06 613.23 390.78 594.72 C 391.33 591.99 395.50 592.44 395.70 595.10 C 395.39 598.23 393.86 601.11 393.25 604.20 C 390.42 616.28 389.07 628.66 388.04 641.01 C 386.34 666.91 384.75 692.81 382.98 718.70 C 392.24 717.58 401.55 716.06 410.91 716.52 C 421.71 717.07 431.31 722.84 439.66 729.27 C 448.11 736.03 455.84 743.69 462.95 751.82 C 466.32 752.08 469.71 751.63 473.08 752.04 C 478.73 752.75 484.00 755.04 489.07 757.51 C 493.33 752.97 498.78 749.36 504.82 747.73 C 512.60 746.11 520.55 748.12 528.14 749.85 C 545.68 754.55 562.59 761.25 579.72 767.23 C 595.84 773.07 612.25 778.17 628.03 784.93 C 628.92 761.65 629.68 738.37 630.74 715.10 C 631.36 692.37 632.08 669.41 627.90 646.95 C 627.42 643.95 626.22 641.07 626.10 638.02 C 626.52 635.39 630.69 635.09 631.19 637.85 C 638.43 667.34 636.52 697.97 635.46 728.03 C 634.57 747.69 633.76 767.36 633.33 787.04 C 637.14 789.69 641.73 790.87 645.72 793.23 C 660.34 800.80 674.43 809.43 687.54 819.42 C 689.66 821.14 692.29 822.47 693.63 824.97 C 693.80 826.59 692.14 827.29 691.08 828.10 C 685.77 824.89 681.23 820.60 676.06 817.18 C 658.71 805.23 640.10 795.06 620.49 787.35 C 606.96 781.95 593.04 777.64 579.40 772.55 C 561.21 766.31 543.26 759.20 524.53 754.70 C 517.82 753.56 510.76 751.11 504.03 753.49 C 499.98 754.99 496.39 757.51 493.09 760.27 C 497.60 765.54 502.52 770.89 504.35 777.77 C 507.62 789.11 505.11 801.17 501.20 812.02 C 497.83 821.03 492.11 829.99 482.91 833.84 C 478.12 836.23 472.40 835.50 467.74 833.18 C 460.82 829.70 454.39 825.35 447.88 821.19 C 446.47 820.43 446.01 818.43 444.33 818.20 C 448.75 824.77 455.00 829.81 460.38 835.56 C 464.98 839.99 469.84 845.27 470.09 852.03 C 470.69 857.61 467.48 862.90 468.74 868.49 C 469.57 873.34 473.21 877.04 477.05 879.81 C 487.17 887.16 498.31 892.96 509.44 898.61 C 535.52 911.58 562.89 921.93 590.92 929.86 C 617.04 936.81 643.82 943.05 671.05 942.21 C 686.15 941.44 701.85 937.61 713.63 927.64 C 725.04 917.81 732.78 903.74 735.22 888.90 C 737.21 872.66 735.55 856.26 735.29 839.99 C 734.62 832.95 734.05 825.91 733.57 818.86 C 732.64 817.73 731.89 816.46 731.97 814.96 C 728.02 773.06 724.15 731.10 723.05 689.01 C 723.17 670.68 721.80 652.34 719.45 634.17 C 716.16 612.32 711.34 590.41 701.73 570.39 C 688.12 541.21 663.94 516.64 633.94 504.47 C 622.74 501.73 611.52 499.09 600.24 496.78 C 594.91 493.54 589.32 490.69 584.37 486.88 C 581.38 492.49 576.80 497.10 571.45 500.49 C 558.59 508.90 543.15 512.22 528.08 513.79 C 515.73 514.59 502.95 514.17 491.27 509.68 C 485.96 507.52 480.44 503.80 479.12 497.85 C 478.99 496.38 479.07 493.97 480.84 493.57 C 483.52 493.43 483.65 496.50 484.78 498.22 C 486.43 501.76 490.09 503.62 493.43 505.24 C 492.14 498.98 490.55 492.79 489.48 486.49 C 486.12 487.32 482.28 487.19 479.44 489.44 M 261.97 643.58 C 257.39 643.65 253.01 645.71 249.78 648.91 C 274.16 648.21 298.57 648.30 322.96 648.13 C 329.04 648.18 335.72 647.59 341.04 651.14 C 344.30 653.11 346.29 656.53 347.54 660.04 C 354.51 679.22 361.88 698.26 368.67 717.51 C 368.94 718.33 369.36 719.07 369.93 719.74 C 372.63 719.85 375.34 719.54 378.05 719.44 C 371.54 699.50 363.71 680.01 357.17 660.08 C 355.84 656.20 354.56 652.22 352.22 648.81 C 348.66 643.62 342.27 640.76 336.05 640.94 C 311.35 641.68 286.66 642.68 261.97 643.58 M 300.37 665.38 C 296.54 667.14 298.81 671.92 300.42 674.51 C 302.67 678.56 309.43 675.41 308.34 671.08 C 308.42 666.97 304.34 663.64 300.37 665.38 M 254.90 722.95 C 254.44 726.64 256.90 729.69 259.43 732.04 C 260.62 731.57 261.82 731.10 263.01 730.64 C 261.27 726.63 260.78 722.11 258.49 718.37 C 256.86 719.41 254.72 720.68 254.90 722.95 M 392.64 722.82 C 388.41 723.44 384.03 723.09 379.94 724.49 C 371.44 724.45 362.98 725.49 354.58 726.69 C 351.72 727.08 347.86 728.42 347.92 731.93 C 347.84 736.78 348.80 741.59 349.89 746.30 C 363.96 744.06 378.07 742.03 392.11 739.55 C 392.83 739.64 394.29 739.82 395.02 739.91 C 395.18 740.71 395.50 742.32 395.65 743.12 C 394.51 745.11 392.01 745.15 390.04 745.61 C 379.97 747.22 369.88 748.68 359.82 750.29 C 357.88 750.72 355.78 750.95 354.11 752.13 C 353.17 756.74 352.89 761.50 353.02 766.21 C 355.36 766.49 357.72 766.31 360.05 765.93 C 371.34 764.21 382.72 763.24 394.04 761.73 C 395.44 761.71 397.53 761.08 398.37 762.64 C 400.01 764.41 398.27 767.30 396.00 767.11 C 386.05 768.42 376.02 769.14 366.08 770.53 C 362.99 770.92 359.75 772.62 358.86 775.81 C 358.79 779.05 358.98 782.52 360.63 785.40 C 363.78 786.14 366.99 784.82 370.14 784.57 C 380.71 783.21 391.38 782.71 402.00 781.89 C 404.75 781.44 405.96 786.52 402.98 786.97 C 393.01 788.42 382.81 788.08 372.86 789.81 C 369.69 790.26 366.59 792.62 366.42 796.02 C 366.19 799.21 367.23 803.69 371.00 804.20 C 376.95 804.56 382.57 801.96 388.35 800.93 C 388.81 801.98 389.26 803.04 389.71 804.12 C 389.71 802.79 389.74 801.48 389.78 800.17 C 395.85 799.30 402.17 799.48 408.02 801.46 C 416.83 804.39 425.36 808.10 434.18 811.03 C 440.93 807.78 445.49 801.53 449.57 795.48 C 456.68 783.94 461.43 771.04 463.80 757.71 C 462.04 756.67 460.22 755.67 458.80 754.18 C 448.61 743.28 437.89 732.30 424.41 725.51 C 414.64 720.39 403.19 721.63 392.64 722.82 M 289.83 726.75 C 284.47 728.13 279.32 730.23 274.05 731.90 C 268.90 733.82 262.88 735.03 259.21 739.44 C 255.96 746.98 258.44 755.45 260.49 763.00 C 266.67 783.43 275.41 803.20 287.37 820.92 C 290.64 822.16 294.47 821.00 297.96 821.15 C 308.20 820.25 318.71 820.38 328.64 817.41 C 333.44 816.01 334.61 810.30 334.13 805.96 C 334.21 803.69 332.42 801.30 329.99 801.55 C 314.90 801.83 299.85 803.46 284.77 803.51 C 284.68 801.81 283.97 798.90 286.35 798.47 C 300.19 797.20 314.16 797.03 327.99 795.53 C 337.44 794.27 335.33 777.38 325.98 777.81 C 314.67 777.82 303.37 778.62 292.07 779.15 C 287.41 779.43 282.76 780.11 278.09 779.77 C 277.75 777.98 277.35 775.12 279.88 774.86 C 291.25 772.73 302.87 771.60 313.95 768.14 C 317.44 767.41 320.16 764.60 320.82 761.12 C 322.34 756.75 319.32 749.76 313.88 751.13 C 302.28 753.17 290.65 755.04 279.03 756.94 C 276.05 757.34 273.02 758.54 270.01 757.87 C 268.08 755.99 269.58 752.96 272.13 752.80 C 283.31 749.64 294.28 745.75 304.92 741.07 C 303.74 735.71 300.71 730.82 296.51 727.32 C 294.63 725.69 292.03 726.23 289.83 726.75 M 466.83 757.83 C 467.30 758.88 467.78 759.93 468.25 761.00 C 468.80 761.57 469.35 762.14 469.90 762.73 C 469.94 760.28 472.49 759.49 474.27 760.68 C 480.79 763.69 487.23 766.91 494.09 769.11 C 487.32 761.84 477.04 755.64 466.83 757.83 M 468.04 762.17 C 466.16 771.34 463.02 780.31 458.71 788.65 C 454.92 797.07 449.80 805.03 442.97 811.30 C 444.64 812.03 446.27 812.92 447.62 814.17 C 452.93 818.84 459.19 822.23 465.21 825.88 C 468.94 827.82 472.84 830.00 477.14 830.14 C 481.61 829.50 485.32 826.61 488.70 823.81 C 492.86 819.44 494.91 813.61 497.20 808.14 C 500.78 797.32 502.85 784.69 497.10 774.23 C 492.18 775.37 487.48 772.62 483.03 770.89 C 477.95 768.21 471.78 766.79 468.04 762.17 M 396.66 804.30 C 399.31 812.36 403.48 819.89 405.42 828.18 C 406.12 830.48 405.74 832.88 405.32 835.21 C 409.41 831.85 411.89 826.37 410.77 821.09 C 409.63 815.96 407.20 811.27 405.39 806.38 C 402.77 804.97 399.51 805.19 396.66 804.30 M 411.59 807.88 C 413.32 812.44 415.38 816.99 415.75 821.93 C 416.23 828.02 413.71 834.09 409.63 838.54 C 405.06 843.39 398.50 845.93 391.92 846.24 C 383.44 846.57 374.95 846.21 366.47 846.35 C 363.69 889.19 361.10 932.04 357.38 974.80 C 371.59 977.14 385.87 979.07 400.11 981.23 C 430.62 985.98 461.23 990.13 492.02 992.56 C 546.64 996.56 601.88 996.45 656.06 987.67 C 663.38 986.27 671.06 985.51 678.03 983.07 C 677.46 971.14 676.52 959.22 675.85 947.30 C 659.12 948.28 642.32 946.53 625.91 943.28 C 600.31 938.70 575.36 931.06 551.00 922.05 C 525.45 912.02 500.10 900.91 477.05 885.86 C 471.03 881.96 465.03 876.51 463.96 869.05 C 462.92 863.65 464.90 858.37 465.25 853.04 C 465.52 847.66 461.59 843.55 458.06 840.04 C 450.22 832.19 442.17 824.54 434.93 816.12 C 426.82 814.37 419.21 811.04 411.59 807.88 M 293.11 826.69 C 294.94 832.91 299.12 839.44 306.12 840.27 C 303.31 836.17 300.87 831.77 299.66 826.92 C 297.48 826.82 295.29 826.75 293.11 826.69 M 288.44 827.47 C 286.39 834.98 282.96 842.18 282.54 850.07 C 281.61 858.65 285.24 866.72 288.61 874.37 C 297.89 894.62 308.88 914.44 323.98 930.97 C 328.67 935.68 333.55 940.68 339.91 943.04 C 344.93 945.00 351.20 943.90 355.06 940.14 C 357.71 908.97 359.26 877.67 361.66 846.47 C 354.91 845.93 348.13 846.36 341.38 846.09 C 335.40 852.43 326.77 856.43 317.98 856.06 C 310.22 855.75 302.10 852.87 297.25 846.52 C 292.63 841.07 290.91 834.00 288.44 827.47 M 301.76 844.47 C 305.84 849.15 312.29 850.33 318.14 851.06 C 318.28 849.33 318.41 847.61 318.55 845.90 C 312.91 846.00 307.27 845.75 301.76 844.47 M 324.06 845.93 C 323.90 847.48 323.74 849.05 323.57 850.63 C 327.20 849.26 331.04 848.22 334.17 845.83 C 330.80 845.74 327.43 845.83 324.06 845.93 Z"/>
<path fill="#1b245a" opacity="1.00" d=" M 485.00 285.12 C 485.88 283.66 486.72 281.03 488.98 281.81 C 500.80 285.99 513.66 287.31 526.06 285.26 C 528.40 284.36 530.27 286.97 529.89 289.12 C 528.97 290.36 527.41 290.81 525.97 291.06 C 513.45 293.11 500.49 291.67 488.54 287.47 C 487.14 287.06 486.08 286.03 485.00 285.12 Z"/>
<path fill="#1b245a" opacity="1.00" d=" M 426.24 283.25 C 428.60 281.31 431.82 283.95 430.72 286.61 C 428.20 289.34 424.33 290.04 421.05 291.50 C 413.11 294.71 404.47 295.44 395.99 295.75 C 393.48 295.78 390.80 295.84 388.55 294.57 C 386.98 292.81 388.59 289.72 390.91 289.91 C 402.93 289.88 415.24 288.37 426.24 283.25 Z"/>
<path fill="#1b245a" opacity="1.00" d=" M 609.19 289.24 C 612.54 288.57 616.49 288.72 619.13 291.18 C 620.26 292.34 619.82 295.10 618.07 295.36 C 615.09 295.13 612.10 293.67 609.14 294.75 C 605.33 295.60 602.89 298.80 600.14 301.25 C 598.28 302.62 595.62 300.08 596.74 298.11 C 599.30 293.54 604.06 290.27 609.19 289.24 Z"/>
<path fill="#1b245a" opacity="1.00" d=" M 444.26 302.02 C 442.75 298.60 449.00 296.51 449.40 300.42 C 452.94 314.68 452.95 329.68 450.70 344.15 C 449.72 350.89 447.40 357.35 446.48 364.10 C 445.92 366.59 447.44 369.41 450.03 369.92 C 456.65 371.17 463.28 368.91 469.29 366.28 C 470.71 365.76 472.61 364.59 473.89 366.10 C 474.18 366.86 474.76 368.36 475.05 369.12 C 470.61 372.34 465.26 374.09 459.97 375.32 C 454.88 376.23 449.05 376.51 444.64 373.37 C 440.71 370.15 440.49 364.45 441.95 359.93 C 447.20 341.21 449.40 321.02 444.26 302.02 Z"/>
<path fill="#1b245a" opacity="1.00" d=" M 609.43 312.57 C 614.72 310.95 620.77 314.44 622.54 319.59 C 623.61 322.90 624.33 326.55 623.49 329.98 C 622.82 332.54 618.76 332.88 618.35 329.96 C 618.33 326.60 619.52 322.77 617.00 319.96 C 614.67 316.94 610.14 317.29 607.55 319.76 C 605.83 321.96 601.93 319.47 602.93 317.00 C 604.25 314.61 606.92 313.34 609.43 312.57 Z"/>
<path fill="#1b245a" opacity="1.00" d=" M 503.34 321.43 C 504.55 320.35 506.41 319.85 507.89 320.72 C 511.28 322.44 512.33 326.51 513.06 329.94 C 513.70 334.09 514.06 338.87 511.65 342.56 C 510.44 344.39 508.02 344.48 506.12 343.91 C 502.82 341.43 501.89 337.03 501.33 333.16 C 500.94 329.23 500.55 324.62 503.34 321.43 Z"/>
<path fill="#1b245a" opacity="1.00" d=" M 414.36 322.24 C 416.36 321.09 419.12 321.55 420.44 323.52 C 422.80 326.81 423.62 330.99 423.89 334.96 C 423.96 338.43 423.81 342.64 420.74 344.91 C 418.66 345.67 415.97 345.33 414.70 343.34 C 412.04 339.49 411.63 334.60 411.61 330.05 C 411.69 327.30 411.85 323.97 414.36 322.24 Z"/>
<path fill="#1b245a" opacity="1.00" d=" M 454.42 402.67 C 465.29 402.29 476.16 401.90 487.02 401.48 C 489.61 400.94 491.16 403.91 490.72 406.11 C 489.42 412.22 485.43 418.06 479.48 420.41 C 473.56 422.75 466.81 421.64 461.32 418.68 C 459.80 417.79 458.17 416.79 457.41 415.12 C 457.57 413.25 459.75 411.54 461.55 412.61 C 465.47 414.39 469.41 416.86 473.92 416.34 C 479.41 416.08 483.44 411.49 485.27 406.66 C 475.19 407.10 465.11 407.44 455.03 407.80 C 451.57 408.43 451.16 402.92 454.42 402.67 Z"/>
<path fill="#1b245a" opacity="1.00" d=" M 469.92 778.61 C 469.89 776.89 469.94 774.82 472.05 774.43 C 474.57 774.66 476.87 775.85 479.17 776.84 C 484.94 779.41 491.01 781.23 497.09 782.93 C 498.32 783.14 499.21 784.10 500.21 784.80 C 500.18 785.62 500.12 787.26 500.09 788.08 C 495.44 788.44 490.93 786.91 486.58 785.48 C 480.91 783.48 475.21 781.48 469.92 778.61 Z"/>
<path fill="#1b245a" opacity="1.00" d=" M 459.76 788.34 C 460.39 786.79 461.07 785.27 461.79 783.77 C 468.90 787.87 476.46 791.14 484.19 793.88 C 488.63 795.49 493.36 795.98 497.86 797.34 C 498.97 798.63 497.69 800.60 497.81 802.16 C 491.13 802.06 484.82 799.60 478.58 797.48 C 472.09 794.92 465.57 792.24 459.76 788.34 Z"/>
<path fill="#1b245a" opacity="1.00" d=" M 456.91 801.00 C 454.60 799.67 454.94 796.69 456.74 795.09 C 460.78 797.01 464.42 799.64 468.36 801.76 C 475.39 805.26 482.93 807.61 490.53 809.56 C 491.70 810.02 493.24 809.97 494.13 811.00 C 493.90 812.58 493.12 814.01 492.49 815.47 C 479.86 812.93 467.75 807.94 456.91 801.00 Z"/>
<path fill="#1b245a" opacity="1.00" d=" M 450.28 804.80 C 455.21 806.92 459.46 810.45 464.31 812.81 C 470.80 816.36 478.01 818.26 484.76 821.20 C 487.18 821.95 486.49 825.79 483.95 825.78 C 471.66 822.86 460.35 816.90 449.76 810.18 C 447.70 808.85 448.97 806.17 450.28 804.80 Z"/>
</g>
</g></svg>