<svg xmlns="http://www.w3.org/2000/svg" viewBox="-2 -2 1028 1028" version="1.1" width="200px" height="200px">
<g id="Parent-Group"><g id="Group-rgba(0,0,0,0)" fill="rgba(0,0,0,0)">
<path fill="rgba(0,0,0,0)" opacity="1.00" d=" M 0.00 0.00 L 1024.00 0.00 L 1024.00 901.46 C 1017.11 901.67 1010.22 901.62 1003.34 901.73 C 1004.21 885.17 1003.92 868.58 1004.37 852.00 C 1004.22 847.85 1005.17 843.47 1003.55 839.51 C 1001.70 835.65 1003.54 831.30 1002.55 827.27 C 1000.00 825.66 996.86 826.43 994.05 826.45 C 980.61 827.09 967.13 826.46 953.70 827.53 C 970.96 762.43 987.98 697.25 1005.46 632.20 C 1008.25 621.16 1011.87 610.30 1013.65 599.04 C 1014.04 594.73 1014.59 589.35 1010.52 586.54 C 1006.20 583.91 1001.02 582.54 995.98 582.37 C 966.02 583.33 936.04 582.77 906.07 582.88 C 859.70 583.08 813.34 582.25 766.98 581.46 C 745.65 581.05 724.30 581.14 702.98 582.21 C 695.80 582.80 688.09 581.10 681.36 584.33 C 676.93 587.15 673.72 591.95 672.82 597.14 C 664.47 638.21 654.89 679.03 646.06 720.01 C 634.14 774.75 621.32 829.30 609.89 884.14 C 609.06 884.17 607.40 884.22 606.58 884.25 C 608.52 877.27 608.71 869.98 609.78 862.86 C 612.43 841.50 613.97 820.01 614.74 798.50 C 615.66 776.63 615.27 754.71 613.15 732.92 C 611.49 713.60 608.18 694.35 602.13 675.90 C 599.36 667.69 595.78 659.69 590.71 652.64 C 596.88 649.62 601.68 644.03 603.07 637.22 C 605.92 625.18 598.55 613.96 598.82 601.99 C 599.08 587.17 605.63 573.50 611.68 560.28 C 619.75 545.11 624.34 528.18 625.64 511.07 C 627.23 491.96 625.40 472.68 621.25 454.00 C 632.52 448.20 637.77 435.60 640.63 423.92 C 649.16 386.27 634.36 343.93 603.28 320.72 C 589.54 310.44 572.11 303.51 554.73 305.85 C 529.57 283.05 496.15 269.60 462.28 268.08 C 460.96 257.46 454.43 248.69 451.05 238.75 C 447.70 230.05 441.95 221.78 433.32 217.68 C 424.91 213.36 415.14 215.23 406.18 213.42 C 400.14 211.62 394.67 207.87 388.23 207.50 C 383.55 207.85 378.79 208.43 374.55 210.57 C 365.17 207.58 355.21 203.12 345.25 206.14 C 338.40 207.92 334.39 214.35 328.13 217.19 C 324.69 218.98 320.96 220.06 317.41 221.58 C 311.62 224.37 306.20 228.15 302.12 233.16 C 298.09 237.36 294.64 242.17 292.50 247.61 C 290.13 253.21 289.79 259.50 286.79 264.85 C 284.03 269.84 279.96 274.29 278.94 280.08 C 277.94 284.36 278.87 288.71 279.14 293.00 C 279.50 299.24 275.39 304.81 276.04 311.07 C 276.78 316.09 278.28 321.23 281.80 325.04 C 283.39 327.12 286.05 328.90 285.85 331.84 C 285.98 337.32 286.70 342.92 289.18 347.89 C 292.18 354.52 298.21 359.07 301.62 365.45 C 304.48 370.77 307.49 376.16 312.16 380.14 C 307.42 394.05 305.31 408.65 303.90 423.23 C 301.46 449.75 301.37 476.41 300.08 503.00 C 298.81 529.83 299.73 557.21 292.20 583.27 C 287.85 599.40 280.45 615.05 280.12 632.01 C 279.57 645.08 287.74 657.75 299.38 663.38 C 291.38 680.01 286.52 697.89 281.51 715.59 C 275.27 737.76 270.01 760.20 265.44 782.77 C 255.49 786.51 245.53 790.62 236.78 796.78 C 221.20 807.34 208.47 821.79 198.94 837.96 C 187.34 857.76 180.80 880.15 177.04 902.66 C 176.14 902.88 174.35 903.32 173.45 903.54 C 173.47 891.07 174.57 878.57 173.79 866.12 C 172.48 865.43 171.16 864.76 169.85 864.11 C 169.76 856.08 170.92 848.06 170.32 840.04 C 169.40 837.50 166.62 836.30 164.10 836.22 C 154.66 835.61 145.18 835.16 135.72 835.71 C 144.28 813.79 150.86 791.17 156.63 768.38 C 157.17 765.57 158.56 761.47 155.49 759.65 C 152.18 758.46 148.53 758.23 145.05 758.48 C 142.22 758.90 141.00 761.84 140.29 764.26 C 134.03 787.77 127.03 811.22 123.98 835.43 C 119.35 835.49 114.73 835.62 110.10 835.60 C 101.62 810.47 91.68 785.85 83.16 760.73 C 82.56 758.80 81.37 757.17 80.15 755.60 C 77.18 757.81 74.20 760.13 71.88 763.04 C 71.89 768.15 73.68 773.06 74.82 777.99 C 80.56 798.11 88.20 817.78 98.40 836.07 C 93.13 836.38 87.46 835.42 82.51 837.61 C 81.61 840.69 83.08 843.86 82.74 847.01 C 82.39 851.92 82.80 856.90 82.13 861.78 C 80.65 862.97 78.26 863.40 77.69 865.46 C 76.64 868.89 77.48 872.52 77.38 876.04 C 77.10 897.70 77.14 919.37 77.14 941.03 C 76.65 964.01 76.59 987.01 76.72 1009.99 C 76.47 1012.73 76.89 1015.53 78.91 1017.57 C 80.78 1015.83 82.58 1013.78 82.43 1011.05 C 84.37 977.22 85.24 943.33 85.88 909.45 C 107.49 909.72 129.11 909.60 150.71 909.23 C 205.48 908.99 260.25 908.02 315.03 908.10 C 358.64 907.70 402.26 908.00 445.87 907.66 C 457.91 908.08 469.97 907.61 482.01 907.94 C 486.33 908.45 490.66 908.09 494.98 907.92 C 529.89 907.68 564.81 907.89 599.70 907.44 C 600.86 908.04 602.02 908.65 603.20 909.28 C 604.11 908.56 605.02 907.86 605.93 907.16 C 607.03 907.65 608.11 908.12 609.22 908.65 C 610.09 908.09 610.97 907.55 611.86 907.01 C 612.36 907.41 613.36 908.20 613.86 908.59 C 614.34 908.27 615.30 907.62 615.78 907.30 C 630.83 906.40 645.93 906.90 661.00 906.70 C 672.66 906.55 684.32 906.61 695.98 906.45 C 700.45 906.25 704.83 908.47 709.22 906.80 C 734.80 906.33 760.39 906.77 785.98 906.50 C 788.43 906.30 790.73 907.21 793.09 907.72 C 800.23 905.86 807.67 906.69 814.97 906.47 C 845.31 906.34 875.64 905.97 905.98 905.76 C 931.35 905.42 956.70 905.67 982.07 905.15 C 996.05 905.29 1010.02 904.67 1024.00 904.87 L 1024.00 1024.00 L 0.00 1024.00 L 0.00 0.00 M 614.92 259.72 C 614.45 266.48 614.99 273.28 614.45 280.05 C 614.33 284.73 613.21 289.33 613.34 294.03 C 617.27 293.01 618.12 288.50 618.92 285.09 C 620.30 277.12 620.19 268.88 619.19 260.88 C 619.21 258.57 615.44 256.88 614.92 259.72 M 716.15 259.04 C 703.90 265.37 692.73 274.70 685.61 286.62 C 684.75 288.39 682.63 291.58 685.22 292.80 C 687.29 290.64 688.72 287.98 690.62 285.68 C 698.18 276.41 707.86 269.21 717.77 262.64 C 719.88 261.58 718.34 257.88 716.15 259.04 M 640.16 302.14 C 638.76 304.41 640.57 305.87 642.68 306.30 C 646.44 301.60 648.64 295.82 650.13 290.06 C 650.95 288.02 649.10 286.86 647.86 285.64 C 643.81 290.31 643.09 296.81 640.16 302.14 M 666.28 329.20 C 667.40 329.71 668.65 331.20 669.97 330.21 C 674.38 327.49 677.73 323.38 681.25 319.63 C 681.05 318.22 680.00 315.24 678.18 316.79 C 673.66 320.31 669.74 324.64 666.28 329.20 M 678.33 350.40 C 676.30 351.72 677.80 353.58 678.75 355.05 C 684.35 351.90 689.76 348.42 695.28 345.14 C 697.37 344.23 695.50 342.15 695.17 340.75 C 688.81 342.37 683.39 346.39 678.33 350.40 M 733.91 377.18 C 730.44 378.32 726.33 379.23 724.34 382.63 C 728.59 382.44 732.62 380.94 736.82 380.37 C 745.80 378.85 754.95 379.38 763.97 380.11 C 767.00 378.46 763.82 375.69 761.50 375.74 C 752.34 374.58 742.86 374.74 733.91 377.18 M 695.26 383.02 C 693.84 384.06 695.46 386.17 696.90 385.86 C 700.43 385.97 704.15 385.83 707.31 384.01 C 703.56 382.25 699.24 382.51 695.26 383.02 M 697.09 405.19 C 694.27 405.53 691.36 405.74 688.72 406.86 C 687.54 409.10 689.69 411.21 691.96 410.72 C 698.01 409.88 704.05 410.88 710.08 411.35 C 713.00 411.16 712.58 407.29 710.15 406.56 C 706.01 405.04 701.44 405.09 697.09 405.19 M 682.72 437.16 C 682.33 437.61 681.55 438.51 681.16 438.96 C 682.35 439.90 683.59 440.80 684.88 441.66 C 685.38 441.36 686.40 440.76 686.90 440.46 C 685.86 438.94 684.42 437.84 682.72 437.16 M 672.38 457.85 C 675.24 461.68 678.79 465.28 683.08 467.46 C 683.54 466.84 684.45 465.62 684.91 465.00 C 682.91 461.21 679.27 458.59 675.85 456.17 C 674.46 454.90 673.34 457.18 672.38 457.85 M 698.60 456.75 C 701.13 460.42 705.20 462.53 708.28 465.68 C 713.78 470.50 717.66 476.83 723.10 481.71 C 723.65 481.29 724.75 480.43 725.30 480.00 C 724.72 476.98 722.49 474.70 720.65 472.38 C 715.71 466.90 710.50 461.42 703.96 457.86 C 702.33 456.93 700.38 456.99 698.60 456.75 M 284.93 912.61 C 284.71 920.07 285.23 927.53 284.97 935.00 C 285.39 943.20 284.65 951.45 285.47 959.64 C 288.45 956.14 287.97 951.26 288.19 946.99 C 288.11 936.32 288.56 925.61 287.60 914.96 C 285.81 914.97 286.71 913.65 287.45 912.91 L 284.93 912.61 M 284.41 970.94 C 284.95 985.57 284.40 1000.22 284.91 1014.86 C 287.45 1012.24 287.54 1008.44 287.64 1005.04 C 287.78 996.39 287.56 987.74 287.40 979.09 C 287.21 975.82 287.49 972.48 286.66 969.29 C 284.97 968.67 284.22 969.22 284.41 970.94 Z"/>
<path fill="rgba(0,0,0,0)" opacity="1.00" d=" M 386.86 270.58 C 398.73 265.17 413.22 265.00 424.81 271.24 C 399.36 275.71 375.98 289.21 358.62 308.24 C 360.68 291.93 371.84 277.19 386.86 270.58 Z"/>
<path fill="rgba(0,0,0,0)" opacity="1.00" d=" M 414.16 431.23 C 426.98 416.61 434.55 398.04 437.84 379.02 C 438.00 383.29 440.23 387.02 442.27 390.64 C 447.06 398.86 452.89 406.58 460.18 412.76 C 475.37 426.88 493.40 437.88 512.76 445.28 C 516.89 447.05 521.57 447.41 525.42 449.81 C 532.65 449.94 539.87 451.65 547.10 450.35 C 554.32 449.04 561.94 446.98 567.30 441.65 C 576.94 444.29 586.96 444.55 596.88 444.30 C 602.74 449.44 609.91 453.67 617.90 453.96 C 622.69 473.22 623.68 493.36 621.60 513.07 C 619.33 534.47 611.51 555.35 598.54 572.57 C 588.95 585.30 576.71 595.89 563.18 604.24 C 542.59 616.95 519.08 624.71 495.07 627.40 C 486.02 615.49 473.20 607.08 460.34 599.79 C 449.35 593.92 437.98 588.72 426.14 584.80 C 420.02 574.25 414.84 563.17 409.78 552.08 C 406.78 545.97 405.56 539.19 402.56 533.10 C 400.38 528.47 393.17 528.32 390.10 532.07 C 387.44 535.11 387.34 539.47 388.02 543.25 C 385.18 541.52 381.04 540.89 378.46 543.42 C 374.91 546.42 375.91 551.53 374.75 555.59 C 371.99 568.15 372.14 581.22 374.87 593.77 C 368.70 589.24 362.71 584.36 357.69 578.56 C 356.78 577.44 355.83 576.29 355.44 574.89 C 355.24 568.16 356.17 561.47 356.33 554.77 C 352.38 557.50 348.67 560.83 343.83 561.86 C 336.06 564.65 327.04 562.69 321.00 557.12 C 308.71 546.15 306.00 525.52 316.26 512.34 C 321.34 505.43 330.75 501.01 339.19 503.92 C 348.39 507.33 354.23 516.60 356.39 525.81 C 357.90 526.00 359.27 524.99 359.64 523.54 C 360.70 519.81 360.63 515.89 360.83 512.05 C 361.37 494.73 362.37 477.42 362.92 460.10 C 372.21 449.53 379.91 437.67 389.17 427.08 C 395.77 418.48 402.75 410.18 409.42 401.64 C 406.92 411.14 404.49 420.69 400.91 429.86 C 399.84 432.91 398.31 435.88 398.02 439.15 C 398.56 441.18 400.94 443.04 403.02 441.82 C 407.72 439.52 410.68 434.95 414.16 431.23 M 464.40 427.21 C 458.91 433.35 451.27 437.39 443.19 438.83 C 433.06 440.58 423.04 437.26 412.97 436.67 C 411.15 436.07 411.29 438.40 410.90 439.46 C 416.78 441.21 422.91 441.81 428.94 442.84 C 439.75 444.58 451.39 442.71 460.51 436.47 C 463.28 434.47 466.02 432.15 467.46 428.97 C 468.83 427.38 465.25 425.69 464.40 427.21 M 564.77 459.75 C 562.25 460.86 559.30 462.51 559.60 465.76 C 563.44 464.76 566.92 462.56 570.93 462.22 C 581.91 461.01 592.55 467.68 598.38 476.69 C 600.32 479.41 601.27 482.89 603.92 485.07 C 606.19 485.12 605.90 482.37 605.27 481.02 C 602.06 472.33 595.16 465.22 586.95 461.06 C 580.16 457.72 571.86 456.72 564.77 459.75 M 432.18 459.20 C 422.00 461.73 411.84 467.40 406.74 476.92 C 405.67 479.05 404.47 481.89 406.34 483.95 C 408.55 483.60 409.49 481.32 410.73 479.74 C 417.29 469.56 429.42 464.45 441.07 463.00 C 443.05 463.05 445.63 461.16 443.59 459.24 C 440.06 457.38 435.89 458.70 432.18 459.20 M 456.42 500.52 C 449.33 502.91 447.24 514.62 454.18 518.32 C 460.20 520.96 466.91 515.41 466.41 509.11 C 466.98 503.82 461.77 498.45 456.42 500.52 M 569.21 500.17 C 563.34 502.45 561.47 510.86 565.17 515.73 C 567.30 518.40 571.18 518.34 574.17 517.46 C 579.42 515.23 580.89 508.23 578.46 503.45 C 576.79 500.22 572.53 498.70 569.21 500.17 M 524.15 509.88 C 524.68 517.78 525.99 525.77 524.84 533.67 C 522.69 534.04 520.52 534.33 518.37 534.65 C 518.35 535.28 518.30 536.56 518.27 537.20 C 521.58 537.92 526.24 538.73 528.23 535.19 C 530.11 530.69 528.84 525.67 528.72 520.97 C 527.97 515.74 528.17 509.95 524.96 505.49 C 524.29 506.89 524.02 508.35 524.15 509.88 M 324.28 530.56 C 321.52 537.08 325.58 544.55 331.44 547.73 C 332.81 548.62 334.85 548.86 335.56 547.00 C 332.89 542.68 327.58 539.75 327.64 534.05 C 328.97 532.28 329.85 530.16 331.41 528.57 C 333.48 526.96 336.00 526.01 337.90 524.16 C 336.87 523.14 335.81 521.00 334.00 522.03 C 329.58 523.01 325.51 526.07 324.28 530.56 M 514.59 559.76 C 509.58 560.97 504.89 563.62 501.31 567.34 C 499.36 569.46 497.46 572.03 497.49 575.06 C 497.40 578.46 501.53 580.83 504.51 579.36 C 509.74 577.12 514.99 574.16 520.92 574.75 C 525.73 574.44 530.85 578.18 535.32 575.34 C 538.63 572.98 537.87 568.28 535.42 565.60 C 530.28 559.96 521.91 557.94 514.59 559.76 Z"/>
<path fill="rgba(0,0,0,0)" opacity="1.00" d=" M 570.95 438.05 C 572.81 435.71 574.36 433.15 575.64 430.45 C 580.39 433.91 585.47 436.86 590.59 439.73 C 584.01 439.90 577.41 439.31 570.95 438.05 Z"/>
<path fill="rgba(0,0,0,0)" opacity="1.00" d=" M 392.44 536.41 C 393.38 534.59 395.39 533.82 397.06 532.85 C 398.08 534.19 399.04 535.59 399.94 537.03 C 397.02 538.16 393.49 539.63 392.75 543.06 C 391.48 546.13 392.86 549.34 393.47 552.39 C 396.89 566.20 401.94 579.62 408.80 592.10 C 409.94 594.21 411.35 596.19 413.10 597.86 C 416.03 597.34 413.94 594.56 413.39 592.87 C 406.31 578.54 400.41 563.55 396.83 547.95 C 396.51 546.13 396.21 543.18 398.50 542.58 C 400.17 541.58 401.33 543.59 402.14 544.75 C 406.26 551.36 408.85 558.75 412.23 565.74 C 415.38 572.45 418.82 579.03 422.63 585.38 C 423.53 587.14 425.12 588.37 426.96 589.07 C 446.27 596.92 465.55 605.82 481.66 619.30 C 488.43 625.21 494.95 631.95 498.41 640.39 C 501.60 648.71 497.42 657.16 495.04 665.08 C 486.70 689.21 477.16 712.91 467.32 736.46 C 451.32 728.96 436.42 719.25 422.43 708.49 C 418.99 705.82 415.41 703.28 412.48 700.03 C 422.79 684.96 432.67 669.59 442.12 653.97 C 444.43 650.04 446.99 646.13 447.98 641.62 C 446.04 642.56 444.55 644.14 443.16 645.76 C 425.51 640.54 408.20 633.03 394.01 621.10 C 383.71 612.22 379.24 598.63 377.61 585.52 C 376.79 578.56 376.69 571.49 377.32 564.51 C 381.59 581.69 387.79 598.89 399.42 612.54 C 400.54 613.77 401.78 614.88 403.01 616.01 C 403.57 615.75 404.69 615.22 405.25 614.95 C 399.18 606.11 392.94 597.23 388.97 587.19 C 384.15 575.37 380.22 562.92 379.66 550.11 C 379.35 546.13 385.04 544.88 387.04 547.90 C 388.38 550.03 388.24 552.71 388.77 555.12 C 391.62 573.37 397.36 591.65 408.64 606.51 C 409.32 607.89 410.87 607.56 412.02 607.06 C 411.90 604.73 410.26 602.94 409.20 600.98 C 399.41 584.86 393.88 566.41 391.89 547.72 C 391.76 543.96 390.34 539.86 392.44 536.41 Z"/>
<path fill="rgba(0,0,0,0)" opacity="1.00" d=" M 688.98 587.29 C 706.67 587.03 724.34 585.91 742.03 585.87 C 810.01 586.57 877.98 587.43 945.97 587.10 C 963.66 587.22 981.34 586.91 999.01 586.27 C 1002.99 586.33 1006.97 587.68 1010.15 590.10 C 1010.45 595.74 1010.68 601.87 1007.80 606.95 C 1006.27 616.11 1003.23 624.94 1001.06 633.97 C 988.08 681.91 975.57 729.97 962.94 778.01 C 957.72 796.88 953.20 815.95 947.63 834.73 C 947.14 835.06 946.14 835.72 945.64 836.05 C 946.07 836.94 946.51 837.83 946.97 838.74 C 940.91 859.92 935.19 881.20 929.04 902.36 C 916.72 902.42 904.41 902.43 892.10 902.51 C 881.26 858.84 869.26 815.45 859.68 771.48 C 857.43 761.61 855.52 751.61 852.05 742.07 C 851.07 739.30 850.22 736.17 847.63 734.45 C 845.79 733.20 844.77 731.20 843.57 729.42 C 835.00 716.80 818.97 709.64 803.85 711.98 C 794.06 713.16 784.96 718.11 778.05 725.06 C 774.84 728.25 772.62 732.26 769.64 735.65 C 767.46 738.14 766.67 741.44 765.33 744.40 C 746.26 788.08 727.79 832.03 708.77 875.73 C 704.88 884.75 700.57 893.59 697.04 902.77 C 671.72 902.57 646.38 903.13 621.07 902.77 C 617.78 900.75 615.45 897.55 612.55 895.06 C 613.88 891.54 614.39 887.81 614.99 884.12 C 621.77 851.34 629.27 818.72 636.60 786.06 C 650.05 725.44 663.57 664.84 676.58 604.13 C 677.22 602.08 677.61 599.95 676.96 597.84 C 678.92 592.81 682.92 587.01 688.98 587.29 M 966.90 604.68 C 967.12 605.27 967.57 606.45 967.80 607.03 C 974.95 607.69 982.24 607.73 989.43 607.31 C 989.43 606.41 989.42 604.63 989.42 603.73 C 985.44 602.24 981.16 602.79 977.02 602.74 C 973.58 602.80 969.86 602.61 966.90 604.68 M 850.01 638.80 C 844.48 643.39 838.97 648.32 835.29 654.57 C 841.62 653.84 846.18 648.69 850.89 644.87 C 852.42 643.27 855.87 641.67 854.13 639.04 C 853.30 637.34 851.17 637.66 850.01 638.80 Z"/>
<path fill="rgba(0,0,0,0)" opacity="1.00" d=" M 510.97 668.98 C 514.33 658.25 515.99 647.06 517.61 635.96 C 520.38 636.59 523.22 636.77 526.06 636.85 C 541.79 637.75 557.67 639.50 572.64 644.66 C 578.63 646.90 585.30 649.28 588.83 655.02 C 598.80 670.05 603.10 687.99 606.34 705.51 C 609.90 726.46 610.78 747.78 610.35 769.00 C 610.70 791.38 609.79 813.76 607.71 836.05 C 605.87 852.15 603.86 868.24 602.01 884.34 C 581.07 884.74 560.13 885.32 539.18 885.42 C 544.85 845.68 549.39 805.79 553.59 765.87 C 555.48 746.63 557.67 727.41 558.56 708.10 C 559.05 706.18 557.18 702.61 555.39 705.32 C 552.98 724.87 551.51 744.55 549.32 764.14 C 545.15 804.66 540.25 845.11 534.79 885.48 C 514.83 886.00 494.87 886.21 474.91 886.64 C 471.96 886.74 468.54 886.04 466.08 888.10 C 463.29 890.27 463.48 894.72 465.76 897.21 C 467.67 899.23 470.23 900.76 473.02 901.12 C 474.66 901.43 476.67 901.25 477.53 903.07 C 436.69 902.47 395.85 902.92 355.01 902.62 C 319.70 902.63 284.38 901.97 249.08 902.66 C 254.73 857.76 262.27 813.08 271.84 768.84 C 278.56 739.17 285.94 709.55 296.26 680.90 C 300.19 670.91 303.87 660.38 311.22 652.32 C 317.73 645.61 327.08 643.10 335.88 640.96 C 359.29 635.70 383.52 636.29 407.32 637.74 C 407.32 639.22 407.31 640.70 407.33 642.20 C 408.16 642.59 409.83 643.37 410.67 643.77 C 412.08 641.98 411.82 639.71 411.77 637.60 C 412.71 638.56 414.58 639.21 414.18 640.90 C 413.94 645.88 412.71 650.87 413.65 655.86 C 414.27 663.69 418.33 670.66 422.77 676.95 C 420.49 679.94 418.68 683.29 416.10 686.05 C 413.17 689.26 412.01 693.53 409.80 697.19 C 407.00 695.95 403.91 696.70 402.41 699.44 C 395.62 710.09 389.37 721.10 382.51 731.72 C 379.34 718.67 375.21 705.87 371.76 692.89 C 370.27 687.71 369.02 682.40 366.53 677.59 C 365.05 680.24 366.33 683.18 366.84 685.93 C 370.78 702.70 375.37 719.30 380.01 735.89 C 371.26 750.67 362.39 765.44 355.21 781.08 C 352.76 786.74 350.23 792.67 350.47 798.97 C 350.89 798.53 351.72 797.66 352.14 797.22 C 360.90 777.38 371.73 758.53 382.95 740.00 C 390.91 727.16 398.59 714.15 406.87 701.52 C 425.89 717.76 446.64 732.32 469.65 742.33 C 462.33 761.87 453.62 780.87 444.70 799.73 C 436.42 816.60 427.81 833.46 416.43 848.50 C 410.05 856.69 402.85 864.64 393.56 869.56 C 383.05 875.14 369.45 874.21 359.84 867.20 C 350.53 860.70 344.24 850.92 338.82 841.16 C 327.48 820.24 320.26 797.39 314.39 774.42 C 311.84 765.40 310.60 755.98 307.10 747.25 C 306.04 750.77 307.24 754.41 307.72 757.93 C 311.90 780.52 317.93 802.87 326.80 824.09 C 333.25 839.02 340.52 854.15 352.18 865.77 C 360.06 873.92 371.66 878.49 383.00 877.15 C 392.47 876.27 401.04 871.22 407.88 864.83 C 420.92 852.62 430.14 837.08 438.73 821.59 C 452.01 796.67 463.56 770.84 473.73 744.51 C 475.13 741.71 473.65 738.96 471.35 737.28 C 477.96 721.21 484.49 705.08 490.73 688.87 C 499.74 685.40 508.30 678.62 510.97 668.98 M 521.30 641.71 C 520.88 642.75 520.49 643.80 520.11 644.86 C 521.45 645.36 522.79 645.81 524.16 646.26 C 524.67 643.99 524.07 641.61 521.30 641.71 M 410.26 650.39 C 410.63 648.94 411.05 647.49 411.07 646.00 C 409.22 644.57 407.36 643.14 405.58 641.64 C 403.00 645.49 406.83 649.05 410.26 650.39 M 519.19 647.78 C 519.02 648.69 518.70 650.50 518.54 651.41 C 520.91 651.68 524.95 654.80 525.70 650.96 C 524.37 648.64 521.53 648.30 519.19 647.78 M 402.74 650.42 C 403.26 653.08 405.00 656.14 401.74 657.77 C 402.96 658.94 404.29 659.96 405.84 660.68 C 405.63 661.00 405.22 661.63 405.01 661.95 C 406.11 660.53 407.85 660.01 409.40 659.28 C 409.24 658.81 408.94 657.88 408.79 657.41 C 407.61 657.41 406.42 657.33 405.25 657.21 C 405.46 655.69 405.70 654.20 405.97 652.71 C 406.34 654.42 405.82 656.67 408.21 657.30 C 408.61 656.30 408.96 655.29 409.25 654.27 C 408.45 652.80 406.76 652.16 405.57 651.07 C 404.62 650.84 403.68 650.62 402.74 650.42 M 518.17 654.45 C 516.67 657.00 518.18 658.89 520.36 660.24 C 517.64 659.71 516.38 660.78 517.07 663.44 C 516.28 664.75 515.48 666.06 514.68 667.37 C 516.28 668.13 517.86 668.95 519.43 669.79 C 520.10 668.81 520.77 667.83 521.42 666.85 C 520.21 666.35 517.80 665.34 516.59 664.84 C 518.62 664.28 520.76 663.73 522.32 662.22 C 521.74 661.38 520.58 659.71 520.01 658.87 C 522.48 659.27 523.26 657.40 523.88 655.52 C 522.08 654.67 520.13 654.44 518.17 654.45 M 404.53 663.52 C 404.53 664.39 404.56 665.27 404.61 666.15 C 406.37 666.02 408.14 665.88 409.90 665.67 C 409.69 664.45 409.46 663.25 409.20 662.07 C 407.63 662.50 406.00 662.79 404.53 663.52 M 405.25 670.57 C 405.63 671.31 406.02 672.06 406.41 672.82 C 408.27 673.25 410.16 673.54 412.08 673.63 C 412.12 672.72 412.19 670.89 412.22 669.97 C 410.73 670.41 409.15 670.52 407.63 670.77 C 408.77 669.82 409.89 668.85 410.99 667.88 C 408.32 667.33 406.11 667.91 405.25 670.57 M 513.97 669.44 C 513.96 670.60 513.96 671.77 513.97 672.95 C 515.17 673.59 516.38 674.28 517.70 674.72 C 521.13 672.24 515.76 670.65 513.97 669.44 M 408.18 677.14 C 408.85 677.50 410.19 678.21 410.87 678.56 C 410.65 678.99 410.20 679.86 409.98 680.29 C 411.40 681.08 412.81 681.89 414.24 682.68 C 416.03 681.41 417.80 680.12 419.48 678.71 C 418.39 677.69 417.17 676.92 415.82 676.39 C 414.48 676.72 414.29 678.45 413.43 679.37 C 413.94 677.79 414.46 676.22 414.88 674.64 C 412.43 674.64 409.62 674.83 408.18 677.14 M 504.84 683.07 C 505.85 684.46 506.81 685.92 508.01 687.19 C 509.25 687.00 509.94 686.00 510.64 685.08 C 509.72 683.87 507.36 682.94 508.13 681.13 C 509.31 680.53 510.39 680.90 511.40 682.26 C 511.89 681.94 512.89 681.30 513.39 680.98 C 512.26 679.68 511.37 677.00 509.16 678.18 C 507.68 679.77 506.26 681.42 504.84 683.07 M 500.41 686.28 C 501.08 687.94 501.93 689.53 502.87 691.07 C 503.76 690.72 504.66 690.37 505.57 690.02 C 504.82 688.17 503.95 686.37 503.01 684.62 C 502.13 685.16 501.26 685.71 500.41 686.28 M 494.82 691.67 C 493.74 691.28 492.67 690.91 491.61 690.55 C 490.91 693.10 490.57 695.92 492.82 697.82 C 494.65 696.30 495.13 694.04 495.47 691.82 C 496.55 693.02 497.64 694.29 498.81 695.45 C 499.19 692.71 499.77 688.70 495.88 688.54 C 495.52 689.57 495.16 690.62 494.82 691.67 M 437.19 764.17 C 431.56 765.82 429.46 774.03 434.07 777.91 C 438.31 782.37 446.43 779.84 447.84 773.98 C 449.94 767.93 442.98 761.81 437.19 764.17 M 424.19 789.29 C 419.13 791.11 416.61 798.30 420.62 802.36 C 424.46 806.93 432.95 805.62 434.70 799.71 C 437.19 793.59 430.02 787.26 424.19 789.29 Z"/>
<path fill="rgba(0,0,0,0)" opacity="1.00" d=" M 501.18 636.81 C 505.53 636.78 509.88 636.89 514.22 637.15 C 513.24 643.51 511.87 649.81 510.73 656.15 C 509.63 661.49 508.59 666.97 505.90 671.79 C 503.03 677.34 497.80 681.15 492.56 684.28 C 496.23 673.94 500.68 663.79 502.86 652.99 C 504.09 647.55 502.76 642.02 501.18 636.81 Z"/>
<path fill="rgba(0,0,0,0)" opacity="1.00" d=" M 417.08 649.99 C 417.18 646.86 417.52 643.76 417.71 640.65 C 425.27 644.22 433.45 647.01 441.83 647.54 C 436.20 656.10 430.62 664.70 425.08 673.32 C 419.54 666.97 416.64 658.39 417.08 649.99 Z"/>
<path fill="rgba(0,0,0,0)" opacity="1.00" d=" M 770.12 744.64 C 785.46 738.06 802.47 736.78 818.98 736.64 C 827.96 736.66 837.16 737.25 845.61 740.56 C 848.00 741.48 847.61 744.62 848.54 746.62 C 850.86 752.57 851.89 758.89 853.44 765.06 C 858.21 787.39 863.40 809.63 869.30 831.69 C 875.43 855.35 880.94 879.21 888.43 902.50 C 856.38 902.87 824.32 902.80 792.28 902.89 C 788.54 879.26 784.97 855.61 781.77 831.90 C 777.88 802.82 773.51 773.79 770.12 744.64 Z"/>
<path fill="rgba(0,0,0,0)" opacity="1.00" d=" M 75.34 764.90 C 76.24 763.35 77.69 762.28 78.99 761.10 C 86.80 786.49 97.21 810.98 105.84 836.09 C 104.70 836.01 103.56 835.94 102.43 835.88 C 93.57 819.16 86.59 801.49 80.51 783.58 C 78.59 777.42 76.51 771.26 75.34 764.90 Z"/>
<path fill="rgba(0,0,0,0)" opacity="1.00" d=" M 145.09 764.07 C 145.41 762.01 147.90 762.84 149.31 762.51 C 146.80 767.36 145.74 772.75 144.12 777.92 C 138.72 796.11 133.55 814.40 129.91 833.04 C 129.82 834.13 129.27 834.96 128.26 835.52 C 131.06 816.01 136.63 797.03 141.34 777.92 C 142.55 773.30 143.63 768.62 145.09 764.07 Z"/>
<path fill="rgba(0,0,0,0)" opacity="1.00" d=" M 439.44 768.64 C 442.04 767.59 444.83 770.80 443.23 773.17 C 442.02 776.11 437.82 776.02 436.03 773.68 C 435.08 771.31 437.26 769.10 439.44 768.64 Z"/>
<path fill="rgba(0,0,0,0)" opacity="1.00" d=" M 422.68 798.17 C 423.40 796.49 424.02 794.14 426.10 793.77 C 428.68 792.55 431.85 795.81 430.38 798.27 C 429.33 800.26 426.88 800.08 424.97 800.32 C 424.40 799.78 423.25 798.71 422.68 798.17 Z"/>
<path fill="rgba(0,0,0,0)" opacity="1.00" d=" M 952.03 831.95 C 967.67 830.53 983.38 830.73 999.05 830.15 C 999.08 832.21 999.10 834.27 999.16 836.35 C 983.15 835.25 967.12 835.23 951.08 835.15 C 951.38 834.08 951.70 833.01 952.03 831.95 Z"/>
<path fill="rgba(0,0,0,0)" opacity="1.00" d=" M 967.63 839.20 C 978.35 839.54 989.12 839.43 999.79 840.60 C 1000.54 850.71 999.63 860.86 999.78 871.00 C 999.55 881.25 999.64 891.51 999.14 901.75 C 985.48 902.17 971.81 902.00 958.14 902.28 C 956.48 892.26 956.45 882.00 957.18 871.90 C 958.15 860.41 961.04 848.82 967.63 839.20 Z"/>
<path fill="rgba(0,0,0,0)" opacity="1.00" d=" M 132.72 840.47 C 143.72 840.45 154.90 839.44 165.79 841.39 C 165.83 849.09 165.17 856.78 165.09 864.49 C 139.35 865.07 113.58 865.00 87.83 864.68 C 88.17 856.91 88.32 849.13 88.02 841.36 C 94.44 841.02 100.90 841.51 107.30 840.70 C 107.89 841.00 108.48 841.31 109.08 841.63 C 113.15 839.70 117.86 841.01 122.20 840.39 C 124.05 839.63 124.19 842.07 125.04 843.09 C 126.71 841.79 128.65 840.08 130.01 842.80 C 130.92 842.02 131.82 841.24 132.72 840.47 Z"/>
<path fill="rgba(0,0,0,0)" opacity="1.00" d=" M 492.08 891.12 C 531.20 890.22 570.34 889.53 609.47 888.90 C 609.11 890.89 608.72 892.89 608.17 894.85 C 563.77 896.02 519.37 896.94 474.97 898.18 C 471.60 898.57 468.68 895.74 467.98 892.61 C 475.83 890.53 484.06 891.78 492.08 891.12 Z"/>
<path fill="rgba(0,0,0,0)" opacity="1.00" d=" M 772.25 902.94 C 777.45 898.82 781.76 893.74 786.81 889.46 C 787.37 893.95 788.18 898.41 788.95 902.87 C 783.38 902.85 777.81 902.85 772.25 902.94 Z"/>
<path fill="rgba(0,0,0,0)" opacity="1.00" d=" M 560.49 901.14 C 561.46 900.96 562.43 900.79 563.43 900.66 C 563.83 902.36 563.24 903.72 561.42 904.07 C 561.09 903.08 560.78 902.11 560.49 901.14 Z"/>
<path fill="rgba(0,0,0,0)" opacity="1.00" d=" M 574.27 900.24 C 575.04 900.52 575.81 900.80 576.59 901.10 C 576.48 901.67 576.27 902.80 576.16 903.36 C 575.73 903.37 574.86 903.37 574.42 903.37 C 574.36 902.32 574.31 901.27 574.27 900.24 Z"/>
<path fill="rgba(0,0,0,0)" opacity="1.00" d=" M 580.68 899.65 C 582.07 900.40 582.68 901.82 583.17 903.26 C 582.52 903.26 581.22 903.24 580.57 903.23 C 580.58 902.03 580.62 900.83 580.68 899.65 Z"/>
<path fill="rgba(0,0,0,0)" opacity="1.00" d=" M 593.23 900.15 C 594.75 899.23 595.97 901.96 594.88 903.00 C 593.32 903.95 592.11 901.16 593.23 900.15 Z"/>
<path fill="rgba(0,0,0,0)" opacity="1.00" d=" M 513.57 903.58 C 512.45 902.48 514.09 900.40 515.30 901.60 C 516.37 902.65 514.76 904.83 513.57 903.58 Z"/>
<path fill="rgba(0,0,0,0)" opacity="1.00" d=" M 525.55 901.15 C 526.92 899.94 528.12 902.52 526.90 903.39 C 525.50 904.48 524.30 902.01 525.55 901.15 Z"/>
<path fill="rgba(0,0,0,0)" opacity="1.00" d=" M 538.00 904.07 C 536.45 903.93 536.07 901.02 537.72 900.77 C 539.34 900.91 539.72 903.77 538.00 904.07 Z"/>
<path fill="rgba(0,0,0,0)" opacity="1.00" d=" M 543.92 901.26 C 545.24 901.08 546.58 900.96 547.92 900.92 C 548.16 902.47 547.27 903.58 545.93 904.23 C 544.55 903.83 544.37 902.37 543.92 901.26 Z"/>
<path fill="rgba(0,0,0,0)" opacity="1.00" d=" M 551.97 901.41 C 552.69 901.28 554.13 901.02 554.85 900.89 C 554.80 901.78 554.70 903.56 554.65 904.45 C 553.72 903.45 552.83 902.44 551.97 901.41 Z"/>
<path fill="rgba(0,0,0,0)" opacity="1.00" d=" M 507.04 901.86 C 508.69 901.28 509.24 901.80 508.69 903.40 C 507.02 903.95 506.47 903.44 507.04 901.86 Z"/>
</g>
<g id="Group-000000" fill="#1b245a">
<path fill="#1b245a" opacity="1.00" d=" M 345.25 206.14 C 355.21 203.12 365.17 207.58 374.55 210.57 C 378.79 208.43 383.55 207.85 388.23 207.50 C 394.67 207.87 400.14 211.62 406.18 213.42 C 415.14 215.23 424.91 213.36 433.32 217.68 C 441.95 221.78 447.70 230.05 451.05 238.75 C 454.43 248.69 460.96 257.46 462.28 268.08 C 496.15 269.60 529.57 283.05 554.73 305.85 C 572.11 303.51 589.54 310.44 603.28 320.72 C 634.36 343.93 649.16 386.27 640.63 423.92 C 637.77 435.60 632.52 448.20 621.25 454.00 C 625.40 472.68 627.23 491.96 625.64 511.07 C 624.34 528.18 619.75 545.11 611.68 560.28 C 605.63 573.50 599.08 587.17 598.82 601.99 C 598.55 613.96 605.92 625.18 603.07 637.22 C 601.68 644.03 596.88 649.62 590.71 652.64 C 595.78 659.69 599.36 667.69 602.13 675.90 C 608.18 694.35 611.49 713.60 613.15 732.92 C 615.27 754.71 615.66 776.63 614.74 798.50 C 613.97 820.01 612.43 841.50 609.78 862.86 C 608.71 869.98 608.52 877.27 606.58 884.25 C 607.40 884.22 609.06 884.17 609.89 884.14 C 621.32 829.30 634.14 774.75 646.06 720.01 C 654.89 679.03 664.47 638.21 672.82 597.14 C 673.72 591.95 676.93 587.15 681.36 584.33 C 688.09 581.10 695.80 582.80 702.98 582.21 C 724.30 581.14 745.65 581.05 766.98 581.46 C 813.34 582.25 859.70 583.08 906.07 582.88 C 936.04 582.77 966.02 583.33 995.98 582.37 C 1001.02 582.54 1006.20 583.91 1010.52 586.54 C 1014.59 589.35 1014.04 594.73 1013.65 599.04 C 1011.87 610.30 1008.25 621.16 1005.46 632.20 C 987.98 697.25 970.96 762.43 953.70 827.53 C 967.13 826.46 980.61 827.09 994.05 826.45 C 996.86 826.43 1000.00 825.66 1002.55 827.27 C 1003.54 831.30 1001.70 835.65 1003.55 839.51 C 1005.17 843.47 1004.22 847.85 1004.37 852.00 C 1003.92 868.58 1004.21 885.17 1003.34 901.73 C 1010.22 901.62 1017.11 901.67 1024.00 901.46 L 1024.00 904.87 C 1010.02 904.67 996.05 905.29 982.07 905.15 C 956.70 905.67 931.35 905.42 905.98 905.76 C 875.64 905.97 845.31 906.34 814.97 906.47 C 807.67 906.69 800.23 905.86 793.09 907.72 C 790.73 907.21 788.43 906.30 785.98 906.50 C 760.39 906.77 734.80 906.33 709.22 906.80 C 704.83 908.47 700.45 906.25 695.98 906.45 C 684.32 906.61 672.66 906.55 661.00 906.70 C 645.93 906.90 630.83 906.40 615.78 907.30 C 615.30 907.62 614.34 908.27 613.86 908.59 C 613.36 908.20 612.36 907.41 611.86 907.01 C 610.97 907.55 610.09 908.09 609.22 908.65 C 608.11 908.12 607.03 907.65 605.93 907.16 C 605.02 907.86 604.11 908.56 603.20 909.28 C 602.02 908.65 600.86 908.04 599.70 907.44 C 564.81 907.89 529.89 907.68 494.98 907.92 C 490.66 908.09 486.33 908.45 482.01 907.94 C 469.97 907.61 457.91 908.08 445.87 907.66 C 402.26 908.00 358.64 907.70 315.03 908.10 C 260.25 908.02 205.48 908.99 150.71 909.23 C 129.11 909.60 107.49 909.72 85.88 909.45 C 85.24 943.33 84.37 977.22 82.43 1011.05 C 82.58 1013.78 80.78 1015.83 78.91 1017.57 C 76.89 1015.53 76.47 1012.73 76.72 1009.99 C 76.59 987.01 76.65 964.01 77.14 941.03 C 77.14 919.37 77.10 897.70 77.38 876.04 C 77.48 872.52 76.64 868.89 77.69 865.46 C 78.26 863.40 80.65 862.97 82.13 861.78 C 82.80 856.90 82.39 851.92 82.74 847.01 C 83.08 843.86 81.61 840.69 82.51 837.61 C 87.46 835.42 93.13 836.38 98.40 836.07 C 88.20 817.78 80.56 798.11 74.82 777.99 C 73.68 773.06 71.89 768.15 71.88 763.04 C 74.20 760.13 77.18 757.81 80.15 755.60 C 81.37 757.17 82.56 758.80 83.16 760.73 C 91.68 785.85 101.62 810.47 110.10 835.60 C 114.73 835.62 119.35 835.49 123.98 835.43 C 127.03 811.22 134.03 787.77 140.29 764.26 C 141.00 761.84 142.22 758.90 145.05 758.48 C 148.53 758.23 152.18 758.46 155.49 759.65 C 158.56 761.47 157.17 765.57 156.63 768.38 C 150.86 791.17 144.28 813.79 135.72 835.71 C 145.18 835.16 154.66 835.61 164.10 836.22 C 166.62 836.30 169.40 837.50 170.32 840.04 C 170.92 848.06 169.76 856.08 169.85 864.11 C 171.16 864.76 172.48 865.43 173.79 866.12 C 174.57 878.57 173.47 891.07 173.45 903.54 C 174.35 903.32 176.14 902.88 177.04 902.66 C 180.80 880.15 187.34 857.76 198.94 837.96 C 208.47 821.79 221.20 807.34 236.78 796.78 C 245.53 790.62 255.49 786.51 265.44 782.77 C 270.01 760.20 275.27 737.76 281.51 715.59 C 286.52 697.89 291.38 680.01 299.38 663.38 C 287.74 657.75 279.57 645.08 280.12 632.01 C 280.45 615.05 287.85 599.40 292.20 583.27 C 299.73 557.21 298.81 529.83 300.08 503.00 C 301.37 476.41 301.46 449.75 303.90 423.23 C 305.31 408.65 307.42 394.05 312.16 380.14 C 307.49 376.16 304.48 370.77 301.62 365.45 C 298.21 359.07 292.18 354.52 289.18 347.89 C 286.70 342.92 285.98 337.32 285.85 331.84 C 286.05 328.90 283.39 327.12 281.80 325.04 C 278.28 321.23 276.78 316.09 276.04 311.07 C 275.39 304.81 279.50 299.24 279.14 293.00 C 278.87 288.71 277.94 284.36 278.94 280.08 C 279.96 274.29 284.03 269.84 286.79 264.85 C 289.79 259.50 290.13 253.21 292.50 247.61 C 294.64 242.17 298.09 237.36 302.12 233.16 C 306.20 228.15 311.62 224.37 317.41 221.58 C 320.96 220.06 324.69 218.98 328.13 217.19 C 334.39 214.35 338.40 207.92 345.25 206.14 M 386.86 270.58 C 371.84 277.19 360.68 291.93 358.62 308.24 C 375.98 289.21 399.36 275.71 424.81 271.24 C 413.22 265.00 398.73 265.17 386.86 270.58 M 414.16 431.23 C 410.68 434.95 407.72 439.52 403.02 441.82 C 400.94 443.04 398.56 441.18 398.02 439.15 C 398.31 435.88 399.84 432.91 400.91 429.86 C 404.49 420.69 406.92 411.14 409.42 401.64 C 402.75 410.18 395.77 418.48 389.17 427.08 C 379.91 437.67 372.21 449.53 362.92 460.10 C 362.37 477.42 361.37 494.73 360.83 512.05 C 360.63 515.89 360.70 519.81 359.64 523.54 C 359.27 524.99 357.90 526.00 356.39 525.81 C 354.23 516.60 348.39 507.33 339.19 503.92 C 330.75 501.01 321.34 505.43 316.26 512.34 C 306.00 525.52 308.71 546.15 321.00 557.12 C 327.04 562.69 336.06 564.65 343.83 561.86 C 348.67 560.83 352.38 557.50 356.33 554.77 C 356.17 561.47 355.24 568.16 355.44 574.89 C 355.83 576.29 356.78 577.44 357.69 578.56 C 362.71 584.36 368.70 589.24 374.87 593.77 C 372.14 581.22 371.99 568.15 374.75 555.59 C 375.91 551.53 374.91 546.42 378.46 543.42 C 381.04 540.89 385.18 541.52 388.02 543.25 C 387.34 539.47 387.44 535.11 390.10 532.07 C 393.17 528.32 400.38 528.47 402.56 533.10 C 405.56 539.19 406.78 545.97 409.78 552.08 C 414.84 563.17 420.02 574.25 426.14 584.80 C 437.98 588.72 449.35 593.92 460.34 599.79 C 473.20 607.08 486.02 615.49 495.07 627.40 C 519.08 624.71 542.59 616.95 563.18 604.24 C 576.71 595.89 588.95 585.30 598.54 572.57 C 611.51 555.35 619.33 534.47 621.60 513.07 C 623.68 493.36 622.69 473.22 617.90 453.96 C 609.91 453.67 602.74 449.44 596.88 444.30 C 586.96 444.55 576.94 444.29 567.30 441.65 C 561.94 446.98 554.32 449.04 547.10 450.35 C 539.87 451.65 532.65 449.94 525.42 449.81 C 521.57 447.41 516.89 447.05 512.76 445.28 C 493.40 437.88 475.37 426.88 460.18 412.76 C 452.89 406.58 447.06 398.86 442.27 390.64 C 440.23 387.02 438.00 383.29 437.84 379.02 C 434.55 398.04 426.98 416.61 414.16 431.23 M 570.95 438.05 C 577.41 439.31 584.01 439.90 590.59 439.73 C 585.47 436.86 580.39 433.91 575.64 430.45 C 574.36 433.15 572.81 435.71 570.95 438.05 M 392.44 536.41 C 390.34 539.86 391.76 543.96 391.89 547.72 C 393.88 566.41 399.41 584.86 409.20 600.98 C 410.26 602.94 411.90 604.73 412.02 607.06 C 410.87 607.56 409.32 607.89 408.64 606.51 C 397.36 591.65 391.62 573.37 388.77 555.12 C 388.24 552.71 388.38 550.03 387.04 547.90 C 385.04 544.88 379.35 546.13 379.66 550.11 C 380.22 562.92 384.15 575.37 388.97 587.19 C 392.94 597.23 399.18 606.11 405.25 614.95 C 404.69 615.22 403.57 615.75 403.01 616.01 C 401.78 614.88 400.54 613.77 399.42 612.54 C 387.79 598.89 381.59 581.69 377.32 564.51 C 376.69 571.49 376.79 578.56 377.61 585.52 C 379.24 598.63 383.71 612.22 394.01 621.10 C 408.20 633.03 425.51 640.54 443.16 645.76 C 444.55 644.14 446.04 642.56 447.98 641.62 C 446.99 646.13 444.43 650.04 442.12 653.97 C 432.67 669.59 422.79 684.96 412.48 700.03 C 415.41 703.28 418.99 705.82 422.43 708.49 C 436.42 719.25 451.32 728.96 467.32 736.46 C 477.16 712.91 486.70 689.21 495.04 665.08 C 497.42 657.16 501.60 648.71 498.41 640.39 C 494.95 631.95 488.43 625.21 481.66 619.30 C 465.55 605.82 446.27 596.92 426.96 589.07 C 425.12 588.37 423.53 587.14 422.63 585.38 C 418.82 579.03 415.38 572.45 412.23 565.74 C 408.85 558.75 406.26 551.36 402.14 544.75 C 401.33 543.59 400.17 541.58 398.50 542.58 C 396.21 543.18 396.51 546.13 396.83 547.95 C 400.41 563.55 406.31 578.54 413.39 592.87 C 413.94 594.56 416.03 597.34 413.10 597.86 C 411.35 596.19 409.94 594.21 408.80 592.10 C 401.94 579.62 396.89 566.20 393.47 552.39 C 392.86 549.34 391.48 546.13 392.75 543.06 C 393.49 539.63 397.02 538.16 399.94 537.03 C 399.04 535.59 398.08 534.19 397.06 532.85 C 395.39 533.82 393.38 534.59 392.44 536.41 M 688.98 587.29 C 682.92 587.01 678.92 592.81 676.96 597.84 C 677.61 599.95 677.22 602.08 676.58 604.13 C 663.57 664.84 650.05 725.44 636.60 786.06 C 629.27 818.72 621.77 851.34 614.99 884.12 C 614.39 887.81 613.88 891.54 612.55 895.06 C 615.45 897.55 617.78 900.75 621.07 902.77 C 646.38 903.13 671.72 902.57 697.04 902.77 C 700.57 893.59 704.88 884.75 708.77 875.73 C 727.79 832.03 746.26 788.08 765.33 744.40 C 766.67 741.44 767.46 738.14 769.64 735.65 C 772.62 732.26 774.84 728.25 778.05 725.06 C 784.96 718.11 794.06 713.16 803.85 711.98 C 818.97 709.64 835.00 716.80 843.57 729.42 C 844.77 731.20 845.79 733.20 847.63 734.45 C 850.22 736.17 851.07 739.30 852.05 742.07 C 855.52 751.61 857.43 761.61 859.68 771.48 C 869.26 815.45 881.26 858.84 892.10 902.51 C 904.41 902.43 916.72 902.42 929.04 902.36 C 935.19 881.20 940.91 859.92 946.97 838.74 C 946.51 837.83 946.07 836.94 945.64 836.05 C 946.14 835.72 947.14 835.06 947.63 834.73 C 953.20 815.95 957.72 796.88 962.94 778.01 C 975.57 729.97 988.08 681.91 1001.06 633.97 C 1003.23 624.94 1006.27 616.11 1007.80 606.95 C 1010.68 601.87 1010.45 595.74 1010.15 590.10 C 1006.97 587.68 1002.99 586.33 999.01 586.27 C 981.34 586.91 963.66 587.22 945.97 587.10 C 877.98 587.43 810.01 586.57 742.03 585.87 C 724.34 585.91 706.67 587.03 688.98 587.29 M 510.97 668.98 C 508.30 678.62 499.74 685.40 490.73 688.87 C 484.49 705.08 477.96 721.21 471.35 737.28 C 473.65 738.96 475.13 741.71 473.73 744.51 C 463.56 770.84 452.01 796.67 438.73 821.59 C 430.14 837.08 420.92 852.62 407.88 864.83 C 401.04 871.22 392.47 876.27 383.00 877.15 C 371.66 878.49 360.06 873.92 352.18 865.77 C 340.52 854.15 333.25 839.02 326.80 824.09 C 317.93 802.87 311.90 780.52 307.72 757.93 C 307.24 754.41 306.04 750.77 307.10 747.25 C 310.60 755.98 311.84 765.40 314.39 774.42 C 320.26 797.39 327.48 820.24 338.82 841.16 C 344.24 850.92 350.53 860.70 359.84 867.20 C 369.45 874.21 383.05 875.14 393.56 869.56 C 402.85 864.64 410.05 856.69 416.43 848.50 C 427.81 833.46 436.42 816.60 444.70 799.73 C 453.62 780.87 462.33 761.87 469.65 742.33 C 446.64 732.32 425.89 717.76 406.87 701.52 C 398.59 714.15 390.91 727.16 382.95 740.00 C 371.73 758.53 360.90 777.38 352.14 797.22 C 351.72 797.66 350.89 798.53 350.47 798.97 C 350.23 792.67 352.76 786.74 355.21 781.08 C 362.39 765.44 371.26 750.67 380.01 735.89 C 375.37 719.30 370.78 702.70 366.84 685.93 C 366.33 683.18 365.05 680.24 366.53 677.59 C 369.02 682.40 370.27 687.71 371.76 692.89 C 375.21 705.87 379.34 718.67 382.51 731.72 C 389.37 721.10 395.62 710.09 402.41 699.44 C 403.91 696.70 407.00 695.95 409.80 697.19 C 412.01 693.53 413.17 689.26 416.10 686.05 C 418.68 683.29 420.49 679.94 422.77 676.95 C 418.33 670.66 414.27 663.69 413.65 655.86 C 412.71 650.87 413.94 645.88 414.18 640.90 C 414.58 639.21 412.71 638.56 411.77 637.60 C 411.82 639.71 412.08 641.98 410.67 643.77 C 409.83 643.37 408.16 642.59 407.33 642.20 C 407.31 640.70 407.32 639.22 407.32 637.74 C 383.52 636.29 359.29 635.70 335.88 640.96 C 327.08 643.10 317.73 645.61 311.22 652.32 C 303.87 660.38 300.19 670.91 296.26 680.90 C 285.94 709.55 278.56 739.17 271.84 768.84 C 262.27 813.08 254.73 857.76 249.08 902.66 C 284.38 901.97 319.70 902.63 355.01 902.62 C 395.85 902.92 436.69 902.47 477.53 903.07 C 476.67 901.25 474.66 901.43 473.02 901.12 C 470.23 900.76 467.67 899.23 465.76 897.21 C 463.48 894.72 463.29 890.27 466.08 888.10 C 468.54 886.04 471.96 886.74 474.91 886.64 C 494.87 886.21 514.83 886.00 534.79 885.48 C 540.25 845.11 545.15 804.66 549.32 764.14 C 551.51 744.55 552.98 724.87 555.39 705.32 C 557.18 702.61 559.05 706.18 558.56 708.10 C 557.67 727.41 555.48 746.63 553.59 765.87 C 549.39 805.79 544.85 845.68 539.18 885.42 C 560.13 885.32 581.07 884.74 602.01 884.34 C 603.86 868.24 605.87 852.15 607.71 836.05 C 609.79 813.76 610.70 791.38 610.35 769.00 C 610.78 747.78 609.90 726.46 606.34 705.51 C 603.10 687.99 598.80 670.05 588.83 655.02 C 585.30 649.28 578.63 646.90 572.64 644.66 C 557.67 639.50 541.79 637.75 526.06 636.85 C 523.22 636.77 520.38 636.59 517.61 635.96 C 515.99 647.06 514.33 658.25 510.97 668.98 M 501.18 636.81 C 502.76 642.02 504.09 647.55 502.86 652.99 C 500.68 663.79 496.23 673.94 492.56 684.28 C 497.80 681.15 503.03 677.34 505.90 671.79 C 508.59 666.97 509.63 661.49 510.73 656.15 C 511.87 649.81 513.24 643.51 514.22 637.15 C 509.88 636.89 505.53 636.78 501.18 636.81 M 417.08 649.99 C 416.64 658.39 419.54 666.97 425.08 673.32 C 430.62 664.70 436.20 656.10 441.83 647.54 C 433.45 647.01 425.27 644.22 417.71 640.65 C 417.52 643.76 417.18 646.86 417.08 649.99 M 770.12 744.64 C 773.51 773.79 777.88 802.82 781.77 831.90 C 784.97 855.61 788.54 879.26 792.28 902.89 C 824.32 902.80 856.38 902.87 888.43 902.50 C 880.94 879.21 875.43 855.35 869.30 831.69 C 863.40 809.63 858.21 787.39 853.44 765.06 C 851.89 758.89 850.86 752.57 848.54 746.62 C 847.61 744.62 848.00 741.48 845.61 740.56 C 837.16 737.25 827.96 736.66 818.98 736.64 C 802.47 736.78 785.46 738.06 770.12 744.64 M 75.34 764.90 C 76.51 771.26 78.59 777.42 80.51 783.58 C 86.59 801.49 93.57 819.16 102.43 835.88 C 103.56 835.94 104.70 836.01 105.84 836.09 C 97.21 810.98 86.80 786.49 78.99 761.10 C 77.69 762.28 76.24 763.35 75.34 764.90 M 145.09 764.07 C 143.63 768.62 142.55 773.30 141.34 777.92 C 136.63 797.03 131.06 816.01 128.26 835.52 C 129.27 834.96 129.82 834.13 129.91 833.04 C 133.55 814.40 138.72 796.11 144.12 777.92 C 145.74 772.75 146.80 767.36 149.31 762.51 C 147.90 762.84 145.41 762.01 145.09 764.07 M 952.03 831.95 C 951.70 833.01 951.38 834.08 951.08 835.15 C 967.12 835.23 983.15 835.25 999.16 836.35 C 999.10 834.27 999.08 832.21 999.05 830.15 C 983.38 830.73 967.67 830.53 952.03 831.95 M 967.63 839.20 C 961.04 848.82 958.15 860.41 957.18 871.90 C 956.45 882.00 956.48 892.26 958.14 902.28 C 971.81 902.00 985.48 902.17 999.14 901.75 C 999.64 891.51 999.55 881.25 999.78 871.00 C 999.63 860.86 1000.54 850.71 999.79 840.60 C 989.12 839.43 978.35 839.54 967.63 839.20 M 132.72 840.47 C 131.82 841.24 130.92 842.02 130.01 842.80 C 128.65 840.08 126.71 841.79 125.04 843.09 C 124.19 842.07 124.05 839.63 122.20 840.39 C 117.86 841.01 113.15 839.70 109.08 841.63 C 108.48 841.31 107.89 841.00 107.30 840.70 C 100.90 841.51 94.44 841.02 88.02 841.36 C 88.32 849.13 88.17 856.91 87.83 864.68 C 113.58 865.00 139.35 865.07 165.09 864.49 C 165.17 856.78 165.83 849.09 165.79 841.39 C 154.90 839.44 143.72 840.45 132.72 840.47 M 492.08 891.12 C 484.06 891.78 475.83 890.53 467.98 892.61 C 468.68 895.74 471.60 898.57 474.97 898.18 C 519.37 896.94 563.77 896.02 608.17 894.85 C 608.72 892.89 609.11 890.89 609.47 888.90 C 570.34 889.53 531.20 890.22 492.08 891.12 M 772.25 902.94 C 777.81 902.85 783.38 902.85 788.95 902.87 C 788.18 898.41 787.37 893.95 786.81 889.46 C 781.76 893.74 777.45 898.82 772.25 902.94 M 560.49 901.14 C 560.78 902.11 561.09 903.08 561.42 904.07 C 563.24 903.72 563.83 902.36 563.43 900.66 C 562.43 900.79 561.46 900.96 560.49 901.14 M 574.27 900.24 C 574.31 901.27 574.36 902.32 574.42 903.37 C 574.86 903.37 575.73 903.37 576.16 903.36 C 576.27 902.80 576.48 901.67 576.59 901.10 C 575.81 900.80 575.04 900.52 574.27 900.24 M 580.68 899.65 C 580.62 900.83 580.58 902.03 580.57 903.23 C 581.22 903.24 582.52 903.26 583.17 903.26 C 582.68 901.82 582.07 900.40 580.68 899.65 M 593.23 900.15 C 592.11 901.16 593.32 903.95 594.88 903.00 C 595.97 901.96 594.75 899.23 593.23 900.15 M 513.57 903.58 C 514.76 904.83 516.37 902.65 515.30 901.60 C 514.09 900.40 512.45 902.48 513.57 903.58 M 525.55 901.15 C 524.30 902.01 525.50 904.48 526.90 903.39 C 528.12 902.52 526.92 899.94 525.55 901.15 M 538.00 904.07 C 539.72 903.77 539.34 900.91 537.72 900.77 C 536.07 901.02 536.45 903.93 538.00 904.07 M 543.92 901.26 C 544.37 902.37 544.55 903.83 545.93 904.23 C 547.27 903.58 548.16 902.47 547.92 900.92 C 546.58 900.96 545.24 901.08 543.92 901.26 M 551.97 901.41 C 552.83 902.44 553.72 903.45 554.65 904.45 C 554.70 903.56 554.80 901.78 554.85 900.89 C 554.13 901.02 552.69 901.28 551.97 901.41 M 507.04 901.86 C 506.47 903.44 507.02 903.95 508.69 903.40 C 509.24 901.80 508.69 901.28 507.04 901.86 Z"/>
<path fill="#1b245a" opacity="1.00" d=" M 614.92 259.72 C 615.44 256.88 619.21 258.57 619.19 260.88 C 620.19 268.88 620.30 277.12 618.92 285.09 C 618.12 288.50 617.27 293.01 613.34 294.03 C 613.21 289.33 614.33 284.73 614.45 280.05 C 614.99 273.28 614.45 266.48 614.92 259.72 Z"/>
<path fill="#1b245a" opacity="1.00" d=" M 716.15 259.04 C 718.34 257.88 719.88 261.58 717.77 262.64 C 707.86 269.21 698.18 276.41 690.62 285.68 C 688.72 287.98 687.29 290.64 685.22 292.80 C 682.63 291.58 684.75 288.39 685.61 286.62 C 692.73 274.70 703.90 265.37 716.15 259.04 Z"/>
<path fill="#1b245a" opacity="1.00" d=" M 640.16 302.14 C 643.09 296.81 643.81 290.31 647.86 285.64 C 649.10 286.86 650.95 288.02 650.13 290.06 C 648.64 295.82 646.44 301.60 642.68 306.30 C 640.57 305.87 638.76 304.41 640.16 302.14 Z"/>
<path fill="#1b245a" opacity="1.00" d=" M 666.28 329.20 C 669.74 324.64 673.66 320.31 678.18 316.79 C 680.00 315.24 681.05 318.22 681.25 319.63 C 677.73 323.38 674.38 327.49 669.97 330.21 C 668.65 331.20 667.40 329.71 666.28 329.20 Z"/>
<path fill="#1b245a" opacity="1.00" d=" M 678.33 350.40 C 683.39 346.39 688.81 342.37 695.17 340.75 C 695.50 342.15 697.37 344.23 695.28 345.14 C 689.76 348.42 684.35 351.90 678.75 355.05 C 677.80 353.58 676.30 351.72 678.33 350.40 Z"/>
<path fill="#1b245a" opacity="1.00" d=" M 733.91 377.18 C 742.86 374.74 752.34 374.58 761.50 375.74 C 763.82 375.69 767.00 378.46 763.97 380.11 C 754.95 379.38 745.80 378.85 736.82 380.37 C 732.62 380.94 728.59 382.44 724.34 382.63 C 726.33 379.23 730.44 378.32 733.91 377.18 Z"/>
<path fill="#1b245a" opacity="1.00" d=" M 695.26 383.02 C 699.24 382.51 703.56 382.25 707.31 384.01 C 704.15 385.83 700.43 385.97 696.90 385.86 C 695.46 386.17 693.84 384.06 695.26 383.02 Z"/>
<path fill="#1b245a" opacity="1.00" d=" M 697.09 405.19 C 701.44 405.09 706.01 405.04 710.15 406.56 C 712.58 407.29 713.00 411.16 710.08 411.35 C 704.05 410.88 698.01 409.88 691.96 410.72 C 689.69 411.21 687.54 409.10 688.72 406.86 C 691.36 405.74 694.27 405.53 697.09 405.19 Z"/>
<path fill="#1b245a" opacity="1.00" d=" M 464.40 427.21 C 465.25 425.69 468.83 427.38 467.46 428.97 C 466.02 432.15 463.28 434.47 460.51 436.47 C 451.39 442.71 439.75 444.58 428.94 442.84 C 422.91 441.81 416.78 441.21 410.90 439.46 C 411.29 438.40 411.15 436.07 412.97 436.67 C 423.04 437.26 433.06 440.58 443.19 438.83 C 451.27 437.39 458.91 433.35 464.40 427.21 Z"/>
<path fill="#1b245a" opacity="1.00" d=" M 682.72 437.16 C 684.42 437.84 685.86 438.94 686.90 440.46 C 686.40 440.76 685.38 441.36 684.88 441.66 C 683.59 440.80 682.35 439.90 681.16 438.96 C 681.55 438.51 682.33 437.61 682.72 437.16 Z"/>
<path fill="#1b245a" opacity="1.00" d=" M 672.38 457.85 C 673.34 457.18 674.46 454.90 675.85 456.17 C 679.27 458.59 682.91 461.21 684.91 465.00 C 684.45 465.62 683.54 466.84 683.08 467.46 C 678.79 465.28 675.24 461.68 672.38 457.85 Z"/>
<path fill="#1b245a" opacity="1.00" d=" M 698.60 456.75 C 700.38 456.99 702.33 456.93 703.96 457.86 C 710.50 461.42 715.71 466.90 720.65 472.38 C 722.49 474.70 724.72 476.98 725.30 480.00 C 724.75 480.43 723.65 481.29 723.10 481.71 C 717.66 476.83 713.78 470.50 708.28 465.68 C 705.20 462.53 701.13 460.42 698.60 456.75 Z"/>
<path fill="#1b245a" opacity="1.00" d=" M 564.77 459.75 C 571.86 456.72 580.16 457.72 586.95 461.06 C 595.16 465.22 602.06 472.33 605.27 481.02 C 605.90 482.37 606.19 485.12 603.92 485.07 C 601.27 482.89 600.32 479.41 598.38 476.69 C 592.55 467.68 581.91 461.01 570.93 462.22 C 566.92 462.56 563.44 464.76 559.60 465.76 C 559.30 462.51 562.25 460.86 564.77 459.75 Z"/>
<path fill="#1b245a" opacity="1.00" d=" M 432.18 459.20 C 435.89 458.70 440.06 457.38 443.59 459.24 C 445.63 461.16 443.05 463.05 441.07 463.00 C 429.42 464.45 417.29 469.56 410.73 479.74 C 409.49 481.32 408.55 483.60 406.34 483.95 C 404.47 481.89 405.67 479.05 406.74 476.92 C 411.84 467.40 422.00 461.73 432.18 459.20 Z"/>
<path fill="#1b245a" opacity="1.00" d=" M 456.42 500.52 C 461.77 498.45 466.98 503.82 466.41 509.11 C 466.91 515.41 460.20 520.96 454.18 518.32 C 447.24 514.62 449.33 502.91 456.42 500.52 Z"/>
<path fill="#1b245a" opacity="1.00" d=" M 569.21 500.17 C 572.53 498.70 576.79 500.22 578.46 503.45 C 580.89 508.23 579.42 515.23 574.17 517.46 C 571.18 518.34 567.30 518.40 565.17 515.73 C 561.47 510.86 563.34 502.45 569.21 500.17 Z"/>
<path fill="#1b245a" opacity="1.00" d=" M 524.15 509.88 C 524.02 508.35 524.29 506.89 524.96 505.49 C 528.17 509.95 527.97 515.74 528.72 520.97 C 528.84 525.67 530.11 530.69 528.23 535.19 C 526.24 538.73 521.58 537.92 518.27 537.20 C 518.30 536.56 518.35 535.28 518.37 534.65 C 520.52 534.33 522.69 534.04 524.84 533.67 C 525.99 525.77 524.68 517.78 524.15 509.88 Z"/>
<path fill="#1b245a" opacity="1.00" d=" M 324.28 530.56 C 325.51 526.07 329.58 523.01 334.00 522.03 C 335.81 521.00 336.87 523.14 337.90 524.16 C 336.00 526.01 333.48 526.96 331.41 528.57 C 329.85 530.16 328.97 532.28 327.64 534.05 C 327.58 539.75 332.89 542.68 335.56 547.00 C 334.85 548.86 332.81 548.62 331.44 547.73 C 325.58 544.55 321.52 537.08 324.28 530.56 Z"/>
<path fill="#1b245a" opacity="1.00" d=" M 514.59 559.76 C 521.91 557.94 530.28 559.96 535.42 565.60 C 537.87 568.28 538.63 572.98 535.32 575.34 C 530.85 578.18 525.73 574.44 520.92 574.75 C 514.99 574.16 509.74 577.12 504.51 579.36 C 501.53 580.83 497.40 578.46 497.49 575.06 C 497.46 572.03 499.36 569.46 501.31 567.34 C 504.89 563.62 509.58 560.97 514.59 559.76 Z"/>
<path fill="#1b245a" opacity="1.00" d=" M 966.90 604.68 C 969.86 602.61 973.58 602.80 977.02 602.74 C 981.16 602.79 985.44 602.24 989.42 603.73 C 989.42 604.63 989.43 606.41 989.43 607.31 C 982.24 607.73 974.95 607.69 967.80 607.03 C 967.57 606.45 967.12 605.27 966.90 604.68 Z"/>
<path fill="#1b245a" opacity="1.00" d=" M 850.01 638.80 C 851.17 637.66 853.30 637.34 854.13 639.04 C 855.87 641.67 852.42 643.27 850.89 644.87 C 846.18 648.69 841.62 653.84 835.29 654.57 C 838.97 648.32 844.48 643.39 850.01 638.80 Z"/>
<path fill="#1b245a" opacity="1.00" d=" M 521.30 641.71 C 524.07 641.61 524.67 643.99 524.16 646.26 C 522.79 645.81 521.45 645.36 520.11 644.86 C 520.49 643.80 520.88 642.75 521.30 641.71 Z"/>
<path fill="#1b245a" opacity="1.00" d=" M 410.26 650.39 C 406.83 649.05 403.00 645.49 405.58 641.64 C 407.36 643.14 409.22 644.57 411.07 646.00 C 411.05 647.49 410.63 648.94 410.26 650.39 Z"/>
<path fill="#1b245a" opacity="1.00" d=" M 519.19 647.78 C 521.53 648.30 524.37 648.64 525.70 650.96 C 524.95 654.80 520.91 651.68 518.54 651.41 C 518.70 650.50 519.02 648.69 519.19 647.78 Z"/>
<path fill="#1b245a" opacity="1.00" d=" M 402.74 650.42 C 403.68 650.62 404.62 650.84 405.57 651.07 C 406.76 652.16 408.45 652.80 409.25 654.27 C 408.96 655.29 408.61 656.30 408.21 657.30 C 405.82 656.67 406.34 654.42 405.97 652.71 C 405.70 654.20 405.46 655.69 405.25 657.21 C 406.42 657.33 407.61 657.41 408.79 657.41 C 408.94 657.88 409.24 658.81 409.40 659.28 C 407.85 660.01 406.11 660.53 405.01 661.95 C 405.22 661.63 405.63 661.00 405.84 660.68 C 404.29 659.96 402.96 658.94 401.74 657.77 C 405.00 656.14 403.26 653.08 402.74 650.42 Z"/>
<path fill="#1b245a" opacity="1.00" d=" M 518.17 654.45 C 520.13 654.44 522.08 654.67 523.88 655.52 C 523.26 657.40 522.48 659.27 520.01 658.87 C 520.58 659.71 521.74 661.38 522.32 662.22 C 520.76 663.73 518.62 664.28 516.59 664.84 C 517.80 665.34 520.21 666.35 521.42 666.85 C 520.77 667.83 520.10 668.81 519.43 669.79 C 517.86 668.95 516.28 668.13 514.68 667.37 C 515.48 666.06 516.28 664.75 517.07 663.44 C 516.38 660.78 517.64 659.71 520.36 660.24 C 518.18 658.89 516.67 657.00 518.17 654.45 Z"/>
<path fill="#1b245a" opacity="1.00" d=" M 404.53 663.52 C 406.00 662.79 407.63 662.50 409.20 662.07 C 409.46 663.25 409.69 664.45 409.90 665.67 C 408.14 665.88 406.37 666.02 404.61 666.15 C 404.56 665.27 404.53 664.39 404.53 663.52 Z"/>
<path fill="#1b245a" opacity="1.00" d=" M 405.25 670.57 C 406.11 667.91 408.32 667.33 410.99 667.88 C 409.89 668.85 408.77 669.82 407.63 670.77 C 409.15 670.52 410.73 670.41 412.22 669.97 C 412.19 670.89 412.12 672.72 412.08 673.63 C 410.16 673.54 408.27 673.25 406.41 672.82 C 406.02 672.06 405.63 671.31 405.25 670.57 Z"/>
<path fill="#1b245a" opacity="1.00" d=" M 513.97 669.44 C 515.76 670.65 521.13 672.24 517.70 674.72 C 516.38 674.28 515.17 673.59 513.97 672.95 C 513.96 671.77 513.96 670.60 513.97 669.44 Z"/>
<path fill="#1b245a" opacity="1.00" d=" M 408.18 677.14 C 409.62 674.83 412.43 674.64 414.88 674.64 C 414.46 676.22 413.94 677.79 413.43 679.37 C 414.29 678.45 414.48 676.72 415.82 676.39 C 417.17 676.92 418.39 677.69 419.48 678.71 C 417.80 680.12 416.03 681.41 414.24 682.68 C 412.81 681.89 411.40 681.08 409.98 680.29 C 410.20 679.86 410.65 678.99 410.87 678.56 C 410.19 678.21 408.85 677.50 408.18 677.14 Z"/>
<path fill="#1b245a" opacity="1.00" d=" M 504.84 683.07 C 506.26 681.42 507.68 679.77 509.16 678.18 C 511.37 677.00 512.26 679.68 513.39 680.98 C 512.89 681.30 511.89 681.94 511.40 682.26 C 510.39 680.90 509.31 680.53 508.13 681.13 C 507.36 682.94 509.72 683.87 510.64 685.08 C 509.94 686.00 509.25 687.00 508.01 687.19 C 506.81 685.92 505.85 684.46 504.84 683.07 Z"/>
<path fill="#1b245a" opacity="1.00" d=" M 500.41 686.28 C 501.26 685.71 502.13 685.16 503.01 684.62 C 503.95 686.37 504.82 688.17 505.57 690.02 C 504.66 690.37 503.76 690.72 502.87 691.07 C 501.93 689.53 501.08 687.94 500.41 686.28 Z"/>
<path fill="#1b245a" opacity="1.00" d=" M 494.82 691.67 C 495.16 690.62 495.52 689.57 495.88 688.54 C 499.77 688.70 499.19 692.71 498.81 695.45 C 497.64 694.29 496.55 693.02 495.47 691.82 C 495.13 694.04 494.65 696.30 492.82 697.82 C 490.57 695.92 490.91 693.10 491.61 690.55 C 492.67 690.91 493.74 691.28 494.82 691.67 Z"/>
<path fill="#1b245a" opacity="1.00" d=" M 437.19 764.17 C 442.98 761.81 449.94 767.93 447.84 773.98 C 446.43 779.84 438.31 782.37 434.07 777.91 C 429.46 774.03 431.56 765.82 437.19 764.17 M 439.44 768.64 C 437.26 769.10 435.08 771.31 436.03 773.68 C 437.82 776.02 442.02 776.11 443.23 773.17 C 444.83 770.80 442.04 767.59 439.44 768.64 Z"/>
<path fill="#1b245a" opacity="1.00" d=" M 424.19 789.29 C 430.02 787.26 437.19 793.59 434.70 799.71 C 432.95 805.62 424.46 806.93 420.62 802.36 C 416.61 798.30 419.13 791.11 424.19 789.29 M 422.68 798.17 C 423.25 798.71 424.40 799.78 424.97 800.32 C 426.88 800.08 429.33 800.26 430.38 798.27 C 431.85 795.81 428.68 792.55 426.10 793.77 C 424.02 794.14 423.40 796.49 422.68 798.17 Z"/>
<path fill="#1b245a" opacity="1.00" d=" M 284.93 912.61 L 287.45 912.91 C 286.71 913.65 285.81 914.97 287.60 914.96 C 288.56 925.61 288.11 936.32 288.19 946.99 C 287.97 951.26 288.45 956.14 285.47 959.64 C 284.65 951.45 285.39 943.20 284.97 935.00 C 285.23 927.53 284.71 920.07 284.93 912.61 Z"/>
<path fill="#1b245a" opacity="1.00" d=" M 284.41 970.94 C 284.22 969.22 284.97 968.67 286.66 969.29 C 287.49 972.48 287.21 975.82 287.40 979.09 C 287.56 987.74 287.78 996.39 287.64 1005.04 C 287.54 1008.44 287.45 1012.24 284.91 1014.86 C 284.40 1000.22 284.95 985.57 284.41 970.94 Z"/>
</g>
</g></svg>