<svg xmlns="http://www.w3.org/2000/svg" xmlns:xlink="http://www.w3.org/1999/xlink" version="1.1" viewBox="-2 -2 1028 1028" width="200px" height="200px">
<g id="Parent-Group"><g fill="rgba(0,0,0,0)" id="Group-rgba(0,0,0,0)">
<path d="   M 1024.00 0.00   L 1024.00 864.41   L 1009.91 864.35   A 0.66 0.65 1.2 0 1 1009.25 863.67   C 1010.49 831.97 1011.62 800.80 1010.68 769.52   C 1010.42 760.80 1009.57 752.16 999.42 749.57   Q 995.97 748.69 992.55 747.85   A 0.15 0.15 0.0 0 1 992.60 747.56   Q 995.74 747.78 999.24 747.60   Q 1001.57 747.48 1001.88 745.35   C 1005.10 723.81 1003.54 700.17 995.32 680.42   C 992.33 673.24 986.97 663.75 980.25 660.09   Q 979.75 659.82 979.76 659.24   Q 979.86 655.59 979.92 651.78   C 980.28 631.86 974.44 599.44 953.57 590.36   Q 953.38 590.28 953.47 590.09   L 953.48 590.08   Q 953.55 589.94 953.68 590.02   C 957.90 592.34 961.79 594.61 966.76 594.76   C 981.41 595.21 991.59 586.84 993.45 572.49   C 995.51 556.53 983.49 542.44 967.29 542.27   C 955.36 542.14 945.03 549.30 942.89 561.25   C 942.18 565.24 942.93 569.15 943.43 573.09   A 0.66 0.66 0.0 0 1 942.65 573.82   Q 939.87 573.31 939.08 575.82   A 0.87 0.87 0.0 0 0 940.16 576.92   Q 942.89 576.11 945.13 577.33   Q 945.63 577.60 945.92 577.11   L 946.74 575.70   A 0.98 0.98 0.0 0 1 948.40 575.65   L 950.20 578.34   A 1.50 1.42 81.8 0 0 950.91 578.90   Q 951.77 579.21 952.43 579.92   A 1.13 1.13 0.0 0 1 952.24 581.62   L 950.71 582.68   Q 950.06 583.13 950.67 583.63   Q 951.61 584.41 952.21 585.55   A 0.50 0.49 -13.3 0 1 951.76 586.27   L 950.20 586.25   A 0.55 0.54 -85.2 0 0 949.65 586.72   Q 949.49 587.78 949.53 588.86   Q 949.55 589.33 949.25 589.67   Q 948.83 590.14 948.19 589.91   A 0.92 0.91 -86.5 0 1 947.61 589.25   Q 946.33 583.97 942.35 580.29   C 940.97 579.01 939.28 578.58 937.55 578.03   A 1.96 1.96 0.0 0 1 936.23 576.66   Q 934.31 569.45 927.71 565.56   C 913.96 557.48 893.11 556.83 878.93 563.08   Q 872.85 565.76 871.01 570.93   Q 870.79 571.57 870.36 571.04   C 862.83 561.86 846.43 563.41 836.12 568.03   C 827.66 571.82 819.87 579.88 818.39 589.19   Q 816.21 602.94 826.50 610.26   Q 827.11 610.69 826.76 611.34   Q 825.73 613.30 826.13 615.33   C 826.87 619.07 824.93 623.74 824.21 627.46   Q 823.04 633.55 822.10 639.69   Q 822.02 640.24 821.47 640.29   Q 811.45 641.14 808.05 649.10   C 804.09 658.35 809.12 668.88 819.23 670.40   Q 819.78 670.48 819.82 671.03   C 821.78 695.47 831.26 714.35 855.61 723.24   Q 856.45 723.54 856.51 724.44   L 858.04 746.94   Q 858.16 748.67 859.88 748.46   Q 863.96 747.95 867.77 747.79   Q 869.66 747.70 867.86 748.29   C 864.48 749.38 861.10 750.71 858.19 752.76   C 845.98 761.40 838.25 774.88 833.35 789.14   Q 828.63 802.89 822.79 816.47   Q 813.21 838.74 804.16 860.15   Q 803.29 862.21 802.28 864.15   A 0.82 0.81 14.0 0 1 801.56 864.58   L 763.11 864.64   A 0.62 0.62 0.0 0 1 762.52 864.21   Q 762.35 863.64 762.85 863.44   C 786.16 854.05 798.50 834.52 795.82 809.23   Q 793.50 787.32 787.57 764.31   Q 777.78 726.35 763.59 688.08   Q 747.66 645.09 729.94 611.20   Q 722.16 596.33 714.19 583.90   Q 712.22 580.82 709.27 577.98   C 697.03 566.22 683.32 556.33 668.63 547.67   Q 631.67 525.88 592.06 518.53   C 588.22 517.81 584.24 517.32 580.39 517.13   Q 579.15 517.06 579.12 518.31   L 579.11 518.66   Q 579.08 520.30 580.71 520.50   L 589.85 521.59   A 0.56 0.55 16.7 0 1 590.28 522.38   Q 580.79 541.88 561.34 549.25   C 534.36 559.47 506.09 548.49 492.60 523.23   Q 492.03 522.17 493.24 522.07   L 509.34 520.80   A 1.72 1.71 -1.0 0 0 510.92 519.17   L 511.53 505.44   Q 511.57 504.69 512.18 505.13   Q 520.81 511.33 531.57 512.78   C 545.08 514.60 562.16 512.10 571.78 502.10   A 0.36 0.36 0.0 0 1 572.40 502.34   L 572.90 522.69   Q 572.93 523.99 574.22 524.17   L 574.76 524.25   Q 576.51 524.51 576.47 522.74   L 575.76 489.39   A 0.67 0.64 -14.5 0 1 576.13 488.79   Q 587.91 483.05 596.24 473.37   C 602.88 465.66 605.68 457.17 607.03 447.07   Q 608.85 433.33 609.75 420.87   A 0.25 0.25 0.0 0 1 610.12 420.67   Q 619.92 426.04 629.75 422.01   C 647.31 414.81 649.76 389.09 631.09 381.28   Q 630.48 381.03 630.59 380.38   Q 634.28 358.43 632.49 337.24   Q 632.44 336.60 632.90 336.16   C 643.12 326.49 644.71 307.13 643.65 293.06   C 643.16 286.63 639.82 279.67 631.93 281.66   Q 631.13 281.87 631.63 281.21   C 641.51 268.30 634.96 251.19 623.44 241.66   C 615.99 235.50 606.56 234.58 601.97 244.72   Q 601.88 244.91 601.68 244.83   L 601.68 244.83   Q 601.51 244.76 601.57 244.58   C 605.17 234.85 599.80 225.95 591.21 221.49   Q 589.43 220.56 587.61 219.73   Q 587.09 219.49 587.01 218.92   Q 586.74 217.01 586.76 215.15   Q 587.40 155.02 587.99 97.34   Q 588.00 95.60 586.32 95.20   Q 585.97 95.12 585.61 95.22   Q 584.18 95.66 584.17 97.14   L 582.99 217.56   Q 582.99 217.84 582.73 217.75   Q 577.71 216.05 572.18 214.90   C 560.43 212.47 547.22 215.94 548.20 230.81   Q 548.46 234.62 549.32 238.20   Q 549.36 238.35 549.21 238.38   L 549.20 238.38   Q 549.06 238.42 549.02 238.27   C 547.61 232.86 545.06 228.50 540.49 225.38   C 531.29 219.13 519.93 216.83 508.69 216.50   C 502.59 216.32 492.47 217.65 488.92 223.12   C 485.08 229.04 488.08 236.02 492.64 240.58   Q 492.77 240.71 492.65 240.86   L 492.65 240.86   Q 492.51 241.02 492.34 240.89   C 486.58 236.48 480.25 233.63 472.94 232.84   C 460.50 231.49 448.07 239.97 446.17 252.38   Q 444.55 262.91 451.90 270.04   Q 452.72 270.83 451.61 270.56   C 440.84 267.95 427.76 269.81 426.28 283.32   C 425.19 293.21 428.70 304.63 439.97 306.15   Q 440.69 306.24 440.18 306.77   C 432.74 314.50 429.90 327.17 435.74 336.72   A 0.29 0.29 0.0 0 1 435.50 337.16   L 165.84 334.49   Q 164.85 334.48 164.84 333.49   L 163.03 97.22   Q 163.02 95.43 161.24 95.19   L 160.85 95.13   A 1.32 1.32 0.0 0 0 159.36 96.45   L 161.25 337.72   A 0.70 0.69 0.4 0 0 161.94 338.41   Q 282.83 339.03 397.25 340.05   Q 415.83 340.22 434.90 340.53   A 0.87 0.87 0.0 0 1 435.75 341.44   Q 435.06 357.38 438.09 372.87   Q 438.82 376.58 440.19 380.11   A 0.42 0.41 71.1 0 1 439.93 380.65   C 428.92 384.26 425.35 397.65 428.70 407.83   C 432.80 420.29 446.37 425.33 458.45 420.86   Q 459.12 420.61 459.10 421.33   Q 458.61 438.02 460.81 450.26   Q 463.87 467.27 478.67 478.47   Q 491.36 488.08 508.04 494.00   Q 508.59 494.19 508.56 494.77   L 507.48 517.05   Q 507.45 517.72 506.77 517.76   Q 489.11 518.60 470.17 521.18   C 430.69 526.55 393.22 542.23 363.52 568.60   Q 357.21 574.21 353.25 580.42   Q 315.84 639.12 290.08 705.67   Q 280.58 730.22 273.99 755.31   Q 273.73 756.31 273.44 755.32   Q 270.34 744.82 262.81 736.32   Q 254.32 726.73 245.97 721.05   C 240.44 717.29 234.76 715.18 228.60 719.65   Q 227.94 720.13 227.94 719.32   L 228.04 706.97   Q 228.04 706.31 228.70 706.38   C 238.55 707.51 258.90 707.91 264.01 696.83   Q 264.31 696.19 264.64 696.82   C 267.70 702.71 274.35 702.56 279.08 698.85   C 289.87 690.39 291.73 675.60 286.96 663.23   Q 283.22 653.52 280.20 644.97   Q 279.66 643.45 279.90 641.75   Q 279.97 641.24 280.46 641.08   C 294.26 636.60 296.90 620.18 284.49 612.52   Q 283.95 612.18 283.94 611.55   L 283.81 600.35   Q 283.80 599.64 284.35 599.19   C 291.96 593.01 291.39 575.21 289.98 565.94   C 287.33 548.51 279.52 532.24 265.95 521.21   C 248.83 507.30 215.39 494.17 195.23 509.33   Q 194.64 509.78 193.92 509.61   Q 175.69 505.46 161.42 518.39   C 147.23 531.24 139.09 554.24 138.03 573.02   A 1.27 1.24 -13.5 0 1 137.40 574.03   C 128.36 579.14 124.37 592.84 123.19 603.18   Q 121.30 619.80 124.16 635.36   Q 125.31 641.65 126.63 647.64   C 127.84 653.17 124.03 661.79 121.80 667.26   C 118.10 676.32 116.81 686.60 125.12 693.70   C 131.22 698.90 140.37 701.59 148.43 701.71   C 152.89 701.77 155.82 698.87 156.55 694.52   Q 156.78 693.18 157.02 694.52   C 157.82 698.91 161.25 700.77 165.55 700.63   Q 171.21 700.43 175.81 699.34   A 0.53 0.53 0.0 0 1 176.46 699.91   Q 175.58 708.21 174.27 715.57   C 173.88 717.78 172.85 719.82 170.92 721.11   A 1.19 1.18 46.6 0 1 169.54 721.06   Q 163.88 716.73 156.52 718.01   C 139.82 720.93 127.80 729.83 116.44 742.52   Q 116.00 743.02 115.33 742.97   C 100.53 741.87 83.34 741.97 68.67 746.13   Q 54.43 750.18 52.64 763.52   Q 52.01 768.27 54.44 779.84   Q 63.49 822.86 71.88 862.95   A 0.36 0.35 84.0 0 1 71.54 863.38   L 0.00 863.43   L 0.00 0.00   L 1024.00 0.00   Z"/>
<path d="   M 607.88 414.77   A 1.57 1.57 0.0 0 0 606.39 416.24   Q 605.44 431.98 603.39 447.33   Q 601.92 458.32 596.80 466.21   C 587.97 479.82 572.38 488.26 556.35 492.31   Q 528.20 499.44 501.35 487.40   C 489.02 481.86 476.77 474.78 469.79 463.81   Q 464.72 455.85 463.56 444.89   Q 462.34 433.44 462.67 419.05   Q 462.73 416.67 460.65 415.95   Q 460.13 415.77 459.66 416.05   Q 448.98 422.30 439.27 415.80   C 431.08 410.32 428.77 399.64 433.34 391.11   C 435.72 386.65 439.64 383.61 444.85 383.23   C 451.84 382.73 451.72 389.06 454.62 393.30   C 456.92 396.65 462.70 397.15 464.91 393.56   Q 466.08 391.67 465.85 388.02   C 464.81 370.90 463.14 353.01 466.43 336.55   Q 468.17 327.87 474.03 319.22   Q 474.39 318.67 474.65 319.28   Q 478.04 327.45 487.02 328.53   C 500.89 330.20 511.54 323.47 516.70 310.83   Q 517.12 309.79 517.42 310.87   C 520.52 321.98 530.66 324.98 541.11 324.22   C 551.23 323.48 562.13 317.82 562.78 306.71   Q 562.83 305.79 563.18 306.64   C 563.69 307.90 563.90 309.28 564.51 310.51   Q 571.48 324.42 588.05 323.71   Q 594.86 323.41 599.11 318.48   A 0.25 0.25 0.0 0 1 599.54 318.56   Q 602.06 326.10 602.84 333.82   C 604.61 351.32 603.41 369.61 602.16 387.92   C 601.78 393.44 604.60 396.12 610.15 395.17   Q 611.84 394.87 612.56 393.23   C 614.90 387.85 617.13 383.83 623.80 383.60   C 630.24 383.37 636.11 387.27 638.75 393.09   C 645.68 408.38 629.60 425.06 614.08 418.66   C 612.36 417.95 611.15 416.41 609.92 415.06   Q 609.57 414.68 609.05 414.71   L 607.88 414.77   Z   M 517.0522 345.8555   A 13.68 7.80 10.0 0 0 504.9345 335.7985   A 13.68 7.80 10.0 0 0 490.1078 341.1045   A 13.68 7.80 10.0 0 0 502.2255 351.1615   A 13.68 7.80 10.0 0 0 517.0522 345.8555   Z   M 575.4677 343.5189   A 13.93 7.97 -6.6 0 0 560.7140 337.2028   A 13.93 7.97 -6.6 0 0 547.7923 346.7211   A 13.93 7.97 -6.6 0 0 562.5460 353.0372   A 13.93 7.97 -6.6 0 0 575.4677 343.5189   Z   M 534.87 415.33   L 528.03 415.09   Q 526.23 415.02 526.02 416.81   L 525.96 417.25   Q 525.79 418.68 527.23 418.68   L 538.03 418.71   A 1.15 1.15 0.0 0 0 539.17 417.70   Q 539.33 416.25 539.31 414.77   Q 538.97 391.93 538.18 366.11   Q 538.14 364.64 536.67 364.71   L 535.79 364.76   A 1.20 1.19 88.1 0 0 534.65 365.99   L 535.85 414.37   Q 535.88 415.37 534.87 415.33   Z   M 507.3685 376.9880   A 4.75 4.75 0.0 0 0 502.7190 372.1395   L 501.9592 372.1236   A 4.75 4.75 0.0 0 0 497.1108 376.7731   L 497.0115 381.5120   A 4.75 4.75 0.0 0 0 501.6610 386.3605   L 502.4208 386.3764   A 4.75 4.75 0.0 0 0 507.2692 381.7269   L 507.3685 376.9880   Z   M 570.5760 377.7315   A 4.79 4.79 0.0 0 0 565.8618 372.8668   L 565.1019 372.8549   A 4.79 4.79 0.0 0 0 560.2372 377.5691   L 560.1640 382.2285   A 4.79 4.79 0.0 0 0 564.8782 387.0932   L 565.6381 387.1051   A 4.79 4.79 0.0 0 0 570.5028 382.3909   L 570.5760 377.7315   Z   M 498.5357 401.5188   A 1.27 1.27 0.0 0 0 496.8247 400.9727   L 496.7359 401.0186   A 1.27 1.27 0.0 0 0 496.1898 402.7296   L 499.0243 408.2212   A 1.27 1.27 0.0 0 0 500.7353 408.7673   L 500.8241 408.7214   A 1.27 1.27 0.0 0 0 501.3702 407.0104   L 498.5357 401.5188   Z   M 496.34 408.34   C 496.23 405.99 494.84 403.43 493.44 401.65   Q 492.08 399.92 491.96 402.11   Q 491.83 404.64 493.64 408.05   C 494.01 408.74 494.87 408.98 495.60 409.05   Q 496.38 409.13 496.34 408.34   Z   M 488.5870 401.9489   A 1.21 1.21 0.0 0 0 486.9397 401.4859   L 486.6431 401.6523   A 1.21 1.21 0.0 0 0 486.1801 403.2996   L 489.2730 408.8111   A 1.21 1.21 0.0 0 0 490.9203 409.2741   L 491.2169 409.1077   A 1.21 1.21 0.0 0 0 491.6799 407.4604   L 488.5870 401.9489   Z   M 575.53 402.87   L 579.26 410.06   A 0.50 0.50 0.0 0 0 579.93 410.27   L 580.20 410.13   A 2.52 1.90 62.6 0 0 580.72 407.02   L 578.85 403.42   A 2.52 1.90 62.6 0 0 576.01 402.05   L 575.74 402.19   A 0.50 0.50 0.0 0 0 575.53 402.87   Z   M 575.30 409.99   Q 576.39 409.80 576.04 408.76   Q 574.88 405.37 572.20 402.47   A 0.63 0.63 0.0 0 0 571.15 402.65   Q 570.93 403.20 571.07 403.79   Q 571.76 406.67 572.95 408.97   Q 573.51 410.05 574.73 410.04   Q 575.02 410.04 575.30 409.99   Z   M 568.63 404.23   Q 568.09 403.01 566.97 402.82   A 1.10 1.10 0.0 0 0 565.72 404.21   Q 566.87 408.11 569.48 410.32   Q 570.72 411.37 570.91 409.75   C 571.12 407.96 569.35 405.86 568.63 404.23   Z   M 547.0315 438.9447   A 1.26 1.26 0.0 0 0 545.7759 437.6803   L 516.9361 437.5797   A 1.26 1.26 0.0 0 0 515.6717 438.8353   L 515.6685 439.7353   A 1.26 1.26 0.0 0 0 516.9241 440.9997   L 545.7639 441.1003   A 1.26 1.26 0.0 0 0 547.0283 439.8447   L 547.0315 438.9447   Z"/>
<path d="   M 602.47 530.37   L 596.34 526.75   A 0.92 0.92 0.0 0 1 595.92 526.20   L 595.58 524.97   A 0.92 0.92 0.0 0 1 596.91 523.92   L 603.27 527.45   A 0.92 0.92 0.0 0 1 603.73 528.17   L 603.86 529.49   A 0.92 0.92 0.0 0 1 602.47 530.37   Z"/>
<rect x="-5.76" y="-1.39" transform="translate(484.29,528.81) rotate(-15.2)" width="11.52" height="2.78" rx="1.08"/>
<rect x="-1.36" y="-4.94" transform="translate(589.79,541.82) rotate(-43.1)" width="2.72" height="9.88" rx="1.31"/>
<rect x="-5.49" y="-1.33" transform="translate(495.22,544.11) rotate(-39.0)" width="10.98" height="2.66" rx="1.12"/>
<rect x="-1.40" y="-5.05" transform="translate(573.73,554.42) rotate(-31.2)" width="2.80" height="10.10" rx="1.35"/>
<rect x="-1.39" y="-6.60" transform="translate(511.73,557.77) rotate(23.6)" width="2.78" height="13.20" rx="1.34"/>
<rect x="-1.39" y="-5.31" transform="translate(553.53,560.58) rotate(-26.4)" width="2.78" height="10.62" rx="1.24"/>
<rect x="-1.42" y="-6.39" transform="translate(530.91,562.64) rotate(12.1)" width="2.84" height="12.78" rx="1.37"/>
<path d="   M 183.66 619.49   Q 185.92 620.43 187.72 618.75   C 196.16 610.92 195.33 598.18 194.86 587.64   Q 194.80 586.24 195.58 587.40   Q 205.34 601.88 223.13 596.83   Q 232.80 594.08 238.41 585.75   C 238.97 584.92 239.25 583.88 239.84 583.09   A 1.23 1.22 -71.3 0 1 240.82 582.60   Q 245.29 582.55 248.88 580.46   Q 249.39 580.17 249.64 580.70   C 254.38 590.39 267.22 600.23 278.23 594.56   A 0.47 0.47 0.0 0 1 278.91 594.88   C 281.57 607.69 280.72 622.48 278.19 634.85   Q 274.75 651.63 262.65 665.09   C 248.16 681.19 228.63 682.47 208.16 681.39   C 204.75 681.21 204.96 684.86 206.83 686.56   Q 214.20 693.23 224.41 695.92   A 1.21 1.20 9.8 0 1 225.31 697.18   Q 224.35 709.40 224.79 721.08   C 224.82 721.98 225.28 722.71 225.59 723.52   Q 225.78 724.00 225.59 724.48   C 221.35 735.31 208.83 763.04 192.65 751.85   Q 187.13 748.02 182.80 741.44   Q 178.90 735.51 173.07 724.66   Q 172.76 724.09 173.33 723.75   Q 177.00 721.59 177.97 715.56   Q 179.42 706.52 180.37 698.93   A 0.70 0.69 87.7 0 1 180.92 698.33   C 188.30 696.72 197.13 692.11 201.48 685.97   C 211.30 672.12 204.80 655.47 194.43 643.41   C 192.45 641.10 188.67 637.30 185.39 637.88   Q 184.76 637.99 184.38 638.51   C 177.89 647.63 162.61 644.70 158.33 634.32   Q 154.30 624.53 161.05 616.49   C 166.82 609.61 179.26 609.46 182.89 618.71   A 1.40 1.37 89.8 0 0 183.66 619.49   Z   M 227.9708 600.6491   A 0.94 0.94 0.0 0 0 226.9391 599.8107   L 215.2414 601.0196   A 0.94 0.94 0.0 0 0 214.4030 602.0512   L 214.4092 602.1109   A 0.94 0.94 0.0 0 0 215.4409 602.9493   L 227.1386 601.7404   A 0.94 0.94 0.0 0 0 227.9770 600.7088   L 227.9708 600.6491   Z   M 267.8010 602.7220   A 0.84 0.84 0.0 0 0 267.0877 601.7721   L 254.8312 600.0277   A 0.84 0.84 0.0 0 0 253.8813 600.7410   L 253.8390 601.0380   A 0.84 0.84 0.0 0 0 254.5523 601.9879   L 266.8088 603.7323   A 0.84 0.84 0.0 0 0 267.7587 603.0190   L 267.8010 602.7220   Z   M 247.87 626.73   L 245.32 629.65   Q 244.89 630.15 245.26 630.70   Q 245.36 630.86 245.54 630.93   Q 246.88 631.41 247.75 630.48   Q 249.62 628.44 250.65 625.89   A 1.51 1.50 -69.7 0 0 249.74 623.90   L 242.26 621.37   A 2.96 2.96 0.0 0 1 240.25 618.57   L 240.25 611.46   A 1.27 1.27 0.0 0 0 239.43 610.27   L 238.99 610.10   A 0.40 0.40 0.0 0 0 238.45 610.43   Q 237.99 615.01 238.07 619.41   Q 238.11 621.90 240.68 622.81   Q 244.04 624.00 247.45 625.16   A 0.98 0.98 0.0 0 1 247.87 626.73   Z   M 226.7492 614.3364   A 3.66 3.66 0.0 0 0 223.0134 610.7539   L 222.3335 610.7681   A 3.66 3.66 0.0 0 0 218.7510 614.5040   L 218.7908 616.4036   A 3.66 3.66 0.0 0 0 222.5266 619.9861   L 223.2065 619.9719   A 3.66 3.66 0.0 0 0 226.7890 616.2360   L 226.7492 614.3364   Z   M 259.9345 620.6889   A 5.04 4.21 91.2 0 0 264.2491 615.7382   A 5.04 4.21 91.2 0 0 260.1455 610.6111   A 5.04 4.21 91.2 0 0 255.8309 615.5618   A 5.04 4.21 91.2 0 0 259.9345 620.6889   Z   M 214.6530 623.9247   A 0.87 0.87 0.0 0 0 213.5769 623.3282   L 213.5192 623.3448   A 0.87 0.87 0.0 0 0 212.9227 624.4209   L 216.9470 638.4553   A 0.87 0.87 0.0 0 0 218.0231 639.0518   L 218.0808 639.0352   A 0.87 0.87 0.0 0 0 218.6773 637.9591   L 214.6530 623.9247   Z   M 204.4975 624.1815   A 0.82 0.82 0.0 0 0 203.4698 623.6442   L 203.4317 623.6562   A 0.82 0.82 0.0 0 0 202.8944 624.6839   L 207.2425 638.5585   A 0.82 0.82 0.0 0 0 208.2702 639.0958   L 208.3083 639.0838   A 0.82 0.82 0.0 0 0 208.8456 638.0561   L 204.4975 624.1815   Z   M 212.42 639.59   L 213.70 639.20   A 0.30 0.30 0.0 0 0 213.90 638.82   L 210.41 627.33   A 4.35 0.76 73.1 0 0 208.42 623.39   L 208.02 623.51   A 4.35 0.76 73.1 0 0 208.55 627.89   L 212.05 639.39   A 0.30 0.30 0.0 0 0 212.42 639.59   Z   M 263.1336 630.6452   A 0.88 0.88 0.0 0 0 262.1371 629.8997   L 262.0777 629.9083   A 0.88 0.88 0.0 0 0 261.3322 630.9048   L 263.1464 643.4948   A 0.88 0.88 0.0 0 0 264.1429 644.2403   L 264.2023 644.2317   A 0.88 0.88 0.0 0 0 264.9478 643.2352   L 263.1336 630.6452   Z   M 272.6787 630.4523   A 0.88 0.88 0.0 0 0 271.6834 629.7051   L 271.3270 629.7558   A 0.88 0.88 0.0 0 0 270.5798 630.7510   L 272.3213 642.9877   A 0.88 0.88 0.0 0 0 273.3166 643.7349   L 273.6730 643.6842   A 0.88 0.88 0.0 0 0 274.4202 642.6890   L 272.6787 630.4523   Z   M 267.6634 630.6649   A 0.72 0.72 0.0 0 0 266.8344 630.0736   L 266.5780 630.1165   A 0.72 0.72 0.0 0 0 265.9867 630.9455   L 268.0366 643.1951   A 0.72 0.72 0.0 0 0 268.8656 643.7864   L 269.1220 643.7435   A 0.72 0.72 0.0 0 0 269.7133 642.9145   L 267.6634 630.6649   Z   M 242.40 639.23   L 223.29 639.90   A 2.94 2.94 0.0 0 0 220.45 642.94   L 220.46 643.08   A 13.46 12.44 88.0 0 0 233.36 656.10   L 233.48 656.09   A 13.46 12.44 88.0 0 0 245.44 642.21   L 245.44 642.07   A 2.94 2.94 0.0 0 0 242.40 639.23   Z"/>
<rect x="-1.54" y="-23.44" transform="translate(382.91,624.21) rotate(-33.6)" width="3.08" height="46.88" rx="1.21"/>
<rect x="-1.58" y="-21.32" transform="translate(685.87,629.14) rotate(40.4)" width="3.16" height="42.64" rx="1.13"/>
<path d="   M 907.87 747.32   A 1.19 1.19 0.0 0 0 909.13 748.46   L 917.41 747.98   A 0.25 0.24 10.3 0 1 917.65 748.32   C 914.03 756.68 906.74 765.51 897.59 767.40   C 888.64 769.26 883.52 761.33 882.22 753.47   Q 881.28 747.77 881.73 742.11   A 1.00 0.98 78.8 0 1 882.24 741.33   Q 893.70 735.05 904.63 725.55   A 1.59 1.58 63.3 0 0 905.14 724.00   C 904.83 722.63 903.74 721.94 902.37 722.24   C 884.17 726.20 866.83 725.21 850.39 717.08   C 838.09 711.00 829.75 700.46 826.15 687.20   Q 823.66 678.04 823.49 670.46   C 823.11 654.22 825.73 638.37 828.88 622.40   Q 829.05 621.55 829.74 622.07   C 839.48 629.36 855.21 627.25 861.70 616.72   Q 862.11 616.06 862.41 616.77   Q 866.05 625.25 875.28 627.66   C 886.65 630.62 899.39 626.12 907.72 617.89   A 0.31 0.30 -28.5 0 1 908.23 618.04   L 912.09 635.00   A 0.65 0.64 76.1 0 1 911.63 635.77   Q 904.95 637.60 903.99 644.70   C 902.83 653.21 909.35 659.31 917.78 658.65   C 923.08 658.23 926.00 655.76 928.61 651.55   A 1.00 0.99 -71.9 0 1 929.54 651.07   Q 935.08 651.51 938.27 654.26   C 943.44 658.71 945.54 665.13 943.66 671.76   C 940.20 684.02 925.06 688.45 916.16 678.42   A 1.50 1.49 47.6 0 0 914.02 678.32   Q 913.26 679.04 913.16 680.07   Q 910.48 709.83 908.14 738.16   Q 907.73 743.08 907.87 747.32   Z   M 836.8981 650.2019   A 5.29 4.23 98.5 0 0 841.8635 645.5952   A 5.29 4.23 98.5 0 0 838.4619 639.7381   A 5.29 4.23 98.5 0 0 833.4965 644.3448   A 5.29 4.23 98.5 0 0 836.8981 650.2019   Z   M 874.3236 652.5622   A 5.54 4.42 96.7 0 0 879.3598 647.5757   A 5.54 4.42 96.7 0 0 875.6164 641.5578   A 5.54 4.42 96.7 0 0 870.5802 646.5443   A 5.54 4.42 96.7 0 0 874.3236 652.5622   Z   M 844.08 659.30   C 849.42 657.62 854.81 657.38 855.66 650.32   Q 856.12 646.42 856.16 642.86   A 0.96 0.95 1.2 0 0 855.23 641.90   L 853.45 641.86   Q 852.68 641.84 852.66 642.62   C 852.57 647.11 853.00 652.71 848.50 654.26   Q 843.61 655.94 838.79 657.25   A 1.29 1.29 0.0 0 0 838.21 659.40   Q 840.51 661.72 843.03 663.91   Q 844.34 665.05 845.64 663.70   A 1.83 1.83 0.0 0 0 845.64 661.16   Q 844.99 660.49 844.08 660.20   Q 842.65 659.75 844.08 659.30   Z   M 829.48 665.70   Q 829.30 665.86 829.20 666.08   A 0.25 0.22 52.6 0 0 829.19 666.23   L 830.12 670.80   Q 830.16 670.97 830.32 671.01   Q 830.47 671.04 830.61 671.00   Q 831.12 670.86 831.15 670.33   Q 831.40 666.16 830.82 662.32   Q 830.75 661.85 830.32 661.68   Q 830.14 661.61 829.92 661.81   Q 829.63 662.08 829.64 662.48   L 829.68 665.23   Q 829.69 665.51 829.48 665.70   Z   M 832.68 662.28   L 834.02 670.70   Q 834.05 670.93 834.28 670.97   Q 834.53 671.01 834.83 670.64   A 0.73 0.72 68.9 0 0 834.98 670.30   Q 835.53 665.87 833.60 662.11   Q 833.51 661.93 833.32 661.86   Q 833.19 661.81 833.05 661.82   Q 832.61 661.84 832.68 662.28   Z   M 875.1655 670.9427   A 4.59 1.02 72.3 0 0 874.7417 666.2599   A 4.59 1.02 72.3 0 0 872.3745 662.1973   A 4.59 1.02 72.3 0 0 872.7983 666.8801   A 4.59 1.02 72.3 0 0 875.1655 670.9427   Z   M 877.0953 662.7976   A 0.74 0.74 0.0 0 0 876.1927 662.2680   L 876.1540 662.2781   A 0.74 0.74 0.0 0 0 875.6244 663.1807   L 877.4847 670.3224   A 0.74 0.74 0.0 0 0 878.3873 670.8520   L 878.4260 670.8419   A 0.74 0.74 0.0 0 0 878.9556 669.9393   L 877.0953 662.7976   Z   M 826.54 671.13   L 827.59 671.06   A 0.25 0.25 0.0 0 0 827.83 670.79   L 827.58 667.08   A 4.65 0.59 86.2 0 0 826.68 662.48   L 826.30 662.50   A 4.65 0.59 86.2 0 0 826.02 667.18   L 826.27 670.89   A 0.25 0.25 0.0 0 0 826.54 671.13   Z   M 870.38 671.35   L 871.82 670.95   A 0.19 0.19 0.0 0 0 871.96 670.72   L 871.93 670.63   A 8.26 0.71 74.8 0 0 869.08 662.85   L 868.64 662.97   A 8.26 0.71 74.8 0 0 870.12 671.13   L 870.14 671.21   A 0.19 0.19 0.0 0 0 870.38 671.35   Z   M 864.62 674.76   L 845.10 673.05   A 3.68 3.68 0.0 0 0 841.11 676.40   L 841.09 676.59   A 15.65 13.42 -85.0 0 0 853.10 693.35   L 853.22 693.36   A 15.65 13.42 -85.0 0 0 867.95 678.94   L 867.97 678.75   A 3.68 3.68 0.0 0 0 864.62 674.76   Z"/>
<path d="   M 283.88 618.26   Q 283.99 615.49 285.43 617.86   Q 286.46 619.57 287.46 621.21   Q 288.88 623.55 288.65 626.28   Q 288.09 632.66 282.51 636.41   A 0.43 0.43 0.0 0 1 281.85 636.07   Q 281.80 634.96 282.02 633.88   Q 283.54 626.46 283.88 618.26   Z"/>
<path d="   M 819.95 666.63   A 0.12 0.12 0.0 0 1 819.82 666.74   L 819.82 666.74   A 11.25 10.06 -86.4 0 1 810.49 654.88   L 810.49 654.74   A 11.25 10.06 -86.4 0 1 821.24 644.14   L 821.24 644.14   A 0.12 0.12 0.0 0 1 821.35 644.27   L 819.95 666.63   Z"/>
<path d="   M 576.07 729.27   Q 575.31 729.17 574.63 729.30   A 1.26 1.26 0.0 0 0 573.62 730.59   L 579.60 863.83   Q 579.63 864.42 579.04 864.42   L 388.30 864.50   Q 387.82 864.50 387.66 864.05   Q 387.54 863.74 387.77 863.46   Q 387.99 863.18 388.33 863.07   Q 389.26 862.78 390.19 862.50   A 1.18 1.16 81.7 0 0 391.01 861.38   Q 390.98 854.92 390.65 849.00   Q 388.70 813.91 387.53 780.75   Q 387.21 771.67 386.68 760.79   Q 384.87 724.14 385.38 688.73   Q 385.54 677.25 387.18 666.96   C 388.07 661.39 391.51 660.98 396.26 660.49   Q 411.64 658.89 425.07 658.25   Q 531.81 653.16 647.71 658.62   Q 664.91 659.43 680.10 661.44   C 683.24 661.85 684.48 666.28 684.74 668.87   Q 686.36 684.71 686.08 701.75   Q 685.63 729.49 684.46 753.51   Q 681.82 807.62 677.98 864.25   A 0.35 0.35 0.0 0 1 677.63 864.58   L 583.57 864.54   Q 583.09 864.54 583.07 864.07   L 577.23 730.54   A 1.34 1.34 0.0 0 0 576.07 729.27   Z   M 496.0696 730.4937   A 1.23 1.23 0.0 0 0 494.8811 729.2236   L 493.8816 729.1904   A 1.23 1.23 0.0 0 0 492.6115 730.3790   L 488.2304 862.4463   A 1.23 1.23 0.0 0 0 489.4189 863.7164   L 490.4184 863.7496   A 1.23 1.23 0.0 0 0 491.6885 862.5610   L 496.0696 730.4937   Z   M 505.13 735.12   L 566.10 735.14   Q 567.18 735.14 567.21 736.22   L 567.49 747.34   Q 567.52 748.91 569.09 748.80   L 569.61 748.76   Q 570.96 748.67 570.93 747.31   L 570.61 734.86   Q 570.53 731.69 567.36 731.69   L 504.62 731.69   Q 501.25 731.69 501.31 735.06   L 501.53 747.30   Q 501.56 748.72 502.98 748.70   L 504.02 748.68   Q 505.19 748.66 505.16 747.48   L 504.81 735.46   A 0.33 0.32 89.1 0 1 505.13 735.12   Z"/>
<path d="   M 143.26 773.82   Q 143.03 773.83 142.80 773.89   Q 141.14 774.32 141.36 776.01   L 152.67 863.02   A 0.45 0.45 0.0 0 1 152.22 863.53   L 91.98 863.41   Q 90.90 863.40 90.69 862.34   C 86.53 840.68 88.40 816.24 92.33 794.56   Q 94.05 785.07 96.49 777.51   C 98.27 771.96 102.01 767.05 105.30 762.32   Q 115.97 746.98 128.12 736.08   Q 141.34 724.23 157.64 721.28   C 163.62 720.20 168.93 724.09 171.66 729.29   C 176.52 738.54 183.19 751.45 192.97 756.22   C 203.37 761.30 212.96 754.48 218.67 746.13   C 222.66 740.29 225.83 733.93 228.43 727.36   C 232.76 716.39 240.73 721.10 247.16 726.29   C 255.40 732.95 263.76 741.39 267.96 750.57   Q 270.14 755.35 271.47 761.61   Q 271.93 763.75 271.42 765.92   Q 266.17 788.47 266.74 809.96   C 267.29 830.59 273.88 849.80 291.57 861.48   A 0.93 0.92 -37.1 0 1 291.34 863.13   Q 289.35 863.76 287.01 863.77   Q 271.43 863.80 258.16 863.84   A 0.79 0.78 -5.9 0 1 257.39 863.22   L 240.14 780.49   Q 239.86 779.14 238.49 778.92   Q 238.23 778.88 237.96 778.96   Q 236.28 779.52 236.64 781.26   L 253.89 863.56   A 0.19 0.18 84.8 0 1 253.71 863.78   L 156.53 863.57   A 0.37 0.35 86.3 0 1 156.18 863.25   L 144.94 775.27   A 1.66 1.66 0.0 0 0 143.26 773.82   Z"/>
<path d="   M 112.59 746.50   Q 104.47 756.18 97.77 766.69   C 92.84 774.42 90.97 782.38 89.10 791.92   Q 83.29 821.69 85.51 851.71   Q 85.92 857.26 87.20 862.81   A 0.49 0.48 83.4 0 1 86.73 863.41   L 76.30 863.40   Q 75.61 863.40 75.47 862.73   Q 66.03 817.68 56.65 772.88   C 53.04 755.65 65.67 749.35 79.94 747.44   Q 96.62 745.22 112.41 746.08   A 0.26 0.26 0.0 0 1 112.59 746.50   Z"/>
<path d="   M 989.92 863.72   Q 983.30 828.60 977.81 798.14   Q 977.09 794.13 975.24 790.05   Q 969.05 776.41 958.95 762.86   Q 952.25 753.87 943.23 748.51   Q 942.51 748.08 943.35 748.10   Q 954.31 748.32 966.10 748.37   C 977.25 748.43 987.82 749.75 997.94 752.62   Q 1004.21 754.39 1005.69 758.90   Q 1007.26 763.66 1007.39 771.19   Q 1008.11 811.11 1005.54 863.87   A 0.58 0.58 0.0 0 1 1004.96 864.42   L 990.79 864.44   A 0.89 0.88 -5.1 0 1 989.92 863.72   Z"/>
<path d="   M 931.68 777.69   Q 931.01 775.85 929.91 775.96   Q 928.18 776.14 928.15 777.87   L 926.67 863.68   Q 926.66 864.52 925.82 864.52   L 840.68 864.61   A 0.58 0.57 -83.9 0 1 840.12 863.91   L 855.70 790.42   Q 855.97 789.16 854.78 788.68   L 854.29 788.48   Q 852.52 787.76 852.13 789.63   L 836.41 864.16   A 0.62 0.62 0.0 0 1 835.80 864.66   L 807.00 864.57   Q 806.50 864.57 806.67 864.09   Q 808.58 858.80 810.78 853.79   Q 820.75 831.01 829.99 808.74   Q 833.16 801.11 835.87 793.01   C 840.69 778.57 847.81 765.20 859.90 756.12   Q 866.70 751.01 877.71 749.33   Q 878.27 749.24 878.32 749.81   C 879.42 763.32 886.66 775.47 902.47 769.67   C 911.21 766.46 918.26 757.39 921.79 748.94   Q 922.00 748.42 922.57 748.41   C 927.60 748.33 932.44 747.48 937.28 749.57   Q 946.30 753.46 952.16 760.29   Q 962.04 771.78 969.70 787.14   C 971.87 791.49 973.70 795.72 974.59 800.61   Q 980.30 831.91 986.26 863.80   A 0.48 0.48 0.0 0 1 985.79 864.37   L 930.79 864.51   Q 930.07 864.51 930.09 863.79   L 931.74 778.03   A 1.03 0.89 -59.2 0 0 931.68 777.69   Z"/>
<path d="   M 368.54 776.23   Q 369.76 776.53 368.77 775.76   Q 357.73 767.09 346.29 759.18   Q 345.24 758.45 346.13 757.52   L 346.59 757.03   Q 347.39 756.20 348.33 756.87   Q 360.14 765.36 371.38 773.56   C 373.95 775.43 378.09 778.41 379.51 781.24   Q 380.64 783.51 381.26 781.05   Q 382.65 775.57 383.02 769.41   Q 383.04 769.20 383.25 769.20   L 383.25 769.20   Q 383.45 769.20 383.47 769.40   Q 383.95 776.81 384.20 784.22   A 0.58 0.58 0.0 0 1 383.41 784.78   C 382.00 784.21 381.01 783.27 379.53 782.80   Q 372.50 780.57 365.30 778.19   Q 346.43 771.95 326.86 773.77   Q 326.01 773.85 325.93 773.00   L 325.82 771.81   Q 325.75 771.07 326.50 770.99   Q 341.22 769.44 355.85 772.65   C 359.69 773.49 364.27 775.16 368.54 776.23   Z"/>
<path d="   M 694.03 780.10   C 704.80 779.31 715.09 780.20 724.43 785.09   Q 725.55 785.68 726.13 786.79   Q 726.50 787.50 726.01 788.15   Q 725.36 789.02 724.40 788.48   C 713.27 782.18 701.14 781.86 688.56 783.46   A 1.64 1.64 0.0 0 1 686.77 781.40   Q 687.11 780.11 688.29 779.43   C 702.33 771.22 717.92 767.60 733.68 765.94   Q 734.64 765.84 734.77 766.80   L 734.88 767.71   Q 735.01 768.73 734.00 768.86   C 719.66 770.73 706.88 773.33 693.91 779.64   Q 692.76 780.20 694.03 780.10   Z"/>
<path d="   M 1024.00 866.67   L 1024.00 877.20   Q 833.62 877.14 643.25 877.24   Q 434.41 877.35 0.00 875.67   L 0.00 867.25   Q 186.51 867.20 373.02 866.93   C 403.07 866.88 433.24 866.44 467.25 866.44   Q 745.62 866.41 1024.00 866.67   Z"/>
<path d="   M 1024.00 880.62   L 1024.00 1024.00   L 0.00 1024.00   L 0.00 878.69   Q 512.00 880.96 1024.00 880.62   Z"/>
</g>
<g fill="#1b245a" id="Group-000000">
<path d="   M 1024.00 864.41   L 1024.00 866.67   Q 745.62 866.41 467.25 866.44   C 433.24 866.44 403.07 866.88 373.02 866.93   Q 186.51 867.20 0.00 867.25   L 0.00 863.43   L 71.54 863.38   A 0.36 0.35 84.0 0 0 71.88 862.95   Q 63.49 822.86 54.44 779.84   Q 52.01 768.27 52.64 763.52   Q 54.43 750.18 68.67 746.13   C 83.34 741.97 100.53 741.87 115.33 742.97   Q 116.00 743.02 116.44 742.52   C 127.80 729.83 139.82 720.93 156.52 718.01   Q 163.88 716.73 169.54 721.06   A 1.19 1.18 46.6 0 0 170.92 721.11   C 172.85 719.82 173.88 717.78 174.27 715.57   Q 175.58 708.21 176.46 699.91   A 0.53 0.53 0.0 0 0 175.81 699.34   Q 171.21 700.43 165.55 700.63   C 161.25 700.77 157.82 698.91 157.02 694.52   Q 156.78 693.18 156.55 694.52   C 155.82 698.87 152.89 701.77 148.43 701.71   C 140.37 701.59 131.22 698.90 125.12 693.70   C 116.81 686.60 118.10 676.32 121.80 667.26   C 124.03 661.79 127.84 653.17 126.63 647.64   Q 125.31 641.65 124.16 635.36   Q 121.30 619.80 123.19 603.18   C 124.37 592.84 128.36 579.14 137.40 574.03   A 1.27 1.24 -13.5 0 0 138.03 573.02   C 139.09 554.24 147.23 531.24 161.42 518.39   Q 175.69 505.46 193.92 509.61   Q 194.64 509.78 195.23 509.33   C 215.39 494.17 248.83 507.30 265.95 521.21   C 279.52 532.24 287.33 548.51 289.98 565.94   C 291.39 575.21 291.96 593.01 284.35 599.19   Q 283.80 599.64 283.81 600.35   L 283.94 611.55   Q 283.95 612.18 284.49 612.52   C 296.90 620.18 294.26 636.60 280.46 641.08   Q 279.97 641.24 279.90 641.75   Q 279.66 643.45 280.20 644.97   Q 283.22 653.52 286.96 663.23   C 291.73 675.60 289.87 690.39 279.08 698.85   C 274.35 702.56 267.70 702.71 264.64 696.82   Q 264.31 696.19 264.01 696.83   C 258.90 707.91 238.55 707.51 228.70 706.38   Q 228.04 706.31 228.04 706.97   L 227.94 719.32   Q 227.94 720.13 228.60 719.65   C 234.76 715.18 240.44 717.29 245.97 721.05   Q 254.32 726.73 262.81 736.32   Q 270.34 744.82 273.44 755.32   Q 273.73 756.31 273.99 755.31   Q 280.58 730.22 290.08 705.67   Q 315.84 639.12 353.25 580.42   Q 357.21 574.21 363.52 568.60   C 393.22 542.23 430.69 526.55 470.17 521.18   Q 489.11 518.60 506.77 517.76   Q 507.45 517.72 507.48 517.05   L 508.56 494.77   Q 508.59 494.19 508.04 494.00   Q 491.36 488.08 478.67 478.47   Q 463.87 467.27 460.81 450.26   Q 458.61 438.02 459.10 421.33   Q 459.12 420.61 458.45 420.86   C 446.37 425.33 432.80 420.29 428.70 407.83   C 425.35 397.65 428.92 384.26 439.93 380.65   A 0.42 0.41 71.1 0 0 440.19 380.11   Q 438.82 376.58 438.09 372.87   Q 435.06 357.38 435.75 341.44   A 0.87 0.87 0.0 0 0 434.90 340.53   Q 415.83 340.22 397.25 340.05   Q 282.83 339.03 161.94 338.41   A 0.70 0.69 0.4 0 1 161.25 337.72   L 159.36 96.45   A 1.32 1.32 0.0 0 1 160.85 95.13   L 161.24 95.19   Q 163.02 95.43 163.03 97.22   L 164.84 333.49   Q 164.85 334.48 165.84 334.49   L 435.50 337.16   A 0.29 0.29 0.0 0 0 435.74 336.72   C 429.90 327.17 432.74 314.50 440.18 306.77   Q 440.69 306.24 439.97 306.15   C 428.70 304.63 425.19 293.21 426.28 283.32   C 427.76 269.81 440.84 267.95 451.61 270.56   Q 452.72 270.83 451.90 270.04   Q 444.55 262.91 446.17 252.38   C 448.07 239.97 460.50 231.49 472.94 232.84   C 480.25 233.63 486.58 236.48 492.34 240.89   Q 492.51 241.02 492.65 240.86   L 492.65 240.86   Q 492.77 240.71 492.64 240.58   C 488.08 236.02 485.08 229.04 488.92 223.12   C 492.47 217.65 502.59 216.32 508.69 216.50   C 519.93 216.83 531.29 219.13 540.49 225.38   C 545.06 228.50 547.61 232.86 549.02 238.27   Q 549.06 238.42 549.20 238.38   L 549.21 238.38   Q 549.36 238.35 549.32 238.20   Q 548.46 234.62 548.20 230.81   C 547.22 215.94 560.43 212.47 572.18 214.90   Q 577.71 216.05 582.73 217.75   Q 582.99 217.84 582.99 217.56   L 584.17 97.14   Q 584.18 95.66 585.61 95.22   Q 585.97 95.12 586.32 95.20   Q 588.00 95.60 587.99 97.34   Q 587.40 155.02 586.76 215.15   Q 586.74 217.01 587.01 218.92   Q 587.09 219.49 587.61 219.73   Q 589.43 220.56 591.21 221.49   C 599.80 225.95 605.17 234.85 601.57 244.58   Q 601.51 244.76 601.68 244.83   L 601.68 244.83   Q 601.88 244.91 601.97 244.72   C 606.56 234.58 615.99 235.50 623.44 241.66   C 634.96 251.19 641.51 268.30 631.63 281.21   Q 631.13 281.87 631.93 281.66   C 639.82 279.67 643.16 286.63 643.65 293.06   C 644.71 307.13 643.12 326.49 632.90 336.16   Q 632.44 336.60 632.49 337.24   Q 634.28 358.43 630.59 380.38   Q 630.48 381.03 631.09 381.28   C 649.76 389.09 647.31 414.81 629.75 422.01   Q 619.92 426.04 610.12 420.67   A 0.25 0.25 0.0 0 0 609.75 420.87   Q 608.85 433.33 607.03 447.07   C 605.68 457.17 602.88 465.66 596.24 473.37   Q 587.91 483.05 576.13 488.79   A 0.67 0.64 -14.5 0 0 575.76 489.39   L 576.47 522.74   Q 576.51 524.51 574.76 524.25   L 574.22 524.17   Q 572.93 523.99 572.90 522.69   L 572.40 502.34   A 0.36 0.36 0.0 0 0 571.78 502.10   C 562.16 512.10 545.08 514.60 531.57 512.78   Q 520.81 511.33 512.18 505.13   Q 511.57 504.69 511.53 505.44   L 510.92 519.17   A 1.72 1.71 -1.0 0 1 509.34 520.80   L 493.24 522.07   Q 492.03 522.17 492.60 523.23   C 506.09 548.49 534.36 559.47 561.34 549.25   Q 580.79 541.88 590.28 522.38   A 0.56 0.55 16.7 0 0 589.85 521.59   L 580.71 520.50   Q 579.08 520.30 579.11 518.66   L 579.12 518.31   Q 579.15 517.06 580.39 517.13   C 584.24 517.32 588.22 517.81 592.06 518.53   Q 631.67 525.88 668.63 547.67   C 683.32 556.33 697.03 566.22 709.27 577.98   Q 712.22 580.82 714.19 583.90   Q 722.16 596.33 729.94 611.20   Q 747.66 645.09 763.59 688.08   Q 777.78 726.35 787.57 764.31   Q 793.50 787.32 795.82 809.23   C 798.50 834.52 786.16 854.05 762.85 863.44   Q 762.35 863.64 762.52 864.21   A 0.62 0.62 0.0 0 0 763.11 864.64   L 801.56 864.58   A 0.82 0.81 14.0 0 0 802.28 864.15   Q 803.29 862.21 804.16 860.15   Q 813.21 838.74 822.79 816.47   Q 828.63 802.89 833.35 789.14   C 838.25 774.88 845.98 761.40 858.19 752.76   C 861.10 750.71 864.48 749.38 867.86 748.29   Q 869.66 747.70 867.77 747.79   Q 863.96 747.95 859.88 748.46   Q 858.16 748.67 858.04 746.94   L 856.51 724.44   Q 856.45 723.54 855.61 723.24   C 831.26 714.35 821.78 695.47 819.82 671.03   Q 819.78 670.48 819.23 670.40   C 809.12 668.88 804.09 658.35 808.05 649.10   Q 811.45 641.14 821.47 640.29   Q 822.02 640.24 822.10 639.69   Q 823.04 633.55 824.21 627.46   C 824.93 623.74 826.87 619.07 826.13 615.33   Q 825.73 613.30 826.76 611.34   Q 827.11 610.69 826.50 610.26   Q 816.21 602.94 818.39 589.19   C 819.87 579.88 827.66 571.82 836.12 568.03   C 846.43 563.41 862.83 561.86 870.36 571.04   Q 870.79 571.57 871.01 570.93   Q 872.85 565.76 878.93 563.08   C 893.11 556.83 913.96 557.48 927.71 565.56   Q 934.31 569.45 936.23 576.66   A 1.96 1.96 0.0 0 0 937.55 578.03   C 939.28 578.58 940.97 579.01 942.35 580.29   Q 946.33 583.97 947.61 589.25   A 0.92 0.91 -86.5 0 0 948.19 589.91   Q 948.83 590.14 949.25 589.67   Q 949.55 589.33 949.53 588.86   Q 949.49 587.78 949.65 586.72   A 0.55 0.54 -85.2 0 1 950.20 586.25   L 951.76 586.27   A 0.50 0.49 -13.3 0 0 952.21 585.55   Q 951.61 584.41 950.67 583.63   Q 950.06 583.13 950.71 582.68   L 952.24 581.62   A 1.13 1.13 0.0 0 0 952.43 579.92   Q 951.77 579.21 950.91 578.90   A 1.50 1.42 81.8 0 1 950.20 578.34   L 948.40 575.65   A 0.98 0.98 0.0 0 0 946.74 575.70   L 945.92 577.11   Q 945.63 577.60 945.13 577.33   Q 942.89 576.11 940.16 576.92   A 0.87 0.87 0.0 0 1 939.08 575.82   Q 939.87 573.31 942.65 573.82   A 0.66 0.66 0.0 0 0 943.43 573.09   C 942.93 569.15 942.18 565.24 942.89 561.25   C 945.03 549.30 955.36 542.14 967.29 542.27   C 983.49 542.44 995.51 556.53 993.45 572.49   C 991.59 586.84 981.41 595.21 966.76 594.76   C 961.79 594.61 957.90 592.34 953.68 590.02   Q 953.55 589.94 953.48 590.08   L 953.47 590.09   Q 953.38 590.28 953.57 590.36   C 974.44 599.44 980.28 631.86 979.92 651.78   Q 979.86 655.59 979.76 659.24   Q 979.75 659.82 980.25 660.09   C 986.97 663.75 992.33 673.24 995.32 680.42   C 1003.54 700.17 1005.10 723.81 1001.88 745.35   Q 1001.57 747.48 999.24 747.60   Q 995.74 747.78 992.60 747.56   A 0.15 0.15 0.0 0 0 992.55 747.85   Q 995.97 748.69 999.42 749.57   C 1009.57 752.16 1010.42 760.80 1010.68 769.52   C 1011.62 800.80 1010.49 831.97 1009.25 863.67   A 0.66 0.65 1.2 0 0 1009.91 864.35   L 1024.00 864.41   Z   M 607.88 414.77   L 609.05 414.71   Q 609.57 414.68 609.92 415.06   C 611.15 416.41 612.36 417.95 614.08 418.66   C 629.60 425.06 645.68 408.38 638.75 393.09   C 636.11 387.27 630.24 383.37 623.80 383.60   C 617.13 383.83 614.90 387.85 612.56 393.23   Q 611.84 394.87 610.15 395.17   C 604.60 396.12 601.78 393.44 602.16 387.92   C 603.41 369.61 604.61 351.32 602.84 333.82   Q 602.06 326.10 599.54 318.56   A 0.25 0.25 0.0 0 0 599.11 318.48   Q 594.86 323.41 588.05 323.71   Q 571.48 324.42 564.51 310.51   C 563.90 309.28 563.69 307.90 563.18 306.64   Q 562.83 305.79 562.78 306.71   C 562.13 317.82 551.23 323.48 541.11 324.22   C 530.66 324.98 520.52 321.98 517.42 310.87   Q 517.12 309.79 516.70 310.83   C 511.54 323.47 500.89 330.20 487.02 328.53   Q 478.04 327.45 474.65 319.28   Q 474.39 318.67 474.03 319.22   Q 468.17 327.87 466.43 336.55   C 463.14 353.01 464.81 370.90 465.85 388.02   Q 466.08 391.67 464.91 393.56   C 462.70 397.15 456.92 396.65 454.62 393.30   C 451.72 389.06 451.84 382.73 444.85 383.23   C 439.64 383.61 435.72 386.65 433.34 391.11   C 428.77 399.64 431.08 410.32 439.27 415.80   Q 448.98 422.30 459.66 416.05   Q 460.13 415.77 460.65 415.95   Q 462.73 416.67 462.67 419.05   Q 462.34 433.44 463.56 444.89   Q 464.72 455.85 469.79 463.81   C 476.77 474.78 489.02 481.86 501.35 487.40   Q 528.20 499.44 556.35 492.31   C 572.38 488.26 587.97 479.82 596.80 466.21   Q 601.92 458.32 603.39 447.33   Q 605.44 431.98 606.39 416.24   A 1.57 1.57 0.0 0 1 607.88 414.77   Z   M 602.47 530.37   A 0.92 0.92 0.0 0 0 603.86 529.49   L 603.73 528.17   A 0.92 0.92 0.0 0 0 603.27 527.45   L 596.91 523.92   A 0.92 0.92 0.0 0 0 595.58 524.97   L 595.92 526.20   A 0.92 0.92 0.0 0 0 596.34 526.75   L 602.47 530.37   Z   M 489.7672 527.0006   A 1.08 1.08 0.0 0 0 488.4418 526.2416   L 479.4093 528.6957   A 1.08 1.08 0.0 0 0 478.6502 530.0211   L 478.8128 530.6194   A 1.08 1.08 0.0 0 0 480.1382 531.3784   L 489.1707 528.9243   A 1.08 1.08 0.0 0 0 489.9298 527.5989   L 489.7672 527.0006   Z   M 588.3027 538.2403   A 1.31 1.31 0.0 0 0 586.4511 538.1788   L 586.3781 538.2472   A 1.31 1.31 0.0 0 0 586.3167 540.0988   L 591.2773 545.3997   A 1.31 1.31 0.0 0 0 593.1289 545.4612   L 593.2019 545.3928   A 1.31 1.31 0.0 0 0 593.2633 543.5412   L 588.3027 538.2403   Z   M 499.3544 540.4918   A 1.12 1.12 0.0 0 0 497.7791 540.3263   L 490.9869 545.8265   A 1.12 1.12 0.0 0 0 490.8213 547.4018   L 491.0856 547.7282   A 1.12 1.12 0.0 0 0 492.6609 547.8937   L 499.4531 542.3935   A 1.12 1.12 0.0 0 0 499.6187 540.8182   L 499.3544 540.4918   Z   M 573.0108 550.5299   A 1.35 1.35 0.0 0 0 571.1567 550.0745   L 571.0712 550.1263   A 1.35 1.35 0.0 0 0 570.6158 551.9804   L 574.4492 558.3101   A 1.35 1.35 0.0 0 0 576.3033 558.7655   L 576.3888 558.7137   A 1.35 1.35 0.0 0 0 576.8442 556.8596   L 573.0108 550.5299   Z   M 515.1096 553.5064   A 1.34 1.34 0.0 0 0 514.4181 551.7420   L 514.3265 551.7020   A 1.34 1.34 0.0 0 0 512.5621 552.3934   L 508.3504 562.0336   A 1.34 1.34 0.0 0 0 509.0419 563.7980   L 509.1335 563.8380   A 1.34 1.34 0.0 0 0 510.8979 563.1466   L 515.1096 553.5064   Z   M 552.9654 556.3164   A 1.24 1.24 0.0 0 0 551.3033 555.7571   L 551.0346 555.8905   A 1.24 1.24 0.0 0 0 550.4753 557.5525   L 554.0946 564.8436   A 1.24 1.24 0.0 0 0 555.7567 565.4029   L 556.0254 565.2695   A 1.24 1.24 0.0 0 0 556.5847 563.6075   L 552.9654 556.3164   Z   M 533.3507 558.0292   A 1.37 1.37 0.0 0 0 532.2984 556.4024   L 532.2006 556.3815   A 1.37 1.37 0.0 0 0 530.5738 557.4339   L 528.4693 567.2508   A 1.37 1.37 0.0 0 0 529.5216 568.8776   L 529.6194 568.8985   A 1.37 1.37 0.0 0 0 531.2462 567.8461   L 533.3507 558.0292   Z   M 182.89 618.71   C 179.26 609.46 166.82 609.61 161.05 616.49   Q 154.30 624.53 158.33 634.32   C 162.61 644.70 177.89 647.63 184.38 638.51   Q 184.76 637.99 185.39 637.88   C 188.67 637.30 192.45 641.10 194.43 643.41   C 204.80 655.47 211.30 672.12 201.48 685.97   C 197.13 692.11 188.30 696.72 180.92 698.33   A 0.70 0.69 87.7 0 0 180.37 698.93   Q 179.42 706.52 177.97 715.56   Q 177.00 721.59 173.33 723.75   Q 172.76 724.09 173.07 724.66   Q 178.90 735.51 182.80 741.44   Q 187.13 748.02 192.65 751.85   C 208.83 763.04 221.35 735.31 225.59 724.48   Q 225.78 724.00 225.59 723.52   C 225.28 722.71 224.82 721.98 224.79 721.08   Q 224.35 709.40 225.31 697.18   A 1.21 1.20 9.8 0 0 224.41 695.92   Q 214.20 693.23 206.83 686.56   C 204.96 684.86 204.75 681.21 208.16 681.39   C 228.63 682.47 248.16 681.19 262.65 665.09   Q 274.75 651.63 278.19 634.85   C 280.72 622.48 281.57 607.69 278.91 594.88   A 0.47 0.47 0.0 0 0 278.23 594.56   C 267.22 600.23 254.38 590.39 249.64 580.70   Q 249.39 580.17 248.88 580.46   Q 245.29 582.55 240.82 582.60   A 1.23 1.22 -71.3 0 0 239.84 583.09   C 239.25 583.88 238.97 584.92 238.41 585.75   Q 232.80 594.08 223.13 596.83   Q 205.34 601.88 195.58 587.40   Q 194.80 586.24 194.86 587.64   C 195.33 598.18 196.16 610.92 187.72 618.75   Q 185.92 620.43 183.66 619.49   A 1.40 1.37 89.8 0 1 182.89 618.71   Z   M 371.8908 604.8419   A 1.21 1.21 0.0 0 0 370.2134 604.5037   L 369.6636 604.8689   A 1.21 1.21 0.0 0 0 369.3254 606.5464   L 393.9292 643.5781   A 1.21 1.21 0.0 0 0 395.6066 643.9163   L 396.1564 643.5511   A 1.21 1.21 0.0 0 0 396.4946 641.8736   L 371.8908 604.8419   Z   M 700.1588 614.7886   A 1.13 1.13 0.0 0 0 700.0306 613.1957   L 699.3452 612.6123   A 1.13 1.13 0.0 0 0 697.7523 612.7405   L 671.5812 643.4914   A 1.13 1.13 0.0 0 0 671.7094 645.0843   L 672.3948 645.6677   A 1.13 1.13 0.0 0 0 673.9877 645.5395   L 700.1588 614.7886   Z   M 907.87 747.32   Q 907.73 743.08 908.14 738.16   Q 910.48 709.83 913.16 680.07   Q 913.26 679.04 914.02 678.32   A 1.50 1.49 47.6 0 1 916.16 678.42   C 925.06 688.45 940.20 684.02 943.66 671.76   C 945.54 665.13 943.44 658.71 938.27 654.26   Q 935.08 651.51 929.54 651.07   A 1.00 0.99 -71.9 0 0 928.61 651.55   C 926.00 655.76 923.08 658.23 917.78 658.65   C 909.35 659.31 902.83 653.21 903.99 644.70   Q 904.95 637.60 911.63 635.77   A 0.65 0.64 76.1 0 0 912.09 635.00   L 908.23 618.04   A 0.31 0.30 -28.5 0 0 907.72 617.89   C 899.39 626.12 886.65 630.62 875.28 627.66   Q 866.05 625.25 862.41 616.77   Q 862.11 616.06 861.70 616.72   C 855.21 627.25 839.48 629.36 829.74 622.07   Q 829.05 621.55 828.88 622.40   C 825.73 638.37 823.11 654.22 823.49 670.46   Q 823.66 678.04 826.15 687.20   C 829.75 700.46 838.09 711.00 850.39 717.08   C 866.83 725.21 884.17 726.20 902.37 722.24   C 903.74 721.94 904.83 722.63 905.14 724.00   A 1.59 1.58 63.3 0 1 904.63 725.55   Q 893.70 735.05 882.24 741.33   A 1.00 0.98 78.8 0 0 881.73 742.11   Q 881.28 747.77 882.22 753.47   C 883.52 761.33 888.64 769.26 897.59 767.40   C 906.74 765.51 914.03 756.68 917.65 748.32   A 0.25 0.24 10.3 0 0 917.41 747.98   L 909.13 748.46   A 1.19 1.19 0.0 0 1 907.87 747.32   Z   M 283.88 618.26   Q 283.54 626.46 282.02 633.88   Q 281.80 634.96 281.85 636.07   A 0.43 0.43 0.0 0 0 282.51 636.41   Q 288.09 632.66 288.65 626.28   Q 288.88 623.55 287.46 621.21   Q 286.46 619.57 285.43 617.86   Q 283.99 615.49 283.88 618.26   Z   M 819.95 666.63   L 821.35 644.27   A 0.12 0.12 0.0 0 0 821.24 644.14   L 821.24 644.14   A 11.25 10.06 -86.4 0 0 810.49 654.74   L 810.49 654.88   A 11.25 10.06 -86.4 0 0 819.82 666.74   L 819.82 666.74   A 0.12 0.12 0.0 0 0 819.95 666.63   Z   M 576.07 729.27   A 1.34 1.34 0.0 0 1 577.23 730.54   L 583.07 864.07   Q 583.09 864.54 583.57 864.54   L 677.63 864.58   A 0.35 0.35 0.0 0 0 677.98 864.25   Q 681.82 807.62 684.46 753.51   Q 685.63 729.49 686.08 701.75   Q 686.36 684.71 684.74 668.87   C 684.48 666.28 683.24 661.85 680.10 661.44   Q 664.91 659.43 647.71 658.62   Q 531.81 653.16 425.07 658.25   Q 411.64 658.89 396.26 660.49   C 391.51 660.98 388.07 661.39 387.18 666.96   Q 385.54 677.25 385.38 688.73   Q 384.87 724.14 386.68 760.79   Q 387.21 771.67 387.53 780.75   Q 388.70 813.91 390.65 849.00   Q 390.98 854.92 391.01 861.38   A 1.18 1.16 81.7 0 1 390.19 862.50   Q 389.26 862.78 388.33 863.07   Q 387.99 863.18 387.77 863.46   Q 387.54 863.74 387.66 864.05   Q 387.82 864.50 388.30 864.50   L 579.04 864.42   Q 579.63 864.42 579.60 863.83   L 573.62 730.59   A 1.26 1.26 0.0 0 1 574.63 729.30   Q 575.31 729.17 576.07 729.27   Z   M 143.26 773.82   A 1.66 1.66 0.0 0 1 144.94 775.27   L 156.18 863.25   A 0.37 0.35 86.3 0 0 156.53 863.57   L 253.71 863.78   A 0.19 0.18 84.8 0 0 253.89 863.56   L 236.64 781.26   Q 236.28 779.52 237.96 778.96   Q 238.23 778.88 238.49 778.92   Q 239.86 779.14 240.14 780.49   L 257.39 863.22   A 0.79 0.78 -5.9 0 0 258.16 863.84   Q 271.43 863.80 287.01 863.77   Q 289.35 863.76 291.34 863.13   A 0.93 0.92 -37.1 0 0 291.57 861.48   C 273.88 849.80 267.29 830.59 266.74 809.96   Q 266.17 788.47 271.42 765.92   Q 271.93 763.75 271.47 761.61   Q 270.14 755.35 267.96 750.57   C 263.76 741.39 255.40 732.95 247.16 726.29   C 240.73 721.10 232.76 716.39 228.43 727.36   C 225.83 733.93 222.66 740.29 218.67 746.13   C 212.96 754.48 203.37 761.30 192.97 756.22   C 183.19 751.45 176.52 738.54 171.66 729.29   C 168.93 724.09 163.62 720.20 157.64 721.28   Q 141.34 724.23 128.12 736.08   Q 115.97 746.98 105.30 762.32   C 102.01 767.05 98.27 771.96 96.49 777.51   Q 94.05 785.07 92.33 794.56   C 88.40 816.24 86.53 840.68 90.69 862.34   Q 90.90 863.40 91.98 863.41   L 152.22 863.53   A 0.45 0.45 0.0 0 0 152.67 863.02   L 141.36 776.01   Q 141.14 774.32 142.80 773.89   Q 143.03 773.83 143.26 773.82   Z   M 112.59 746.50   A 0.26 0.26 0.0 0 0 112.41 746.08   Q 96.62 745.22 79.94 747.44   C 65.67 749.35 53.04 755.65 56.65 772.88   Q 66.03 817.68 75.47 862.73   Q 75.61 863.40 76.30 863.40   L 86.73 863.41   A 0.49 0.48 83.4 0 0 87.20 862.81   Q 85.92 857.26 85.51 851.71   Q 83.29 821.69 89.10 791.92   C 90.97 782.38 92.84 774.42 97.77 766.69   Q 104.47 756.18 112.59 746.50   Z   M 989.92 863.72   A 0.89 0.88 -5.1 0 0 990.79 864.44   L 1004.96 864.42   A 0.58 0.58 0.0 0 0 1005.54 863.87   Q 1008.11 811.11 1007.39 771.19   Q 1007.26 763.66 1005.69 758.90   Q 1004.21 754.39 997.94 752.62   C 987.82 749.75 977.25 748.43 966.10 748.37   Q 954.31 748.32 943.35 748.10   Q 942.51 748.08 943.23 748.51   Q 952.25 753.87 958.95 762.86   Q 969.05 776.41 975.24 790.05   Q 977.09 794.13 977.81 798.14   Q 983.30 828.60 989.92 863.72   Z   M 931.68 777.69   A 1.03 0.89 -59.2 0 1 931.74 778.03   L 930.09 863.79   Q 930.07 864.51 930.79 864.51   L 985.79 864.37   A 0.48 0.48 0.0 0 0 986.26 863.80   Q 980.30 831.91 974.59 800.61   C 973.70 795.72 971.87 791.49 969.70 787.14   Q 962.04 771.78 952.16 760.29   Q 946.30 753.46 937.28 749.57   C 932.44 747.48 927.60 748.33 922.57 748.41   Q 922.00 748.42 921.79 748.94   C 918.26 757.39 911.21 766.46 902.47 769.67   C 886.66 775.47 879.42 763.32 878.32 749.81   Q 878.27 749.24 877.71 749.33   Q 866.70 751.01 859.90 756.12   C 847.81 765.20 840.69 778.57 835.87 793.01   Q 833.16 801.11 829.99 808.74   Q 820.75 831.01 810.78 853.79   Q 808.58 858.80 806.67 864.09   Q 806.50 864.57 807.00 864.57   L 835.80 864.66   A 0.62 0.62 0.0 0 0 836.41 864.16   L 852.13 789.63   Q 852.52 787.76 854.29 788.48   L 854.78 788.68   Q 855.97 789.16 855.70 790.42   L 840.12 863.91   A 0.58 0.57 -83.9 0 0 840.68 864.61   L 925.82 864.52   Q 926.66 864.52 926.67 863.68   L 928.15 777.87   Q 928.18 776.14 929.91 775.96   Q 931.01 775.85 931.68 777.69   Z   M 368.54 776.23   C 364.27 775.16 359.69 773.49 355.85 772.65   Q 341.22 769.44 326.50 770.99   Q 325.75 771.07 325.82 771.81   L 325.93 773.00   Q 326.01 773.85 326.86 773.77   Q 346.43 771.95 365.30 778.19   Q 372.50 780.57 379.53 782.80   C 381.01 783.27 382.00 784.21 383.41 784.78   A 0.58 0.58 0.0 0 0 384.20 784.22   Q 383.95 776.81 383.47 769.40   Q 383.45 769.20 383.25 769.20   L 383.25 769.20   Q 383.04 769.20 383.02 769.41   Q 382.65 775.57 381.26 781.05   Q 380.64 783.51 379.51 781.24   C 378.09 778.41 373.95 775.43 371.38 773.56   Q 360.14 765.36 348.33 756.87   Q 347.39 756.20 346.59 757.03   L 346.13 757.52   Q 345.24 758.45 346.29 759.18   Q 357.73 767.09 368.77 775.76   Q 369.76 776.53 368.54 776.23   Z   M 694.03 780.10   Q 692.76 780.20 693.91 779.64   C 706.88 773.33 719.66 770.73 734.00 768.86   Q 735.01 768.73 734.88 767.71   L 734.77 766.80   Q 734.64 765.84 733.68 765.94   C 717.92 767.60 702.33 771.22 688.29 779.43   Q 687.11 780.11 686.77 781.40   A 1.64 1.64 0.0 0 0 688.56 783.46   C 701.14 781.86 713.27 782.18 724.40 788.48   Q 725.36 789.02 726.01 788.15   Q 726.50 787.50 726.13 786.79   Q 725.55 785.68 724.43 785.09   C 715.09 780.20 704.80 779.31 694.03 780.10   Z"/>
<ellipse cx="0.00" cy="0.00" transform="translate(503.58,343.48) rotate(10.0)" rx="13.68" ry="7.80"/>
<ellipse cx="0.00" cy="0.00" transform="translate(561.63,345.12) rotate(-6.6)" rx="13.93" ry="7.97"/>
<path d="   M 534.87 415.33   Q 535.88 415.37 535.85 414.37   L 534.65 365.99   A 1.20 1.19 88.1 0 1 535.79 364.76   L 536.67 364.71   Q 538.14 364.64 538.18 366.11   Q 538.97 391.93 539.31 414.77   Q 539.33 416.25 539.17 417.70   A 1.15 1.15 0.0 0 1 538.03 418.71   L 527.23 418.68   Q 525.79 418.68 525.96 417.25   L 526.02 416.81   Q 526.23 415.02 528.03 415.09   L 534.87 415.33   Z"/>
<rect x="-5.13" y="-7.12" transform="translate(502.19,379.25) rotate(1.2)" width="10.26" height="14.24" rx="4.75"/>
<rect x="-5.17" y="-7.12" transform="translate(565.37,379.98) rotate(0.9)" width="10.34" height="14.24" rx="4.79"/>
<rect x="-1.32" y="-4.36" transform="translate(498.78,404.87) rotate(-27.3)" width="2.64" height="8.72" rx="1.27"/>
<path d="   M 493.44 401.65   C 494.84 403.43 496.23 405.99 496.34 408.34   Q 496.38 409.13 495.60 409.05   C 494.87 408.98 494.01 408.74 493.64 408.05   Q 491.83 404.64 491.96 402.11   Q 492.08 399.92 493.44 401.65   Z"/>
<rect x="-1.38" y="-4.37" transform="translate(488.93,405.38) rotate(-29.3)" width="2.76" height="8.74" rx="1.21"/>
<path d="   M 575.53 402.87   A 0.50 0.50 0.0 0 1 575.74 402.19   L 576.01 402.05   A 2.52 1.90 62.6 0 1 578.85 403.42   L 580.72 407.02   A 2.52 1.90 62.6 0 1 580.20 410.13   L 579.93 410.27   A 0.50 0.50 0.0 0 1 579.26 410.06   L 575.53 402.87   Z"/>
<path d="   M 575.30 409.99   Q 575.02 410.04 574.73 410.04   Q 573.51 410.05 572.95 408.97   Q 571.76 406.67 571.07 403.79   Q 570.93 403.20 571.15 402.65   A 0.63 0.63 0.0 0 1 572.20 402.47   Q 574.88 405.37 576.04 408.76   Q 576.39 409.80 575.30 409.99   Z"/>
<path d="   M 568.63 404.23   C 569.35 405.86 571.12 407.96 570.91 409.75   Q 570.72 411.37 569.48 410.32   Q 566.87 408.11 565.72 404.21   A 1.10 1.10 0.0 0 1 566.97 402.82   Q 568.09 403.01 568.63 404.23   Z"/>
<rect x="-15.68" y="-1.71" transform="translate(531.35,439.34) rotate(0.2)" width="31.36" height="3.42" rx="1.26"/>
<rect x="-6.82" y="-0.97" transform="translate(221.19,601.38) rotate(-5.9)" width="13.64" height="1.94" rx="0.94"/>
<rect x="-7.03" y="-0.99" transform="translate(260.82,601.88) rotate(8.1)" width="14.06" height="1.98" rx="0.84"/>
<path d="   M 247.87 626.73   A 0.98 0.98 0.0 0 0 247.45 625.16   Q 244.04 624.00 240.68 622.81   Q 238.11 621.90 238.07 619.41   Q 237.99 615.01 238.45 610.43   A 0.40 0.40 0.0 0 1 238.99 610.10   L 239.43 610.27   A 1.27 1.27 0.0 0 1 240.25 611.46   L 240.25 618.57   A 2.96 2.96 0.0 0 0 242.26 621.37   L 249.74 623.90   A 1.51 1.50 -69.7 0 1 250.65 625.89   Q 249.62 628.44 247.75 630.48   Q 246.88 631.41 245.54 630.93   Q 245.36 630.86 245.26 630.70   Q 244.89 630.15 245.32 629.65   L 247.87 626.73   Z"/>
<rect x="-4.00" y="-4.61" transform="translate(222.77,615.37) rotate(-1.2)" width="8.00" height="9.22" rx="3.66"/>
<ellipse cx="0.00" cy="0.00" transform="translate(260.04,615.65) rotate(91.2)" rx="5.04" ry="4.21"/>
<rect x="-0.90" y="-8.17" transform="translate(215.80,631.19) rotate(-16.0)" width="1.80" height="16.34" rx="0.87"/>
<rect x="-0.84" y="-8.09" transform="translate(205.87,631.37) rotate(-17.4)" width="1.68" height="16.18" rx="0.82"/>
<path d="   M 212.42 639.59   A 0.30 0.30 0.0 0 1 212.05 639.39   L 208.55 627.89   A 4.35 0.76 73.1 0 1 208.02 623.51   L 208.42 623.39   A 4.35 0.76 73.1 0 1 210.41 627.33   L 213.90 638.82   A 0.30 0.30 0.0 0 1 213.70 639.20   L 212.42 639.59   Z"/>
<rect x="-0.91" y="-7.24" transform="translate(263.14,637.07) rotate(-8.2)" width="1.82" height="14.48" rx="0.88"/>
<rect x="-1.06" y="-7.06" transform="translate(272.50,636.72) rotate(-8.1)" width="2.12" height="14.12" rx="0.88"/>
<rect x="-0.85" y="-6.93" transform="translate(267.85,636.93) rotate(-9.5)" width="1.70" height="13.86" rx="0.72"/>
<path d="   M 242.40 639.23   A 2.94 2.94 0.0 0 1 245.44 642.07   L 245.44 642.21   A 13.46 12.44 88.0 0 1 233.48 656.09   L 233.36 656.10   A 13.46 12.44 88.0 0 1 220.46 643.08   L 220.45 642.94   A 2.94 2.94 0.0 0 1 223.29 639.90   L 242.40 639.23   Z"/>
<ellipse cx="0.00" cy="0.00" transform="translate(837.68,644.97) rotate(98.5)" rx="5.29" ry="4.23"/>
<ellipse cx="0.00" cy="0.00" transform="translate(874.97,647.06) rotate(96.7)" rx="5.54" ry="4.42"/>
<path d="   M 844.08 659.30   Q 842.65 659.75 844.08 660.20   Q 844.99 660.49 845.64 661.16   A 1.83 1.83 0.0 0 1 845.64 663.70   Q 844.34 665.05 843.03 663.91   Q 840.51 661.72 838.21 659.40   A 1.29 1.29 0.0 0 1 838.79 657.25   Q 843.61 655.94 848.50 654.26   C 853.00 652.71 852.57 647.11 852.66 642.62   Q 852.68 641.84 853.45 641.86   L 855.23 641.90   A 0.96 0.95 1.2 0 1 856.16 642.86   Q 856.12 646.42 855.66 650.32   C 854.81 657.38 849.42 657.62 844.08 659.30   Z"/>
<path d="   M 829.68 665.23   L 829.64 662.48   Q 829.63 662.08 829.92 661.81   Q 830.14 661.61 830.32 661.68   Q 830.75 661.85 830.82 662.32   Q 831.40 666.16 831.15 670.33   Q 831.12 670.86 830.61 671.00   Q 830.47 671.04 830.32 671.01   Q 830.16 670.97 830.12 670.80   L 829.19 666.23   A 0.25 0.22 52.6 0 1 829.20 666.08   Q 829.30 665.86 829.48 665.70   Q 829.69 665.51 829.68 665.23   Z"/>
<path d="   M 834.02 670.70   L 832.68 662.28   Q 832.61 661.84 833.05 661.82   Q 833.19 661.81 833.32 661.86   Q 833.51 661.93 833.60 662.11   Q 835.53 665.87 834.98 670.30   A 0.73 0.72 68.9 0 1 834.83 670.64   Q 834.53 671.01 834.28 670.97   Q 834.05 670.93 834.02 670.70   Z"/>
<ellipse cx="0.00" cy="0.00" transform="translate(873.77,666.57) rotate(72.3)" rx="4.59" ry="1.02"/>
<rect x="-0.76" y="-4.43" transform="translate(877.29,666.56) rotate(-14.6)" width="1.52" height="8.86" rx="0.74"/>
<path d="   M 826.54 671.13   A 0.25 0.25 0.0 0 1 826.27 670.89   L 826.02 667.18   A 4.65 0.59 86.2 0 1 826.30 662.50   L 826.68 662.48   A 4.65 0.59 86.2 0 1 827.58 667.08   L 827.83 670.79   A 0.25 0.25 0.0 0 1 827.59 671.06   L 826.54 671.13   Z"/>
<path d="   M 870.38 671.35   A 0.19 0.19 0.0 0 1 870.14 671.21   L 870.12 671.13   A 8.26 0.71 74.8 0 1 868.64 662.97   L 869.08 662.85   A 8.26 0.71 74.8 0 1 871.93 670.63   L 871.96 670.72   A 0.19 0.19 0.0 0 1 871.82 670.95   L 870.38 671.35   Z"/>
<path d="   M 864.62 674.76   A 3.68 3.68 0.0 0 1 867.97 678.75   L 867.95 678.94   A 15.65 13.42 -85.0 0 1 853.22 693.36   L 853.10 693.35   A 15.65 13.42 -85.0 0 1 841.09 676.59   L 841.11 676.40   A 3.68 3.68 0.0 0 1 845.10 673.05   L 864.62 674.76   Z"/>
<rect x="-1.73" y="-67.30" transform="translate(492.15,796.47) rotate(1.9)" width="3.46" height="134.60" rx="1.23"/>
<path d="   M 505.13 735.12   A 0.33 0.32 89.1 0 0 504.81 735.46   L 505.16 747.48   Q 505.19 748.66 504.02 748.68   L 502.98 748.70   Q 501.56 748.72 501.53 747.30   L 501.31 735.06   Q 501.25 731.69 504.62 731.69   L 567.36 731.69   Q 570.53 731.69 570.61 734.86   L 570.93 747.31   Q 570.96 748.67 569.61 748.76   L 569.09 748.80   Q 567.52 748.91 567.49 747.34   L 567.21 736.22   Q 567.18 735.14 566.10 735.14   L 505.13 735.12   Z"/>
<path d="   M 1024.00 877.20   L 1024.00 880.62   Q 512.00 880.96 0.00 878.69   L 0.00 875.67   Q 434.41 877.35 643.25 877.24   Q 833.62 877.14 1024.00 877.20   Z"/>
</g>
</g></svg>