<svg xmlns="http://www.w3.org/2000/svg" viewBox="-2 -2 1028 1028" version="1.1" width="200px" height="200px">
<g id="Parent-Group"><g id="Group-rgba(0,0,0,0)" fill="rgba(0,0,0,0)">
<path fill="rgba(0,0,0,0)" opacity="1.00" d=" M 0.00 0.00 L 1024.00 0.00 L 1024.00 1024.00 L 818.21 1024.00 C 813.45 951.94 806.73 879.82 792.71 808.91 C 786.94 780.96 780.24 753.19 771.90 725.90 C 762.72 697.34 751.95 669.11 737.13 642.95 C 728.06 627.18 717.67 612.03 704.85 599.04 C 694.84 588.97 683.95 579.66 671.83 572.21 C 656.74 563.08 638.94 556.52 621.08 559.34 C 618.07 530.89 614.70 502.47 611.37 474.05 C 622.63 462.47 632.44 449.19 638.43 434.09 C 650.21 437.00 662.82 433.32 672.60 426.52 C 690.39 413.46 698.29 389.38 693.55 368.07 C 703.72 357.17 711.68 344.27 717.50 330.57 C 727.18 307.15 729.04 281.05 725.54 256.12 C 722.68 235.64 714.11 215.48 699.03 201.02 C 683.45 185.44 661.82 177.68 640.30 175.01 C 632.62 160.01 620.26 147.65 605.60 139.42 C 587.84 129.26 567.24 125.03 546.94 124.44 C 532.12 124.35 517.24 126.03 502.95 130.04 C 489.31 133.84 476.54 140.17 464.32 147.22 C 453.96 153.10 444.14 160.66 432.28 163.21 C 415.10 167.52 399.02 176.87 387.57 190.49 C 375.98 203.87 368.68 221.22 368.68 239.04 C 368.07 259.89 380.85 280.97 400.74 288.22 C 401.81 298.43 406.89 307.93 414.01 315.20 C 409.99 325.39 406.41 335.81 404.85 346.69 C 396.98 352.79 391.03 361.32 388.75 371.08 C 384.53 389.02 388.09 409.42 400.65 423.35 C 403.67 427.35 408.77 429.63 410.48 434.59 C 420.49 457.19 437.26 477.18 459.15 489.04 C 467.49 493.79 476.69 496.73 485.94 499.15 C 484.78 515.32 483.64 531.48 482.35 547.63 C 466.04 551.15 449.46 555.25 435.12 564.11 C 420.36 573.20 407.56 585.10 395.62 597.58 C 383.59 610.28 373.62 624.72 364.58 639.65 C 347.96 667.06 332.66 695.28 318.92 724.23 C 317.09 711.19 310.60 698.86 300.28 690.57 C 297.95 679.11 298.01 667.24 296.30 655.67 C 294.81 650.79 289.59 648.36 284.98 647.31 C 287.80 641.25 289.72 634.68 289.86 627.97 C 289.77 621.23 288.05 614.67 287.13 608.02 C 285.84 600.75 285.46 592.96 281.36 586.56 C 279.61 583.47 276.91 581.01 275.26 577.88 C 272.59 568.53 272.20 558.68 269.70 549.31 C 267.50 541.73 257.85 538.63 251.15 542.13 C 251.23 539.72 251.26 537.31 251.24 534.91 C 255.49 535.37 259.97 535.00 263.73 532.80 C 269.14 529.61 272.55 523.31 272.36 517.05 C 272.41 505.71 272.43 494.37 272.37 483.03 C 272.44 476.05 267.41 469.60 260.90 467.39 C 258.07 466.40 255.05 466.46 252.11 466.43 C 252.70 460.44 251.82 454.41 250.34 448.62 C 249.26 444.34 246.49 440.38 242.41 438.52 C 237.64 436.03 231.72 438.71 228.82 442.84 C 223.89 449.60 222.58 458.25 222.26 466.41 C 217.16 466.70 211.78 465.54 206.91 467.55 C 201.14 469.87 196.91 475.76 196.83 482.02 C 196.58 494.33 196.75 506.64 196.59 518.95 C 197.14 528.74 206.76 536.39 216.42 535.34 C 216.42 537.53 216.45 539.72 216.49 541.92 C 208.15 541.07 199.75 541.43 191.39 541.64 C 187.62 542.62 184.48 545.22 181.52 547.66 C 173.91 554.63 167.08 562.93 163.87 572.88 C 160.21 583.49 160.59 594.95 162.50 605.86 C 164.50 620.25 165.95 634.72 168.07 649.10 C 169.90 660.28 175.84 670.40 183.22 678.84 C 180.46 680.68 177.01 682.62 176.22 686.10 C 177.48 698.31 179.17 710.49 181.11 722.62 C 173.88 729.33 170.87 739.39 170.79 749.03 C 170.03 765.10 176.06 780.27 180.74 795.34 C 193.40 835.03 210.68 873.27 232.39 908.84 C 237.78 917.46 243.16 926.30 250.75 933.19 C 261.95 943.96 277.47 948.76 292.64 950.15 C 306.69 951.48 321.62 951.74 334.59 945.37 C 333.09 971.55 332.22 997.78 332.04 1024.00 L 0.00 1024.00 L 0.00 0.00 M 717.29 121.36 C 714.76 122.29 713.58 124.99 712.12 127.05 C 706.47 136.45 700.48 146.03 698.30 156.93 C 697.72 159.75 701.18 162.76 703.84 161.42 C 706.46 159.91 706.31 156.48 707.19 153.96 C 710.30 144.31 716.08 135.86 721.34 127.30 C 723.15 124.60 720.59 120.30 717.29 121.36 M 750.19 143.23 C 743.74 145.52 737.49 148.34 731.41 151.45 C 725.32 154.81 719.00 158.04 714.09 163.08 C 711.31 165.97 707.85 168.25 705.51 171.55 C 703.61 174.50 707.72 178.37 710.63 176.67 C 713.04 175.08 714.92 172.84 717.05 170.92 C 727.24 161.14 740.46 155.46 753.41 150.34 C 754.78 149.80 756.01 148.57 755.98 147.00 C 756.48 143.96 752.71 141.99 750.19 143.23 M 718.44 181.62 C 716.30 182.17 714.05 182.99 712.65 184.77 C 711.01 187.83 714.96 191.60 718.02 189.93 C 726.31 186.66 735.41 188.77 743.10 192.60 C 745.71 193.68 748.53 190.60 747.88 188.02 C 747.19 186.16 745.31 185.15 743.64 184.32 C 735.78 180.86 726.85 179.62 718.44 181.62 Z"/>
<path fill="rgba(0,0,0,0)" opacity="1.00" d=" M 583.33 262.25 C 589.27 257.13 594.07 250.92 599.34 245.18 C 595.02 265.48 595.03 286.87 600.41 306.97 C 603.02 316.68 607.30 325.84 612.32 334.53 C 613.60 336.13 612.62 338.11 612.32 339.88 C 610.67 347.47 610.38 355.80 613.98 362.90 C 616.32 367.53 620.55 370.81 625.08 373.14 C 627.09 370.09 627.58 366.41 629.06 363.13 C 632.39 355.26 638.75 348.49 646.86 345.53 C 654.44 342.48 663.38 343.52 670.32 347.75 C 677.14 351.78 682.06 358.57 684.55 366.03 C 689.69 380.83 686.46 397.86 677.38 410.46 C 669.03 422.63 653.17 430.10 638.53 426.33 C 636.47 425.88 633.24 424.53 632.40 427.43 C 627.63 441.30 619.17 453.59 609.46 464.45 C 608.05 466.08 606.13 467.11 604.51 468.50 C 602.68 470.65 603.28 473.63 603.69 476.17 C 607.01 504.81 610.43 533.43 613.59 562.09 C 613.07 565.09 610.87 567.60 609.21 570.11 C 600.02 581.51 587.83 590.13 574.96 596.92 C 560.23 604.39 543.73 609.09 527.10 608.21 C 512.89 607.56 498.75 601.57 489.11 590.98 C 486.94 588.88 487.18 585.75 487.61 583.04 C 489.06 564.42 490.45 545.80 491.83 527.18 C 512.20 521.98 530.94 511.34 546.82 497.69 C 549.03 496.08 547.24 492.35 544.84 492.20 C 541.81 492.73 538.94 493.92 535.90 494.41 C 528.36 495.73 520.67 495.08 513.06 494.94 C 496.57 493.85 479.81 490.96 465.01 483.24 C 448.25 474.44 434.23 460.71 424.61 444.44 C 410.45 421.30 404.41 393.55 406.73 366.59 C 407.39 363.18 410.30 360.90 411.70 357.85 C 412.49 348.78 413.92 339.72 416.82 331.07 C 418.21 326.29 420.41 321.81 422.01 317.11 C 422.93 314.95 421.31 313.02 420.51 311.15 C 421.83 311.49 423.27 312.40 424.63 311.62 C 427.40 309.72 429.60 306.92 432.84 305.77 C 438.18 303.90 444.11 304.44 449.15 306.93 C 452.02 308.63 455.61 304.16 453.26 301.73 C 449.66 298.00 443.89 297.63 439.00 297.61 C 431.09 297.37 423.77 301.72 418.86 307.69 C 418.81 301.95 421.22 296.58 423.08 291.26 C 426.75 290.31 430.27 288.59 433.98 288.03 C 446.89 294.85 462.64 293.66 475.92 288.52 C 477.52 288.06 479.14 286.89 480.86 287.52 C 516.37 296.92 556.31 287.20 583.33 262.25 M 546.44 298.58 C 543.85 299.43 541.09 300.26 539.07 302.19 C 536.91 304.27 539.41 307.67 541.94 307.77 C 546.79 306.13 551.89 303.77 557.11 305.21 C 560.33 305.76 563.06 307.57 565.76 309.28 C 568.33 311.28 571.86 307.68 570.99 305.00 C 569.58 302.37 566.78 300.92 564.13 299.81 C 558.60 297.43 552.24 296.81 546.44 298.58 M 477.95 323.08 C 477.65 333.37 478.15 343.71 478.37 354.01 C 477.85 355.45 476.62 356.45 475.69 357.61 C 468.98 365.27 462.08 372.76 455.15 380.21 C 452.77 382.45 455.40 385.50 456.15 387.88 C 457.82 390.87 458.29 395.49 462.05 396.60 C 471.61 395.15 481.35 396.04 490.95 396.63 C 494.55 396.02 495.32 390.74 491.77 389.44 C 482.90 388.35 473.92 388.28 464.99 388.55 C 463.23 387.35 463.05 384.93 462.60 383.03 C 463.56 382.23 464.56 381.46 465.39 380.52 C 471.78 373.22 478.50 366.21 484.75 358.78 C 486.38 357.28 486.36 355.03 486.14 352.99 C 485.26 342.97 485.60 332.88 485.07 322.85 C 484.65 318.96 478.33 319.29 477.95 323.08 M 436.42 339.79 C 430.86 343.86 430.28 352.54 433.73 358.15 C 435.86 361.77 440.98 363.10 444.50 360.72 C 450.59 356.48 451.29 346.92 446.64 341.37 C 444.21 338.44 439.60 337.51 436.42 339.79 M 537.36 339.48 C 530.63 343.85 530.06 354.79 535.86 360.19 C 538.83 362.89 543.75 362.32 546.42 359.47 C 550.74 354.74 551.00 346.94 547.29 341.79 C 545.10 338.76 540.66 337.59 537.36 339.48 M 643.40 366.43 C 641.44 368.18 642.97 371.14 644.99 372.06 C 648.41 372.71 651.19 368.75 654.64 370.29 C 659.24 371.98 660.95 377.83 659.24 382.15 C 658.09 386.52 653.37 388.22 651.22 391.94 C 651.97 394.03 653.52 396.47 656.16 395.90 C 666.58 391.27 671.08 375.81 662.79 367.21 C 657.93 361.98 648.52 361.26 643.40 366.43 M 670.06 400.12 C 667.73 401.76 665.49 403.53 663.36 405.41 C 661.74 407.04 663.18 409.88 665.02 410.65 C 667.67 411.69 670.01 409.47 671.85 407.87 C 673.25 406.33 675.78 404.72 674.76 402.29 C 673.80 400.75 671.95 399.25 670.06 400.12 M 488.68 425.07 C 484.30 425.30 479.82 424.76 475.53 425.65 C 471.86 426.69 472.22 432.29 476.00 432.82 C 487.36 433.19 498.69 431.25 510.05 432.14 C 512.24 432.10 515.23 432.98 516.52 430.60 C 518.56 428.23 516.17 424.92 513.44 424.81 C 505.20 424.11 496.90 424.31 488.68 425.07 Z"/>
<path fill="rgba(0,0,0,0)" opacity="1.00" d=" M 232.19 451.08 C 233.52 448.55 234.98 445.06 238.25 444.82 C 232.83 451.61 231.95 460.65 232.27 469.03 C 232.53 473.96 234.00 478.78 236.73 482.92 C 233.88 484.18 232.24 480.84 231.45 478.69 C 228.38 469.80 228.84 459.81 232.19 451.08 Z"/>
<path fill="rgba(0,0,0,0)" opacity="1.00" d=" M 241.66 452.37 C 244.19 456.60 243.65 461.83 244.29 466.55 C 242.49 466.52 240.69 466.49 238.90 466.47 C 238.82 461.61 239.81 456.85 241.66 452.37 Z"/>
<path fill="rgba(0,0,0,0)" opacity="1.00" d=" M 210.17 473.22 C 214.35 472.36 218.67 472.90 222.90 473.02 C 223.69 476.26 224.75 479.55 224.31 482.93 C 223.81 489.45 230.39 495.82 236.96 494.21 C 242.34 493.59 246.48 488.35 246.04 482.99 C 245.98 478.72 242.34 475.93 239.94 472.85 C 245.30 472.81 250.67 472.59 256.03 472.86 C 261.58 473.12 265.98 478.49 265.79 483.92 C 265.68 494.96 265.72 506.00 265.85 517.03 C 266.24 521.78 262.85 525.86 258.90 528.02 C 254.43 529.30 249.71 528.04 245.14 528.26 C 245.19 534.59 245.26 540.92 245.21 547.26 C 244.23 547.43 243.25 547.60 242.27 547.76 C 241.80 544.18 241.80 540.57 241.79 536.97 C 240.52 536.93 239.26 536.91 238.01 536.92 C 237.01 542.22 237.64 547.64 237.76 552.99 C 237.52 555.46 239.99 556.21 241.74 557.14 C 240.91 573.41 241.46 589.70 241.15 605.99 C 240.97 614.00 241.52 622.02 241.14 630.04 C 238.92 631.91 236.83 633.93 234.89 636.09 C 231.89 632.44 227.72 629.35 225.83 625.04 C 227.78 621.38 229.59 617.53 229.23 613.26 C 231.55 612.26 234.17 611.77 236.17 610.17 C 238.93 607.02 240.05 601.95 237.78 598.23 C 235.42 593.98 232.09 590.41 229.17 586.58 C 227.10 583.94 227.85 580.33 227.81 577.24 C 232.40 576.51 237.06 573.62 238.35 568.93 C 239.02 565.11 237.68 560.89 234.76 558.30 C 233.47 556.90 231.74 555.79 230.93 554.03 C 231.18 547.66 231.68 541.23 230.84 534.88 C 230.03 533.49 228.58 532.98 227.28 534.15 C 225.23 538.29 226.74 543.16 225.34 547.49 C 224.72 547.10 223.48 546.32 222.86 545.93 C 222.31 540.06 223.03 534.11 221.98 528.29 C 218.06 528.42 214.03 528.96 210.21 527.80 C 206.15 526.44 203.06 522.36 203.17 518.03 C 203.09 506.33 203.25 494.63 203.21 482.94 C 202.95 478.60 206.27 474.67 210.17 473.22 Z"/>
<path fill="rgba(0,0,0,0)" opacity="1.00" d=" M 195.62 548.90 C 201.10 548.76 206.59 548.90 212.07 548.93 C 215.74 548.90 218.20 552.08 220.71 554.30 C 224.11 557.91 228.01 561.13 230.86 565.22 C 232.46 568.17 228.96 571.17 226.06 570.30 C 218.38 568.55 211.20 565.12 204.09 561.80 C 200.52 559.96 196.37 560.18 192.51 560.62 C 190.09 560.93 187.07 563.59 188.88 566.10 C 191.44 570.37 197.00 566.14 200.58 568.46 C 206.78 571.94 213.00 575.94 217.08 581.93 C 221.51 588.17 226.54 594.00 230.75 600.39 C 233.98 604.35 227.26 609.82 223.81 606.21 C 214.37 598.29 208.14 585.66 195.40 582.37 C 190.67 581.59 184.77 580.49 180.87 584.02 C 178.30 586.52 181.79 590.89 184.89 589.67 C 190.59 587.94 196.70 589.95 201.08 593.76 C 207.75 599.54 212.71 607.02 219.52 612.66 C 220.78 613.83 222.81 614.93 222.04 617.01 C 220.88 619.72 217.80 620.86 215.04 620.16 C 207.30 618.67 200.95 613.63 194.53 609.39 C 192.82 608.35 191.19 610.12 190.25 611.38 C 188.65 613.67 191.28 615.87 192.89 617.24 C 198.45 621.36 204.58 624.81 211.10 627.17 C 213.81 628.31 217.07 627.68 219.55 629.34 C 224.79 634.50 229.30 640.39 234.61 645.47 C 237.49 647.15 238.65 643.08 238.70 640.86 C 241.40 637.57 245.48 635.43 247.60 631.62 C 247.85 627.09 247.49 622.53 247.58 617.98 C 246.97 604.68 247.60 591.37 247.33 578.06 C 247.29 572.38 247.36 566.70 247.76 561.03 C 248.74 560.12 250.43 559.61 250.35 557.99 C 250.53 556.30 248.42 555.62 248.12 554.09 C 249.07 552.85 250.92 553.06 251.90 551.90 C 253.35 550.23 254.36 547.56 257.05 547.86 C 261.11 547.23 263.00 551.74 263.48 555.03 C 264.55 563.32 266.03 571.56 267.30 579.83 C 268.74 583.71 272.32 586.27 274.29 589.87 C 278.32 596.12 278.27 603.79 279.66 610.85 C 280.50 617.56 282.83 624.20 281.91 631.03 C 281.07 638.32 277.65 644.93 274.69 651.53 C 273.54 653.86 274.45 656.54 274.35 659.03 C 274.29 663.29 274.85 667.55 274.71 671.81 C 269.54 677.44 262.60 680.98 256.68 685.72 C 249.25 689.74 241.06 692.19 232.92 694.35 C 228.55 695.69 223.91 695.00 219.54 696.29 C 212.75 697.87 205.87 695.97 199.23 694.60 C 199.00 694.41 198.54 694.02 198.31 693.83 C 197.69 690.06 197.80 686.22 197.44 682.44 C 197.07 680.78 195.41 679.88 194.32 678.73 C 188.05 673.47 183.15 666.72 179.48 659.44 C 175.08 650.66 174.88 640.64 173.41 631.12 C 172.05 619.07 170.30 607.06 168.91 595.01 C 167.48 580.55 173.54 565.97 184.00 556.05 C 187.33 553.02 190.83 549.13 195.62 548.90 Z"/>
<path fill="rgba(0,0,0,0)" opacity="1.00" d=" M 436.17 573.08 C 449.77 563.85 465.81 559.35 481.69 555.90 C 480.94 567.56 479.89 579.21 479.37 590.88 C 486.39 602.68 499.35 609.44 511.91 613.93 C 511.46 644.62 509.83 675.29 509.11 705.98 C 505.67 811.99 502.21 918.00 498.43 1024.00 L 385.81 1024.00 C 400.68 993.44 415.13 962.65 430.27 932.22 C 432.09 929.38 429.09 927.07 426.66 926.26 C 417.33 922.37 408.72 917.03 400.12 911.80 C 397.51 910.12 395.20 913.11 394.27 915.27 C 381.31 942.22 368.13 969.07 355.21 996.05 C 350.69 1005.39 346.50 1014.92 341.44 1024.00 L 339.98 1024.00 C 339.90 1013.98 340.01 1003.95 340.47 993.94 C 341.49 954.47 344.06 914.99 349.38 875.85 C 355.23 831.64 362.77 787.57 374.24 744.44 C 378.90 726.47 384.49 708.61 392.92 692.01 C 393.63 690.48 394.61 688.85 394.15 687.09 C 393.26 684.48 389.49 683.32 387.55 685.50 C 385.13 688.68 383.87 692.54 382.14 696.11 C 372.48 717.05 367.17 739.60 361.57 761.87 C 350.62 807.62 343.50 854.20 338.30 900.93 C 337.05 912.59 336.51 924.33 335.18 935.97 C 331.23 938.12 327.18 940.17 322.85 941.45 C 315.74 943.35 308.28 943.29 300.98 942.99 C 292.56 942.34 284.04 941.60 275.97 938.96 C 267.32 936.30 259.51 931.19 253.27 924.67 C 246.59 917.40 241.70 908.77 236.59 900.39 C 211.92 859.23 193.62 814.45 180.81 768.26 C 179.15 761.67 178.44 754.84 178.71 748.06 C 178.99 743.07 179.81 737.93 182.54 733.65 C 184.63 737.37 186.72 741.20 189.92 744.11 C 194.89 749.12 201.66 751.66 208.22 753.84 C 215.26 756.09 222.61 757.61 230.02 757.69 C 242.89 756.23 255.15 751.49 266.63 745.66 C 276.43 738.77 283.91 729.01 289.47 718.48 C 293.08 712.62 296.67 706.74 299.40 700.41 C 308.51 709.38 311.43 722.61 311.97 734.96 C 314.03 756.92 309.92 778.75 307.71 800.53 C 306.40 811.56 305.21 822.61 303.30 833.56 C 303.14 835.37 302.35 837.59 303.83 839.09 C 305.72 841.45 309.88 840.61 310.52 837.58 C 313.71 821.45 314.61 804.95 317.29 788.74 C 323.62 803.93 328.81 819.61 332.58 835.63 C 332.98 838.45 336.78 840.08 338.80 837.81 C 341.05 835.95 339.70 832.84 339.35 830.46 C 334.65 811.75 328.66 793.22 319.78 776.04 C 318.54 773.86 319.29 771.31 319.37 768.97 C 320.23 759.49 320.57 749.96 320.53 740.46 C 323.93 731.57 328.53 723.17 332.57 714.57 C 343.29 692.73 355.11 671.45 367.50 650.53 C 376.41 635.45 385.87 620.56 397.62 607.50 C 409.17 594.70 421.82 582.70 436.17 573.08 Z"/>
<path fill="rgba(0,0,0,0)" opacity="1.00" d=" M 620.64 567.38 C 635.01 564.41 649.53 569.14 662.18 575.77 C 688.72 590.99 710.44 613.83 726.11 639.98 C 742.27 666.66 753.73 695.88 763.37 725.45 C 771.43 750.97 777.80 776.99 783.43 803.14 C 788.61 827.22 792.26 851.60 795.88 875.96 C 802.79 925.07 807.13 974.51 810.21 1024.00 L 708.20 1024.00 C 703.88 986.54 699.16 949.10 693.04 911.89 C 696.46 905.89 698.16 899.15 700.76 892.80 C 713.83 859.07 731.05 827.07 750.78 796.80 C 752.23 795.00 752.02 792.33 750.09 790.97 C 747.99 789.22 744.99 790.74 743.87 792.88 C 723.42 823.94 705.72 856.94 692.69 891.81 C 692.08 893.42 691.27 894.95 690.39 896.45 C 685.74 869.46 680.59 842.53 673.86 815.98 C 672.51 812.01 672.12 807.63 669.96 804.00 C 667.43 800.72 661.80 804.17 663.42 807.96 C 677.14 858.95 685.11 911.26 692.76 963.44 C 695.16 983.63 698.04 1003.77 700.02 1024.00 L 698.99 1024.00 C 681.51 987.37 664.29 950.61 647.22 913.79 C 646.32 911.32 643.34 910.49 641.32 912.20 C 632.36 917.93 622.91 922.84 613.28 927.35 C 610.99 928.10 611.19 930.91 612.19 932.65 C 627.01 962.94 641.04 993.62 655.69 1024.00 L 528.10 1024.00 C 529.12 974.84 530.70 925.69 532.36 876.55 C 534.74 789.57 538.05 702.62 540.73 615.65 C 558.11 613.47 574.90 607.09 589.65 597.67 C 601.85 589.82 613.21 580.00 620.64 567.38 Z"/>
<path fill="rgba(0,0,0,0)" opacity="1.00" d=" M 519.93 615.19 C 524.21 615.93 528.57 615.99 532.91 616.17 C 532.33 623.77 532.01 631.38 532.07 639.01 C 531.16 666.69 530.25 694.38 529.29 722.07 C 529.18 724.94 529.32 727.82 529.42 730.71 C 525.82 727.15 520.37 726.41 516.01 729.15 C 517.03 713.83 516.84 698.45 517.68 683.12 C 518.37 660.47 519.09 637.83 519.93 615.19 Z"/>
<path fill="rgba(0,0,0,0)" opacity="1.00" d=" M 283.24 673.33 C 285.56 670.35 287.27 666.94 289.72 664.07 C 290.28 674.72 291.77 685.30 292.76 695.90 C 291.85 699.05 290.37 701.99 289.26 705.08 C 288.12 703.82 288.07 702.03 287.70 700.48 C 286.11 691.45 284.81 682.36 283.24 673.33 Z"/>
<path fill="rgba(0,0,0,0)" opacity="1.00" d=" M 264.75 689.00 C 269.08 686.57 272.92 683.43 276.84 680.41 C 278.62 691.94 281.04 703.41 282.40 715.01 C 279.61 720.96 275.67 726.46 271.38 731.45 C 268.41 717.44 266.76 703.17 264.75 689.00 Z"/>
<path fill="rgba(0,0,0,0)" opacity="1.00" d=" M 185.21 686.33 C 186.15 685.75 187.09 685.17 188.05 684.63 C 189.66 686.05 190.25 688.11 190.82 690.10 C 188.94 688.85 187.09 687.56 185.21 686.33 Z"/>
<path fill="rgba(0,0,0,0)" opacity="1.00" d=" M 248.70 697.30 C 251.88 696.54 254.80 695.05 257.71 693.63 C 260.17 708.34 261.83 723.18 265.00 737.76 C 261.47 739.68 258.00 741.73 254.29 743.27 C 252.08 727.99 250.55 712.62 248.70 697.30 Z"/>
<path fill="rgba(0,0,0,0)" opacity="1.00" d=" M 184.66 694.96 C 189.65 699.07 195.61 701.63 201.88 703.01 C 203.82 717.30 205.37 731.64 207.65 745.89 C 203.77 744.02 199.41 742.76 196.40 739.51 C 193.15 736.02 190.12 731.93 189.21 727.15 C 187.90 716.39 186.16 705.69 184.66 694.96 Z"/>
<path fill="rgba(0,0,0,0)" opacity="1.00" d=" M 225.97 702.89 C 231.12 702.28 236.29 701.54 241.22 699.90 C 243.55 715.16 245.03 730.54 246.96 745.85 C 242.13 747.79 237.07 749.08 232.01 750.21 C 229.64 734.49 227.84 718.68 225.97 702.89 Z"/>
<path fill="rgba(0,0,0,0)" opacity="1.00" d=" M 209.73 703.93 C 212.57 704.13 215.43 704.11 218.27 703.87 C 220.73 719.19 222.07 734.66 224.42 750.00 C 221.30 749.42 218.14 748.98 215.12 747.96 C 213.39 733.27 211.49 718.61 209.73 703.93 Z"/>
<path fill="rgba(0,0,0,0)" opacity="1.00" d=" M 512.72 835.08 C 513.76 804.67 514.39 774.25 515.71 743.85 C 519.64 746.61 525.14 746.69 528.55 743.02 C 527.46 781.69 525.63 820.34 524.84 859.03 C 523.97 876.00 523.93 893.00 523.16 909.98 C 522.95 927.27 521.68 944.56 521.96 961.85 C 518.04 958.77 512.25 958.96 508.45 962.16 C 509.94 919.80 511.36 877.44 512.72 835.08 Z"/>
<path fill="rgba(0,0,0,0)" opacity="1.00" d=" M 400.14 920.81 C 407.14 925.01 414.31 928.91 421.66 932.46 C 406.49 962.79 391.88 993.40 377.26 1024.00 L 350.24 1024.00 C 352.48 1019.60 354.64 1015.16 356.82 1010.74 C 371.12 980.70 385.96 950.91 400.14 920.81 Z"/>
<path fill="rgba(0,0,0,0)" opacity="1.00" d=" M 620.38 932.11 C 627.83 928.82 635.07 925.07 641.90 920.64 C 658.06 955.11 673.97 989.70 690.49 1024.00 L 664.32 1024.00 C 649.45 993.47 635.29 962.61 620.38 932.11 Z"/>
<path fill="rgba(0,0,0,0)" opacity="1.00" d=" M 507.91 975.74 C 511.83 978.57 517.58 980.13 521.25 975.95 C 521.26 991.98 520.30 1007.98 520.16 1024.00 L 506.32 1024.00 C 506.91 1007.91 507.45 991.83 507.91 975.74 Z"/>
</g>
<g id="Group-000000" fill="#1b245a">
<path fill="#1b245a" opacity="1.00" d=" M 717.29 121.36 C 720.59 120.30 723.15 124.60 721.34 127.30 C 716.08 135.86 710.30 144.31 707.19 153.96 C 706.31 156.48 706.46 159.91 703.84 161.42 C 701.18 162.76 697.72 159.75 698.30 156.93 C 700.48 146.03 706.47 136.45 712.12 127.05 C 713.58 124.99 714.76 122.29 717.29 121.36 Z"/>
<path fill="#1b245a" opacity="1.00" d=" M 502.95 130.04 C 517.24 126.03 532.12 124.35 546.94 124.44 C 567.24 125.03 587.84 129.26 605.60 139.42 C 620.26 147.65 632.62 160.01 640.30 175.01 C 661.82 177.68 683.45 185.44 699.03 201.02 C 714.11 215.48 722.68 235.64 725.54 256.12 C 729.04 281.05 727.18 307.15 717.50 330.57 C 711.68 344.27 703.72 357.17 693.55 368.07 C 698.29 389.38 690.39 413.46 672.60 426.52 C 662.82 433.32 650.21 437.00 638.43 434.09 C 632.44 449.19 622.63 462.47 611.37 474.05 C 614.70 502.47 618.07 530.89 621.08 559.34 C 638.94 556.52 656.74 563.08 671.83 572.21 C 683.95 579.66 694.84 588.97 704.85 599.04 C 717.67 612.03 728.06 627.18 737.13 642.95 C 751.95 669.11 762.72 697.34 771.90 725.90 C 780.24 753.19 786.94 780.96 792.71 808.91 C 806.73 879.82 813.45 951.94 818.21 1024.00 L 810.21 1024.00 C 807.13 974.51 802.79 925.07 795.88 875.96 C 792.26 851.60 788.61 827.22 783.43 803.14 C 777.80 776.99 771.43 750.97 763.37 725.45 C 753.73 695.88 742.27 666.66 726.11 639.98 C 710.44 613.83 688.72 590.99 662.18 575.77 C 649.53 569.14 635.01 564.41 620.64 567.38 C 613.21 580.00 601.85 589.82 589.65 597.67 C 574.90 607.09 558.11 613.47 540.73 615.65 C 538.05 702.62 534.74 789.57 532.36 876.55 C 530.70 925.69 529.12 974.84 528.10 1024.00 L 520.16 1024.00 C 520.30 1007.98 521.26 991.98 521.25 975.95 C 517.58 980.13 511.83 978.57 507.91 975.74 C 507.45 991.83 506.91 1007.91 506.32 1024.00 L 498.43 1024.00 C 502.21 918.00 505.67 811.99 509.11 705.98 C 509.83 675.29 511.46 644.62 511.91 613.93 C 499.35 609.44 486.39 602.68 479.37 590.88 C 479.89 579.21 480.94 567.56 481.69 555.90 C 465.81 559.35 449.77 563.85 436.17 573.08 C 421.82 582.70 409.17 594.70 397.62 607.50 C 385.87 620.56 376.41 635.45 367.50 650.53 C 355.11 671.45 343.29 692.73 332.57 714.57 C 328.53 723.17 323.93 731.57 320.53 740.46 C 320.57 749.96 320.23 759.49 319.37 768.97 C 319.29 771.31 318.54 773.86 319.78 776.04 C 328.66 793.22 334.65 811.75 339.35 830.46 C 339.70 832.84 341.05 835.95 338.80 837.81 C 336.78 840.08 332.98 838.45 332.58 835.63 C 328.81 819.61 323.62 803.93 317.29 788.74 C 314.61 804.95 313.71 821.45 310.52 837.58 C 309.88 840.61 305.72 841.45 303.83 839.09 C 302.35 837.59 303.14 835.37 303.30 833.56 C 305.21 822.61 306.40 811.56 307.71 800.53 C 309.92 778.75 314.03 756.92 311.97 734.96 C 311.43 722.61 308.51 709.38 299.40 700.41 C 296.67 706.74 293.08 712.62 289.47 718.48 C 283.91 729.01 276.43 738.77 266.63 745.66 C 255.15 751.49 242.89 756.23 230.02 757.69 C 222.61 757.61 215.26 756.09 208.22 753.84 C 201.66 751.66 194.89 749.12 189.92 744.11 C 186.72 741.20 184.63 737.37 182.54 733.65 C 179.81 737.93 178.99 743.07 178.71 748.06 C 178.44 754.84 179.15 761.67 180.81 768.26 C 193.62 814.45 211.92 859.23 236.59 900.39 C 241.70 908.77 246.59 917.40 253.27 924.67 C 259.51 931.19 267.32 936.30 275.97 938.96 C 284.04 941.60 292.56 942.34 300.98 942.99 C 308.28 943.29 315.74 943.35 322.85 941.45 C 327.18 940.17 331.23 938.12 335.18 935.97 C 336.51 924.33 337.05 912.59 338.30 900.93 C 343.50 854.20 350.62 807.62 361.57 761.87 C 367.17 739.60 372.48 717.05 382.14 696.11 C 383.87 692.54 385.13 688.68 387.55 685.50 C 389.49 683.32 393.26 684.48 394.15 687.09 C 394.61 688.85 393.63 690.48 392.92 692.01 C 384.49 708.61 378.90 726.47 374.24 744.44 C 362.77 787.57 355.23 831.64 349.38 875.85 C 344.06 914.99 341.49 954.47 340.47 993.94 C 340.01 1003.95 339.90 1013.98 339.98 1024.00 L 332.04 1024.00 C 332.22 997.78 333.09 971.55 334.59 945.37 C 321.62 951.74 306.69 951.48 292.64 950.15 C 277.47 948.76 261.95 943.96 250.75 933.19 C 243.16 926.30 237.78 917.46 232.39 908.84 C 210.68 873.27 193.40 835.03 180.74 795.34 C 176.06 780.27 170.03 765.10 170.79 749.03 C 170.87 739.39 173.88 729.33 181.11 722.62 C 179.17 710.49 177.48 698.31 176.22 686.10 C 177.01 682.62 180.46 680.68 183.22 678.84 C 175.84 670.40 169.90 660.28 168.07 649.10 C 165.95 634.72 164.50 620.25 162.50 605.86 C 160.59 594.95 160.21 583.49 163.87 572.88 C 167.08 562.93 173.91 554.63 181.52 547.66 C 184.48 545.22 187.62 542.62 191.39 541.64 C 199.75 541.43 208.15 541.07 216.49 541.92 C 216.45 539.72 216.42 537.53 216.42 535.34 C 206.76 536.39 197.14 528.74 196.59 518.95 C 196.75 506.64 196.58 494.33 196.83 482.02 C 196.91 475.76 201.14 469.87 206.91 467.55 C 211.78 465.54 217.16 466.70 222.26 466.41 C 222.58 458.25 223.89 449.60 228.82 442.84 C 231.72 438.71 237.64 436.03 242.41 438.52 C 246.49 440.38 249.26 444.34 250.34 448.62 C 251.82 454.41 252.70 460.44 252.11 466.43 C 255.05 466.46 258.07 466.40 260.90 467.39 C 267.41 469.60 272.44 476.05 272.37 483.03 C 272.43 494.37 272.41 505.71 272.36 517.05 C 272.55 523.31 269.14 529.61 263.73 532.80 C 259.97 535.00 255.49 535.37 251.24 534.91 C 251.26 537.31 251.23 539.72 251.15 542.13 C 257.85 538.63 267.50 541.73 269.70 549.31 C 272.20 558.68 272.59 568.53 275.26 577.88 C 276.91 581.01 279.61 583.47 281.36 586.56 C 285.46 592.96 285.84 600.75 287.13 608.02 C 288.05 614.67 289.77 621.23 289.86 627.97 C 289.72 634.68 287.80 641.25 284.98 647.31 C 289.59 648.36 294.81 650.79 296.30 655.67 C 298.01 667.24 297.95 679.11 300.28 690.57 C 310.60 698.86 317.09 711.19 318.92 724.23 C 332.66 695.28 347.96 667.06 364.58 639.65 C 373.62 624.72 383.59 610.28 395.62 597.58 C 407.56 585.10 420.36 573.20 435.12 564.11 C 449.46 555.25 466.04 551.15 482.35 547.63 C 483.64 531.48 484.78 515.32 485.94 499.15 C 476.69 496.73 467.49 493.79 459.15 489.04 C 437.26 477.18 420.49 457.19 410.48 434.59 C 408.77 429.63 403.67 427.35 400.65 423.35 C 388.09 409.42 384.53 389.02 388.75 371.08 C 391.03 361.32 396.98 352.79 404.85 346.69 C 406.41 335.81 409.99 325.39 414.01 315.20 C 406.89 307.93 401.81 298.43 400.74 288.22 C 380.85 280.97 368.07 259.89 368.68 239.04 C 368.68 221.22 375.98 203.87 387.57 190.49 C 399.02 176.87 415.10 167.52 432.28 163.21 C 444.14 160.66 453.96 153.10 464.32 147.22 C 476.54 140.17 489.31 133.84 502.95 130.04 M 583.33 262.25 C 556.31 287.20 516.37 296.92 480.86 287.52 C 479.14 286.89 477.52 288.06 475.92 288.52 C 462.64 293.66 446.89 294.85 433.98 288.03 C 430.27 288.59 426.75 290.31 423.08 291.26 C 421.22 296.58 418.81 301.95 418.86 307.69 C 423.77 301.72 431.09 297.37 439.00 297.61 C 443.89 297.63 449.66 298.00 453.26 301.73 C 455.61 304.16 452.02 308.63 449.15 306.93 C 444.11 304.44 438.18 303.90 432.84 305.77 C 429.60 306.92 427.40 309.72 424.63 311.62 C 423.27 312.40 421.83 311.49 420.51 311.15 C 421.31 313.02 422.93 314.95 422.01 317.11 C 420.41 321.81 418.21 326.29 416.82 331.07 C 413.92 339.72 412.49 348.78 411.70 357.85 C 410.30 360.90 407.39 363.18 406.73 366.59 C 404.41 393.55 410.45 421.30 424.61 444.44 C 434.23 460.71 448.25 474.44 465.01 483.24 C 479.81 490.96 496.57 493.85 513.06 494.94 C 520.67 495.08 528.36 495.73 535.90 494.41 C 538.94 493.92 541.81 492.73 544.84 492.20 C 547.24 492.35 549.03 496.08 546.82 497.69 C 530.94 511.34 512.20 521.98 491.83 527.18 C 490.45 545.80 489.06 564.42 487.61 583.04 C 487.18 585.75 486.94 588.88 489.11 590.98 C 498.75 601.57 512.89 607.56 527.10 608.21 C 543.73 609.09 560.23 604.39 574.96 596.92 C 587.83 590.13 600.02 581.51 609.21 570.11 C 610.87 567.60 613.07 565.09 613.59 562.09 C 610.43 533.43 607.01 504.81 603.69 476.17 C 603.28 473.63 602.68 470.65 604.51 468.50 C 606.13 467.11 608.05 466.08 609.46 464.45 C 619.17 453.59 627.63 441.30 632.40 427.43 C 633.24 424.53 636.47 425.88 638.53 426.33 C 653.17 430.10 669.03 422.63 677.38 410.46 C 686.46 397.86 689.69 380.83 684.55 366.03 C 682.06 358.57 677.14 351.78 670.32 347.75 C 663.38 343.52 654.44 342.48 646.86 345.53 C 638.75 348.49 632.39 355.26 629.06 363.13 C 627.58 366.41 627.09 370.09 625.08 373.14 C 620.55 370.81 616.32 367.53 613.98 362.90 C 610.38 355.80 610.67 347.47 612.32 339.88 C 612.62 338.11 613.60 336.13 612.32 334.53 C 607.30 325.84 603.02 316.68 600.41 306.97 C 595.03 286.87 595.02 265.48 599.34 245.18 C 594.07 250.92 589.27 257.13 583.33 262.25 M 232.19 451.08 C 228.84 459.81 228.38 469.80 231.45 478.69 C 232.24 480.84 233.88 484.18 236.73 482.92 C 234.00 478.78 232.53 473.96 232.27 469.03 C 231.95 460.65 232.83 451.61 238.25 444.82 C 234.98 445.06 233.52 448.55 232.19 451.08 M 241.66 452.37 C 239.81 456.85 238.82 461.61 238.90 466.47 C 240.69 466.49 242.49 466.52 244.29 466.55 C 243.65 461.83 244.19 456.60 241.66 452.37 M 210.17 473.22 C 206.27 474.67 202.95 478.60 203.21 482.94 C 203.25 494.63 203.09 506.33 203.17 518.03 C 203.06 522.36 206.15 526.44 210.21 527.80 C 214.03 528.96 218.06 528.42 221.98 528.29 C 223.03 534.11 222.31 540.06 222.86 545.93 C 223.48 546.32 224.72 547.10 225.34 547.49 C 226.74 543.16 225.23 538.29 227.28 534.15 C 228.58 532.98 230.03 533.49 230.84 534.88 C 231.68 541.23 231.18 547.66 230.93 554.03 C 231.74 555.79 233.47 556.90 234.76 558.30 C 237.68 560.89 239.02 565.11 238.35 568.93 C 237.06 573.62 232.40 576.51 227.81 577.24 C 227.85 580.33 227.10 583.94 229.17 586.58 C 232.09 590.41 235.42 593.98 237.78 598.23 C 240.05 601.95 238.93 607.02 236.17 610.17 C 234.17 611.77 231.55 612.26 229.23 613.26 C 229.59 617.53 227.78 621.38 225.83 625.04 C 227.72 629.35 231.89 632.44 234.89 636.09 C 236.83 633.93 238.92 631.91 241.14 630.04 C 241.52 622.02 240.97 614.00 241.15 605.99 C 241.46 589.70 240.91 573.41 241.74 557.14 C 239.99 556.21 237.52 555.46 237.76 552.99 C 237.64 547.64 237.01 542.22 238.01 536.92 C 239.26 536.91 240.52 536.93 241.79 536.97 C 241.80 540.57 241.80 544.18 242.27 547.76 C 243.25 547.60 244.23 547.43 245.21 547.26 C 245.26 540.92 245.19 534.59 245.14 528.26 C 249.71 528.04 254.43 529.30 258.90 528.02 C 262.85 525.86 266.24 521.78 265.85 517.03 C 265.72 506.00 265.68 494.96 265.79 483.92 C 265.98 478.49 261.58 473.12 256.03 472.86 C 250.67 472.59 245.30 472.81 239.94 472.85 C 242.34 475.93 245.98 478.72 246.04 482.99 C 246.48 488.35 242.34 493.59 236.96 494.21 C 230.39 495.82 223.81 489.45 224.31 482.93 C 224.75 479.55 223.69 476.26 222.90 473.02 C 218.67 472.90 214.35 472.36 210.17 473.22 M 195.62 548.90 C 190.83 549.13 187.33 553.02 184.00 556.05 C 173.54 565.97 167.48 580.55 168.91 595.01 C 170.30 607.06 172.05 619.07 173.41 631.12 C 174.88 640.64 175.08 650.66 179.48 659.44 C 183.15 666.72 188.05 673.47 194.32 678.73 C 195.41 679.88 197.07 680.78 197.44 682.44 C 197.80 686.22 197.69 690.06 198.31 693.83 C 198.54 694.02 199.00 694.41 199.23 694.60 C 205.87 695.97 212.75 697.87 219.54 696.29 C 223.91 695.00 228.55 695.69 232.92 694.35 C 241.06 692.19 249.25 689.74 256.68 685.72 C 262.60 680.98 269.54 677.44 274.71 671.81 C 274.85 667.55 274.29 663.29 274.35 659.03 C 274.45 656.54 273.54 653.86 274.69 651.53 C 277.65 644.93 281.07 638.32 281.91 631.03 C 282.83 624.20 280.50 617.56 279.66 610.85 C 278.27 603.79 278.32 596.12 274.29 589.87 C 272.32 586.27 268.74 583.71 267.30 579.83 C 266.03 571.56 264.55 563.32 263.48 555.03 C 263.00 551.74 261.11 547.23 257.05 547.86 C 254.36 547.56 253.35 550.23 251.90 551.90 C 250.92 553.06 249.07 552.85 248.12 554.09 C 248.42 555.62 250.53 556.30 250.35 557.99 C 250.43 559.61 248.74 560.12 247.76 561.03 C 247.36 566.70 247.29 572.38 247.33 578.06 C 247.60 591.37 246.97 604.68 247.58 617.98 C 247.49 622.53 247.85 627.09 247.60 631.62 C 245.48 635.43 241.40 637.57 238.70 640.86 C 238.65 643.08 237.49 647.15 234.61 645.47 C 229.30 640.39 224.79 634.50 219.55 629.34 C 217.07 627.68 213.81 628.31 211.10 627.17 C 204.58 624.81 198.45 621.36 192.89 617.24 C 191.28 615.87 188.65 613.67 190.25 611.38 C 191.19 610.12 192.82 608.35 194.53 609.39 C 200.95 613.63 207.30 618.67 215.04 620.16 C 217.80 620.86 220.88 619.72 222.04 617.01 C 222.81 614.93 220.78 613.83 219.52 612.66 C 212.71 607.02 207.75 599.54 201.08 593.76 C 196.70 589.95 190.59 587.94 184.89 589.67 C 181.79 590.89 178.30 586.52 180.87 584.02 C 184.77 580.49 190.67 581.59 195.40 582.37 C 208.14 585.66 214.37 598.29 223.81 606.21 C 227.26 609.82 233.98 604.35 230.75 600.39 C 226.54 594.00 221.51 588.17 217.08 581.93 C 213.00 575.94 206.78 571.94 200.58 568.46 C 197.00 566.14 191.44 570.37 188.88 566.10 C 187.07 563.59 190.09 560.93 192.51 560.62 C 196.37 560.18 200.52 559.96 204.09 561.80 C 211.20 565.12 218.38 568.55 226.06 570.30 C 228.96 571.17 232.46 568.17 230.86 565.22 C 228.01 561.13 224.11 557.91 220.71 554.30 C 218.20 552.08 215.74 548.90 212.07 548.93 C 206.59 548.90 201.10 548.76 195.62 548.90 M 519.93 615.19 C 519.09 637.83 518.37 660.47 517.68 683.12 C 516.84 698.45 517.03 713.83 516.01 729.15 C 520.37 726.41 525.82 727.15 529.42 730.71 C 529.32 727.82 529.18 724.94 529.29 722.07 C 530.25 694.38 531.16 666.69 532.07 639.01 C 532.01 631.38 532.33 623.77 532.91 616.17 C 528.57 615.99 524.21 615.93 519.93 615.19 M 283.24 673.33 C 284.81 682.36 286.11 691.45 287.70 700.48 C 288.07 702.03 288.12 703.82 289.26 705.08 C 290.37 701.99 291.85 699.05 292.76 695.90 C 291.77 685.30 290.28 674.72 289.72 664.07 C 287.27 666.94 285.56 670.35 283.24 673.33 M 264.75 689.00 C 266.76 703.17 268.41 717.44 271.38 731.45 C 275.67 726.46 279.61 720.96 282.40 715.01 C 281.04 703.41 278.62 691.94 276.84 680.41 C 272.92 683.43 269.08 686.57 264.75 689.00 M 185.21 686.33 C 187.09 687.56 188.94 688.85 190.82 690.10 C 190.25 688.11 189.66 686.05 188.05 684.63 C 187.09 685.17 186.15 685.75 185.21 686.33 M 248.70 697.30 C 250.55 712.62 252.08 727.99 254.29 743.27 C 258.00 741.73 261.47 739.68 265.00 737.76 C 261.83 723.18 260.17 708.34 257.71 693.63 C 254.80 695.05 251.88 696.54 248.70 697.30 M 184.66 694.96 C 186.16 705.69 187.90 716.39 189.21 727.15 C 190.12 731.93 193.15 736.02 196.40 739.51 C 199.41 742.76 203.77 744.02 207.65 745.89 C 205.37 731.64 203.82 717.30 201.88 703.01 C 195.61 701.63 189.65 699.07 184.66 694.96 M 225.97 702.89 C 227.84 718.68 229.64 734.49 232.01 750.21 C 237.07 749.08 242.13 747.79 246.96 745.85 C 245.03 730.54 243.55 715.16 241.22 699.90 C 236.29 701.54 231.12 702.28 225.97 702.89 M 209.73 703.93 C 211.49 718.61 213.39 733.27 215.12 747.96 C 218.14 748.98 221.30 749.42 224.42 750.00 C 222.07 734.66 220.73 719.19 218.27 703.87 C 215.43 704.11 212.57 704.13 209.73 703.93 M 512.72 835.08 C 511.36 877.44 509.94 919.80 508.45 962.16 C 512.25 958.96 518.04 958.77 521.96 961.85 C 521.68 944.56 522.95 927.27 523.16 909.98 C 523.93 893.00 523.97 876.00 524.84 859.03 C 525.63 820.34 527.46 781.69 528.55 743.02 C 525.14 746.69 519.64 746.61 515.71 743.85 C 514.39 774.25 513.76 804.67 512.72 835.08 Z"/>
<path fill="#1b245a" opacity="1.00" d=" M 750.19 143.23 C 752.71 141.99 756.48 143.96 755.98 147.00 C 756.01 148.57 754.78 149.80 753.41 150.34 C 740.46 155.46 727.24 161.14 717.05 170.92 C 714.92 172.84 713.04 175.08 710.63 176.67 C 707.72 178.37 703.61 174.50 705.51 171.55 C 707.85 168.25 711.31 165.97 714.09 163.08 C 719.00 158.04 725.32 154.81 731.41 151.45 C 737.49 148.34 743.74 145.52 750.19 143.23 Z"/>
<path fill="#1b245a" opacity="1.00" d=" M 718.44 181.62 C 726.85 179.62 735.78 180.86 743.64 184.32 C 745.31 185.15 747.19 186.16 747.88 188.02 C 748.53 190.60 745.71 193.68 743.10 192.60 C 735.41 188.77 726.31 186.66 718.02 189.93 C 714.96 191.60 711.01 187.83 712.65 184.77 C 714.05 182.99 716.30 182.17 718.44 181.62 Z"/>
<path fill="#1b245a" opacity="1.00" d=" M 546.44 298.58 C 552.24 296.81 558.60 297.43 564.13 299.81 C 566.78 300.92 569.58 302.37 570.99 305.00 C 571.86 307.68 568.33 311.28 565.76 309.28 C 563.06 307.57 560.33 305.76 557.11 305.21 C 551.89 303.77 546.79 306.13 541.94 307.77 C 539.41 307.67 536.91 304.27 539.07 302.19 C 541.09 300.26 543.85 299.43 546.44 298.58 Z"/>
<path fill="#1b245a" opacity="1.00" d=" M 477.95 323.08 C 478.33 319.29 484.65 318.96 485.07 322.85 C 485.60 332.88 485.26 342.97 486.14 352.99 C 486.36 355.03 486.38 357.28 484.75 358.78 C 478.50 366.21 471.78 373.22 465.39 380.52 C 464.56 381.46 463.56 382.23 462.60 383.03 C 463.05 384.93 463.23 387.35 464.99 388.55 C 473.92 388.28 482.90 388.35 491.77 389.44 C 495.32 390.74 494.55 396.02 490.95 396.63 C 481.35 396.04 471.61 395.15 462.05 396.60 C 458.29 395.49 457.82 390.87 456.15 387.88 C 455.40 385.50 452.77 382.45 455.15 380.21 C 462.08 372.76 468.98 365.27 475.69 357.61 C 476.62 356.45 477.85 355.45 478.37 354.01 C 478.15 343.71 477.65 333.37 477.95 323.08 Z"/>
<path fill="#1b245a" opacity="1.00" d=" M 436.42 339.79 C 439.60 337.51 444.21 338.44 446.64 341.37 C 451.29 346.92 450.59 356.48 444.50 360.72 C 440.98 363.10 435.86 361.77 433.73 358.15 C 430.28 352.54 430.86 343.86 436.42 339.79 Z"/>
<path fill="#1b245a" opacity="1.00" d=" M 537.36 339.48 C 540.66 337.59 545.10 338.76 547.29 341.79 C 551.00 346.94 550.74 354.74 546.42 359.47 C 543.75 362.32 538.83 362.89 535.86 360.19 C 530.06 354.79 530.63 343.85 537.36 339.48 Z"/>
<path fill="#1b245a" opacity="1.00" d=" M 643.40 366.43 C 648.52 361.26 657.93 361.98 662.79 367.21 C 671.08 375.81 666.58 391.27 656.16 395.90 C 653.52 396.47 651.97 394.03 651.22 391.94 C 653.37 388.22 658.09 386.52 659.24 382.15 C 660.95 377.83 659.24 371.98 654.64 370.29 C 651.19 368.75 648.41 372.71 644.99 372.06 C 642.97 371.14 641.44 368.18 643.40 366.43 Z"/>
<path fill="#1b245a" opacity="1.00" d=" M 670.06 400.12 C 671.95 399.25 673.80 400.75 674.76 402.29 C 675.78 404.72 673.25 406.33 671.85 407.87 C 670.01 409.47 667.67 411.69 665.02 410.65 C 663.18 409.88 661.74 407.04 663.36 405.41 C 665.49 403.53 667.73 401.76 670.06 400.12 Z"/>
<path fill="#1b245a" opacity="1.00" d=" M 488.68 425.07 C 496.90 424.31 505.20 424.11 513.44 424.81 C 516.17 424.92 518.56 428.23 516.52 430.60 C 515.23 432.98 512.24 432.10 510.05 432.14 C 498.69 431.25 487.36 433.19 476.00 432.82 C 472.22 432.29 471.86 426.69 475.53 425.65 C 479.82 424.76 484.30 425.30 488.68 425.07 Z"/>
<path fill="#1b245a" opacity="1.00" d=" M 743.87 792.88 C 744.99 790.74 747.99 789.22 750.09 790.97 C 752.02 792.33 752.23 795.00 750.78 796.80 C 731.05 827.07 713.83 859.07 700.76 892.80 C 698.16 899.15 696.46 905.89 693.04 911.89 C 699.16 949.10 703.88 986.54 708.20 1024.00 L 700.02 1024.00 C 698.04 1003.77 695.16 983.63 692.76 963.44 C 685.11 911.26 677.14 858.95 663.42 807.96 C 661.80 804.17 667.43 800.72 669.96 804.00 C 672.12 807.63 672.51 812.01 673.86 815.98 C 680.59 842.53 685.74 869.46 690.39 896.45 C 691.27 894.95 692.08 893.42 692.69 891.81 C 705.72 856.94 723.42 823.94 743.87 792.88 Z"/>
<path fill="#1b245a" opacity="1.00" d=" M 394.27 915.27 C 395.20 913.11 397.51 910.12 400.12 911.80 C 408.72 917.03 417.33 922.37 426.66 926.26 C 429.09 927.07 432.09 929.38 430.27 932.22 C 415.13 962.65 400.68 993.44 385.81 1024.00 L 377.26 1024.00 C 391.88 993.40 406.49 962.79 421.66 932.46 C 414.31 928.91 407.14 925.01 400.14 920.81 C 385.96 950.91 371.12 980.70 356.82 1010.74 C 354.64 1015.16 352.48 1019.60 350.24 1024.00 L 341.44 1024.00 C 346.50 1014.92 350.69 1005.39 355.21 996.05 C 368.13 969.07 381.31 942.22 394.27 915.27 Z"/>
<path fill="#1b245a" opacity="1.00" d=" M 641.32 912.20 C 643.34 910.49 646.32 911.32 647.22 913.79 C 664.29 950.61 681.51 987.37 698.99 1024.00 L 690.49 1024.00 C 673.97 989.70 658.06 955.11 641.90 920.64 C 635.07 925.07 627.83 928.82 620.38 932.11 C 635.29 962.61 649.45 993.47 664.32 1024.00 L 655.69 1024.00 C 641.04 993.62 627.01 962.94 612.19 932.65 C 611.19 930.91 610.99 928.10 613.28 927.35 C 622.91 922.84 632.36 917.93 641.32 912.20 Z"/>
</g>
</g></svg>