<svg xmlns="http://www.w3.org/2000/svg" xmlns:xlink="http://www.w3.org/1999/xlink" version="1.1" viewBox="-2 -2 1028 1028" width="200px" height="200px">
<g id="Parent-Group"><g fill="rgba(0,0,0,0)" id="Group-rgba(0,0,0,0)">
<path d="   M 1024.00 0.00   L 1024.00 457.12   C 951.86 428.39 881.08 400.54 800.00 368.04   Q 795.94 366.41 792.59 366.00   Q 780.92 364.55 768.76 365.50   Q 761.79 366.05 749.82 369.25   Q 670.66 390.35 591.04 410.81   Q 587.42 411.75 588.20 415.36   Q 588.31 415.89 588.67 416.30   Q 590.65 418.62 593.60 417.84   L 735.27 380.83   A 1.58 1.53 53.3 0 1 736.50 381.03   Q 742.07 384.57 748.63 387.12   Q 761.50 392.13 774.39 396.82   Q 776.54 397.60 778.12 395.94   Q 778.43 395.62 778.53 395.21   Q 779.23 392.38 776.50 391.39   Q 763.79 386.78 751.46 382.04   Q 748.41 380.86 745.40 379.32   Q 743.87 378.53 745.55 378.14   C 753.37 376.29 761.43 373.41 769.40 372.95   Q 780.86 372.28 790.78 373.33   Q 792.38 373.50 793.92 373.98   Q 795.43 374.45 796.86 375.02   Q 831.17 388.62 865.49 402.21   Q 944.68 433.58 1024.00 465.19   L 1024.00 685.71   L 740.15 758.27   Q 739.06 758.55 738.96 757.43   Q 738.51 752.38 736.97 747.71   Q 736.69 746.85 737.56 746.59   Q 791.99 730.12 845.62 713.72   C 862.49 708.56 879.05 699.80 888.44 684.86   C 894.55 675.14 895.36 662.50 895.70 651.07   Q 895.71 650.57 896.01 650.17   C 902.28 641.57 902.47 631.65 896.91 622.81   C 893.04 616.67 887.77 612.44 881.72 608.60   Q 807.46 561.46 734.06 515.10   Q 731.90 513.74 730.34 515.77   A 1.42 1.41 -54.0 0 1 728.41 516.08   L 719.57 509.99   Q 718.67 509.37 719.14 508.39   Q 719.85 506.90 720.39 505.36   C 722.06 500.62 718.14 495.98 714.29 493.55   Q 675.01 468.79 635.89 444.70   C 629.80 440.95 621.87 440.34 616.30 445.52   A 1.14 1.13 39.6 0 1 614.91 445.64   L 607.26 440.74   A 1.29 1.29 0.0 0 1 606.93 438.86   C 609.39 435.70 607.18 434.53 604.76 432.94   Q 593.22 425.40 582.26 418.50   Q 521.91 380.44 461.49 341.98   Q 450.00 334.67 444.08 332.15   Q 427.62 325.14 409.12 327.25   Q 402.49 328.01 389.93 331.70   Q 294.90 359.63 201.81 386.57   Q 171.17 395.44 143.69 403.71   C 123.16 409.89 108.87 425.54 107.90 447.64   C 106.75 473.61 128.82 491.76 150.46 502.18   Q 150.68 502.29 150.84 502.46   Q 151.02 502.65 151.16 502.82   Q 151.50 503.23 150.99 503.36   Q 85.55 520.71 11.85 539.44   A 0.33 0.32 -9.2 0 0 11.61 539.76   L 11.67 547.33   A 0.23 0.22 -7.2 0 0 11.95 547.54   L 75.96 531.06   A 1.89 1.88 -38.6 0 1 77.32 531.21   Q 208.74 598.13 339.90 665.87   Q 348.82 670.48 357.70 675.02   Q 467.07 730.97 576.33 787.19   A 2.63 2.60 -35.2 0 0 577.90 787.45   Q 603.06 783.89 628.04 778.49   Q 636.99 776.56 644.32 774.38   Q 685.53 762.16 728.76 748.97   A 0.68 0.68 0.0 0 1 729.63 749.53   L 731.16 760.18   A 0.67 0.66 -12.3 0 1 730.68 760.92   Q 716.35 764.77 701.94 768.42   Q 596.94 795.04 492.41 823.41   Q 482.15 826.19 473.09 828.57   Q 396.96 848.60 358.86 858.05   C 257.75 883.15 155.46 908.91 56.49 932.93   C 53.83 933.58 51.68 934.66 52.49 937.91   C 53.07 940.21 55.36 940.82 57.36 940.32   Q 210.11 902.74 356.60 866.08   C 432.34 847.12 501.56 828.52 573.66 809.16   Q 583.58 806.50 593.00 804.05   Q 661.70 786.15 731.36 768.35   A 0.48 0.48 0.0 0 1 731.96 768.81   Q 731.89 784.77 731.32 800.60   Q 731.11 806.28 732.26 810.58   C 733.80 816.39 739.80 819.19 741.46 825.05   C 743.27 831.44 741.33 839.29 740.32 846.00   C 737.14 867.22 739.26 889.55 745.58 910.01   Q 747.56 916.39 749.55 923.22   Q 755.74 944.47 751.48 966.41   Q 750.01 973.97 748.52 979.91   Q 748.49 980.05 748.63 980.05   L 755.64 980.21   Q 755.84 980.21 755.91 980.01   Q 765.05 950.18 756.59 921.00   Q 754.66 914.35 752.70 908.05   C 746.57 888.40 744.57 866.91 747.83 846.50   C 749.52 835.91 752.65 823.91 744.58 815.18   C 741.92 812.31 739.08 809.99 739.26 805.60   Q 740.07 785.89 739.85 766.49   Q 739.84 765.93 740.38 765.79   L 1024.00 693.15   L 1024.00 728.38   Q 975.57 741.11 927.32 754.37   Q 837.37 779.07 745.74 804.18   C 742.90 804.96 741.89 807.49 743.93 809.73   Q 745.67 811.62 748.15 810.94   C 840.23 785.82 931.84 760.18 1024.00 736.01   L 1024.00 1024.00   L 0.00 1024.00   L 0.00 0.00   L 1024.00 0.00   Z   M 554.26 323.69   C 545.49 330.97 533.16 333.96 521.65 330.87   A 1.09 1.08 -62.5 0 0 520.52 331.23   Q 518.67 333.47 518.40 336.28   A 2.34 2.33 23.5 0 0 519.17 338.22   C 520.93 339.78 522.75 341.33 524.14 343.23   Q 532.88 355.20 532.95 369.29   C 532.98 373.28 538.83 375.22 540.87 371.80   C 542.68 368.78 545.41 367.29 548.92 366.52   C 556.90 364.77 565.11 364.90 571.50 369.63   A 1.13 1.13 0.0 0 0 572.56 369.78   Q 574.95 368.89 576.85 366.49   C 579.13 363.61 575.23 361.64 573.30 360.26   Q 570.76 358.43 568.78 355.17   Q 561.37 342.99 562.66 330.16   Q 562.99 326.83 566.02 322.92   A 0.98 0.97 54.6 0 0 566.17 321.99   C 565.31 319.58 562.88 316.81 560.07 317.09   C 558.30 317.27 557.34 319.60 556.56 320.96   Q 555.68 322.51 554.26 323.69   Z   M 778.9316 425.3446   A 2.91 2.91 0.0 0 0 775.3675 423.2869   L 718.1654 438.6142   A 2.91 2.91 0.0 0 0 716.1077 442.1782   L 716.1284 442.2554   A 2.91 2.91 0.0 0 0 719.6925 444.3131   L 776.8946 428.9858   A 2.91 2.91 0.0 0 0 778.9523 425.4218   L 778.9316 425.3446   Z   M 871.1270 456.4806   A 2.66 2.66 0.0 0 0 867.7288 454.8670   L 801.9920 478.2748   A 2.66 2.66 0.0 0 0 800.3785 481.6730   L 800.5730 482.2194   A 2.66 2.66 0.0 0 0 803.9712 483.8330   L 869.7080 460.4252   A 2.66 2.66 0.0 0 0 871.3215 457.0270   L 871.1270 456.4806   Z   M 874.7643 494.9550   A 2.79 2.79 0.0 0 0 871.4627 492.7945   L 852.1594 496.8272   A 2.79 2.79 0.0 0 0 849.9989 500.1288   L 850.0357 500.3050   A 2.79 2.79 0.0 0 0 853.3373 502.4655   L 872.6406 498.4328   A 2.79 2.79 0.0 0 0 874.8011 495.1312   L 874.7643 494.9550   Z   M 1021.23 553.49   Q 1020.46 551.54 1018.44 552.10   C 1001.70 556.78 986.62 563.16 971.04 568.95   Q 957.85 573.84 943.10 574.52   Q 940.37 574.65 940.42 577.38   L 940.43 577.67   Q 940.48 579.92 942.72 580.04   Q 947.57 580.28 952.31 579.57   Q 966.52 577.45 979.45 572.16   Q 1001.40 563.18 1019.76 557.43   Q 1022.47 556.59 1021.42 553.95   L 1021.23 553.49   Z   M 12.26 604.43   L 45.01 597.79   A 2.85 2.84 21.4 0 0 46.14 597.30   Q 48.54 595.54 47.84 594.17   Q 46.58 591.68 43.85 592.22   L 12.02 598.54   A 0.66 0.66 0.0 0 0 11.49 599.22   L 11.75 604.03   Q 11.77 604.53 12.26 604.43   Z   M 153.64 616.00   C 143.69 617.68 133.89 618.53 124.08 619.98   C 113.96 621.48 104.39 624.68 94.22 625.84   Q 87.77 626.58 82.25 627.51   Q 79.51 627.97 79.42 630.75   Q 79.41 631.16 79.59 631.54   Q 80.60 633.71 82.96 633.31   C 91.33 631.89 100.13 631.15 108.21 629.19   C 115.56 627.40 122.89 625.60 130.50 624.79   Q 142.51 623.51 154.30 621.58   Q 157.01 621.13 156.68 618.41   Q 156.64 618.08 156.53 617.76   A 2.58 2.57 76.3 0 0 153.64 616.00   Z   M 101.55 786.32   Q 112.23 782.72 115.99 781.28   Q 150.36 768.03 183.95 756.44   A 2.19 2.17 83.1 0 0 185.40 754.58   C 185.70 751.42 183.06 750.51 180.45 751.41   C 158.86 758.86 139.08 766.13 112.83 776.00   Q 103.45 779.53 93.95 782.61   Q 67.49 791.19 43.78 798.78   Q 41.06 799.65 41.59 802.45   Q 41.67 802.84 41.94 803.15   Q 43.57 804.98 44.83 804.60   Q 73.29 795.83 101.55 786.32   Z   M 268.90 803.16   C 259.25 806.21 249.37 808.88 239.29 811.15   Q 207.30 818.36 173.32 827.78   Q 171.05 828.41 171.70 830.68   L 171.93 831.48   A 2.78 2.77 74.6 0 0 175.31 833.40   C 198.73 827.21 222.17 820.88 245.82 815.80   C 259.26 812.91 274.15 807.56 288.14 803.67   Q 320.50 794.67 354.40 789.79   Q 356.95 789.42 357.16 786.85   Q 357.20 786.26 356.82 785.75   Q 355.59 784.13 353.57 784.32   Q 347.70 784.85 337.13 786.61   Q 303.55 792.19 268.90 803.16   Z   M 375.10 979.86   Q 380.68 949.25 386.90 921.01   Q 388.08 915.67 390.01 912.83   Q 396.12 903.83 405.52 901.21   Q 435.27 892.89 467.12 884.61   Q 576.26 856.23 725.87 816.54   Q 730.06 815.43 728.25 811.42   C 726.94 808.51 723.47 809.73 721.11 810.36   Q 579.11 847.95 434.77 885.74   Q 419.98 889.61 403.83 894.11   C 392.58 897.24 381.82 906.99 379.40 918.30   Q 373.51 945.76 367.20 979.79   A 0.27 0.27 0.0 0 0 367.46 980.11   L 374.75 980.15   Q 375.04 980.15 375.10 979.86   Z"/>
<rect x="-4.07" y="-3.82" transform="translate(862.10,684.49) rotate(44.5)" width="8.14" height="7.64" rx="3.54"/>
<ellipse cx="0.00" cy="0.00" transform="translate(849.57,686.68) rotate(52.3)" rx="4.63" ry="4.18"/>
<ellipse cx="0.00" cy="0.00" transform="translate(838.11,691.02) rotate(40.5)" rx="4.32" ry="3.95"/>
<circle cx="684.94" cy="733.96" r="4.11"/>
<ellipse cx="0.00" cy="0.00" transform="translate(672.85,737.70) rotate(52.6)" rx="4.75" ry="4.13"/>
<ellipse cx="0.00" cy="0.00" transform="translate(661.50,742.94) rotate(36.8)" rx="4.24" ry="3.99"/>
</g>
<g fill="#1b245a" id="Group-000000">
<path d="   M 556.56 320.96   C 557.34 319.60 558.30 317.27 560.07 317.09   C 562.88 316.81 565.31 319.58 566.17 321.99   A 0.98 0.97 54.6 0 1 566.02 322.92   Q 562.99 326.83 562.66 330.16   Q 561.37 342.99 568.78 355.17   Q 570.76 358.43 573.30 360.26   C 575.23 361.64 579.13 363.61 576.85 366.49   Q 574.95 368.89 572.56 369.78   A 1.13 1.13 0.0 0 1 571.50 369.63   C 565.11 364.90 556.90 364.77 548.92 366.52   C 545.41 367.29 542.68 368.78 540.87 371.80   C 538.83 375.22 532.98 373.28 532.95 369.29   Q 532.88 355.20 524.14 343.23   C 522.75 341.33 520.93 339.78 519.17 338.22   A 2.34 2.33 23.5 0 1 518.40 336.28   Q 518.67 333.47 520.52 331.23   A 1.09 1.08 -62.5 0 1 521.65 330.87   C 533.16 333.96 545.49 330.97 554.26 323.69   Q 555.68 322.51 556.56 320.96   Z"/>
<path d="   M 1024.00 685.71   L 1024.00 693.15   L 740.38 765.79   Q 739.84 765.93 739.85 766.49   Q 740.07 785.89 739.26 805.60   C 739.08 809.99 741.92 812.31 744.58 815.18   C 752.65 823.91 749.52 835.91 747.83 846.50   C 744.57 866.91 746.57 888.40 752.70 908.05   Q 754.66 914.35 756.59 921.00   Q 765.05 950.18 755.91 980.01   Q 755.84 980.21 755.64 980.21   L 748.63 980.05   Q 748.49 980.05 748.52 979.91   Q 750.01 973.97 751.48 966.41   Q 755.74 944.47 749.55 923.22   Q 747.56 916.39 745.58 910.01   C 739.26 889.55 737.14 867.22 740.32 846.00   C 741.33 839.29 743.27 831.44 741.46 825.05   C 739.80 819.19 733.80 816.39 732.26 810.58   Q 731.11 806.28 731.32 800.60   Q 731.89 784.77 731.96 768.81   A 0.48 0.48 0.0 0 0 731.36 768.35   Q 661.70 786.15 593.00 804.05   Q 583.58 806.50 573.66 809.16   C 501.56 828.52 432.34 847.12 356.60 866.08   Q 210.11 902.74 57.36 940.32   C 55.36 940.82 53.07 940.21 52.49 937.91   C 51.68 934.66 53.83 933.58 56.49 932.93   C 155.46 908.91 257.75 883.15 358.86 858.05   Q 396.96 848.60 473.09 828.57   Q 482.15 826.19 492.41 823.41   Q 596.94 795.04 701.94 768.42   Q 716.35 764.77 730.68 760.92   A 0.67 0.66 -12.3 0 0 731.16 760.18   L 729.63 749.53   A 0.68 0.68 0.0 0 0 728.76 748.97   Q 685.53 762.16 644.32 774.38   Q 636.99 776.56 628.04 778.49   Q 603.06 783.89 577.90 787.45   A 2.63 2.60 -35.2 0 1 576.33 787.19   Q 467.07 730.97 357.70 675.02   Q 348.82 670.48 339.90 665.87   Q 208.74 598.13 77.32 531.21   A 1.89 1.88 -38.6 0 0 75.96 531.06   L 11.95 547.54   A 0.23 0.22 -7.2 0 1 11.67 547.33   L 11.61 539.76   A 0.33 0.32 -9.2 0 1 11.85 539.44   Q 85.55 520.71 150.99 503.36   Q 151.50 503.23 151.16 502.82   Q 151.02 502.65 150.84 502.46   Q 150.68 502.29 150.46 502.18   C 128.82 491.76 106.75 473.61 107.90 447.64   C 108.87 425.54 123.16 409.89 143.69 403.71   Q 171.17 395.44 201.81 386.57   Q 294.90 359.63 389.93 331.70   Q 402.49 328.01 409.12 327.25   Q 427.62 325.14 444.08 332.15   Q 450.00 334.67 461.49 341.98   Q 521.91 380.44 582.26 418.50   Q 593.22 425.40 604.76 432.94   C 607.18 434.53 609.39 435.70 606.93 438.86   A 1.29 1.29 0.0 0 0 607.26 440.74   L 614.91 445.64   A 1.14 1.13 39.6 0 0 616.30 445.52   C 621.87 440.34 629.80 440.95 635.89 444.70   Q 675.01 468.79 714.29 493.55   C 718.14 495.98 722.06 500.62 720.39 505.36   Q 719.85 506.90 719.14 508.39   Q 718.67 509.37 719.57 509.99   L 728.41 516.08   A 1.42 1.41 -54.0 0 0 730.34 515.77   Q 731.90 513.74 734.06 515.10   Q 807.46 561.46 881.72 608.60   C 887.77 612.44 893.04 616.67 896.91 622.81   C 902.47 631.65 902.28 641.57 896.01 650.17   Q 895.71 650.57 895.70 651.07   C 895.36 662.50 894.55 675.14 888.44 684.86   C 879.05 699.80 862.49 708.56 845.62 713.72   Q 791.99 730.12 737.56 746.59   Q 736.69 746.85 736.97 747.71   Q 738.51 752.38 738.96 757.43   Q 739.06 758.55 740.15 758.27   L 1024.00 685.71   Z   M 378.34 372.40   C 385.43 382.44 377.48 392.66 367.85 396.00   Q 363.88 397.37 359.76 398.46   Q 312.61 410.92 258.82 425.57   C 250.65 427.80 242.81 428.51 234.84 425.54   C 230.51 423.92 226.86 421.10 223.22 418.21   Q 216.20 412.63 209.53 407.06   Q 205.82 403.95 200.57 405.47   Q 178.54 411.83 156.60 418.10   C 150.12 419.96 142.56 424.93 144.17 432.97   C 145.20 438.11 149.72 440.52 153.74 442.98   Q 257.60 506.68 367.86 574.40   Q 376.36 579.62 384.94 584.81   Q 496.80 652.61 602.08 716.60   Q 610.88 721.96 615.60 723.18   Q 626.27 725.94 637.51 722.38   Q 729.07 693.37 864.41 651.30   C 870.03 649.56 875.61 646.80 877.72 640.82   C 880.51 632.92 874.12 626.08 868.09 622.22   Q 618.37 462.70 437.82 349.38   Q 428.66 343.63 417.54 343.61   Q 411.63 343.60 401.64 346.67   Q 383.58 352.21 369.80 355.98   Q 367.93 356.50 366.07 357.69   Q 365.64 357.96 365.59 358.47   Q 365.42 360.07 366.74 361.25   C 370.91 364.99 374.80 367.37 378.34 372.40   Z   M 342.3914 378.0615   A 8.74 8.11 16.7 0 0 336.3505 367.7821   A 8.74 8.11 16.7 0 0 325.6486 373.0385   A 8.74 8.11 16.7 0 0 331.6895 383.3179   A 8.74 8.11 16.7 0 0 342.3914 378.0615   Z   M 308.9146 382.5275   A 3.04 3.04 0.0 0 0 305.1544 380.4432   L 272.3561 389.8480   A 3.04 3.04 0.0 0 0 270.2718 393.6081   L 270.5254 394.4925   A 3.04 3.04 0.0 0 0 274.2856 396.5768   L 307.0839 387.1720   A 3.04 3.04 0.0 0 0 309.1682 383.4119   L 308.9146 382.5275   Z   M 713.17 501.28   Q 711.88 499.58 709.89 498.33   Q 670.78 473.68 632.15 449.83   C 629.54 448.22 625.81 446.89 623.01 448.52   C 621.41 449.45 621.64 451.58 623.13 452.39   Q 629.46 455.85 635.44 459.53   Q 671.19 481.53 708.02 504.81   C 710.42 506.32 712.21 505.70 713.38 502.83   Q 713.72 501.99 713.17 501.28   Z   M 205.5450 505.4058   A 3.38 3.38 0.0 0 0 204.5430 500.7320   L 181.9740 486.1314   A 3.38 3.38 0.0 0 0 177.3002 487.1334   L 177.2350 487.2342   A 3.38 3.38 0.0 0 0 178.2370 491.9080   L 200.8060 506.5086   A 3.38 3.38 0.0 0 0 205.4798 505.5066   L 205.5450 505.4058   Z   M 310.9183 559.3803   A 3.28 3.28 0.0 0 0 309.8434 554.8679   L 241.9607 513.1063   A 3.28 3.28 0.0 0 0 237.4484 514.1812   L 237.3017 514.4197   A 3.28 3.28 0.0 0 0 238.3766 518.9321   L 306.2593 560.6937   A 3.28 3.28 0.0 0 0 310.7716 559.6188   L 310.9183 559.3803   Z   M 309.99 596.22   Q 309.82 598.92 312.11 600.37   Q 330.00 611.68 346.69 621.98   C 355.88 627.66 365.55 632.35 374.63 638.00   Q 400.18 653.89 423.23 668.64   A 3.90 3.85 57.7 0 0 425.77 669.23   Q 428.40 668.93 429.01 667.54   Q 430.15 664.92 427.75 663.39   Q 401.98 646.89 376.90 631.43   C 368.04 625.98 358.53 621.29 349.67 615.83   Q 333.20 605.68 315.27 594.25   Q 312.76 592.65 310.44 595.14   Q 310.03 595.58 309.99 596.22   Z   M 471.0095 658.9166   A 3.35 3.35 0.0 0 0 470.1218 654.2629   L 432.8204 628.9129   A 3.35 3.35 0.0 0 0 428.1667 629.8007   L 428.1105 629.8834   A 3.35 3.35 0.0 0 0 428.9982 634.5371   L 466.2996 659.8871   A 3.35 3.35 0.0 0 0 470.9533 658.9993   L 471.0095 658.9166   Z   M 865.1992 687.1430   A 3.54 3.54 0.0 0 0 865.1555 682.1369   L 864.3995 681.3939   A 3.54 3.54 0.0 0 0 859.3933 681.4376   L 859.0008 681.8370   A 3.54 3.54 0.0 0 0 859.0445 686.8431   L 859.8005 687.5861   A 3.54 3.54 0.0 0 0 864.8067 687.5424   L 865.1992 687.1430   Z   M 562.9754 713.2018   A 3.36 3.36 0.0 0 0 561.8984 708.5737   L 519.9761 682.4794   A 3.36 3.36 0.0 0 0 515.3481 683.5564   L 515.2846 683.6582   A 3.36 3.36 0.0 0 0 516.3616 688.2863   L 558.2839 714.3806   A 3.36 3.36 0.0 0 0 562.9119 713.3036   L 562.9754 713.2018   Z   M 852.4014 690.3434   A 4.63 4.18 52.3 0 0 852.8773 684.1238   A 4.63 4.18 52.3 0 0 846.7386 683.0166   A 4.63 4.18 52.3 0 0 846.2627 689.2362   A 4.63 4.18 52.3 0 0 852.4014 690.3434   Z   M 841.3950 693.8256   A 4.32 3.95 40.5 0 0 840.6753 688.0164   A 4.32 3.95 40.5 0 0 834.8250 688.2144   A 4.32 3.95 40.5 0 0 835.5447 694.0236   A 4.32 3.95 40.5 0 0 841.3950 693.8256   Z   M 723.40 704.06   C 725.51 709.33 725.84 714.12 725.48 720.00   Q 725.08 726.36 728.03 733.02   Q 729.36 736.05 732.46 734.87   Q 732.78 734.75 733.08 734.58   A 3.31 3.29 63.7 0 0 734.47 730.44   C 732.14 724.93 731.95 719.90 732.31 713.79   Q 732.65 708.08 729.77 701.32   Q 728.44 698.19 725.29 699.46   Q 724.89 699.62 724.54 699.89   Q 722.39 701.54 723.40 704.06   Z   M 601.2160 735.8695   A 3.25 3.25 0.0 0 0 600.1430 731.4002   L 576.6613 717.0106   A 3.25 3.25 0.0 0 0 572.1921 718.0836   L 572.0040 718.3905   A 3.25 3.25 0.0 0 0 573.0770 722.8598   L 596.5587 737.2494   A 3.25 3.25 0.0 0 0 601.0279 736.1764   L 601.2160 735.8695   Z   M 689.05 733.96   A 4.11 4.11 0.0 0 0 684.94 729.85   A 4.11 4.11 0.0 0 0 680.83 733.96   A 4.11 4.11 0.0 0 0 684.94 738.07   A 4.11 4.11 0.0 0 0 689.05 733.96   Z   M 675.7350 741.4735   A 4.75 4.13 52.6 0 0 676.1309 735.1915   A 4.75 4.13 52.6 0 0 669.9650 733.9265   A 4.75 4.13 52.6 0 0 669.5691 740.2085   A 4.75 4.13 52.6 0 0 675.7350 741.4735   Z   M 664.8951 745.4799   A 4.24 3.99 36.8 0 0 663.8901 739.7451   A 4.24 3.99 36.8 0 0 658.1049 740.4001   A 4.24 3.99 36.8 0 0 659.1099 746.1349   A 4.24 3.99 36.8 0 0 664.8951 745.4799   Z"/>
<path d="   M 1024.00 457.12   L 1024.00 465.19   Q 944.68 433.58 865.49 402.21   Q 831.17 388.62 796.86 375.02   Q 795.43 374.45 793.92 373.98   Q 792.38 373.50 790.78 373.33   Q 780.86 372.28 769.40 372.95   C 761.43 373.41 753.37 376.29 745.55 378.14   Q 743.87 378.53 745.40 379.32   Q 748.41 380.86 751.46 382.04   Q 763.79 386.78 776.50 391.39   Q 779.23 392.38 778.53 395.21   Q 778.43 395.62 778.12 395.94   Q 776.54 397.60 774.39 396.82   Q 761.50 392.13 748.63 387.12   Q 742.07 384.57 736.50 381.03   A 1.58 1.53 53.3 0 0 735.27 380.83   L 593.60 417.84   Q 590.65 418.62 588.67 416.30   Q 588.31 415.89 588.20 415.36   Q 587.42 411.75 591.04 410.81   Q 670.66 390.35 749.82 369.25   Q 761.79 366.05 768.76 365.50   Q 780.92 364.55 792.59 366.00   Q 795.94 366.41 800.00 368.04   C 881.08 400.54 951.86 428.39 1024.00 457.12   Z"/>
<rect x="-32.52" y="-2.95" transform="translate(747.53,433.80) rotate(-15.0)" width="65.04" height="5.90" rx="2.91"/>
<rect x="-37.55" y="-2.95" transform="translate(835.85,469.35) rotate(-19.6)" width="75.10" height="5.90" rx="2.66"/>
<path d="   M 450.95 519.63   A 0.41 0.40 46.9 0 0 450.97 518.95   C 443.12 513.52 433.87 505.16 431.80 495.84   C 427.98 478.56 443.27 466.98 458.02 462.58   Q 495.77 451.33 526.55 475.13   A 1.80 1.80 0.0 0 0 528.53 475.28   Q 534.08 472.18 539.15 469.29   C 544.69 466.13 552.08 468.99 557.13 472.31   Q 567.58 479.16 577.06 485.71   Q 579.51 487.41 581.88 489.61   Q 585.17 492.68 582.23 495.05   A 0.68 0.67 43.1 0 0 582.27 496.13   Q 595.29 505.10 610.11 515.40   Q 619.34 521.82 622.76 530.70   C 627.26 542.39 622.77 553.73 612.94 560.73   Q 599.78 570.09 587.36 581.19   Q 575.52 591.75 558.59 593.08   Q 538.21 594.68 520.79 586.00   Q 515.79 583.51 504.15 574.92   Q 491.66 565.71 478.27 556.60   A 1.41 1.41 0.0 0 0 476.63 556.63   C 470.89 560.89 465.60 558.73 460.41 555.18   Q 448.54 547.05 438.37 538.86   C 434.39 535.65 433.49 530.40 438.34 527.39   Q 444.24 523.72 450.95 519.63   Z   M 465.60 510.10   Q 466.34 510.66 467.13 510.19   L 510.37 484.88   A 0.60 0.60 0.0 0 0 510.43 483.89   Q 491.05 469.12 467.18 476.82   C 458.15 479.73 449.70 487.15 453.76 497.60   C 455.82 502.89 461.11 506.70 465.60 510.10   Z   M 483.67 552.10   A 0.44 0.43 68.4 0 0 483.47 552.57   Q 483.54 552.91 483.83 553.10   Q 497.46 562.22 513.12 573.80   Q 521.15 579.73 527.04 582.28   C 541.12 588.37 559.74 589.92 573.76 582.59   Q 578.77 579.97 584.91 574.44   Q 594.94 565.38 606.20 557.63   C 619.46 548.51 620.71 534.27 609.43 522.91   Q 607.83 521.30 599.00 515.20   Q 587.39 507.19 575.99 499.40   A 1.11 1.09 47.0 0 0 574.81 499.35   L 483.67 552.10   Z   M 519.0586 510.9333   A 5.52 4.52 11.0 0 0 514.5025 505.4430   A 5.52 4.52 11.0 0 0 508.2214 508.8267   A 5.52 4.52 11.0 0 0 512.7775 514.3170   A 5.52 4.52 11.0 0 0 519.0586 510.9333   Z"/>
<rect x="-12.65" y="-2.88" transform="translate(862.40,497.63) rotate(-11.8)" width="25.30" height="5.76" rx="2.79"/>
<path d="   M 558.58 537.00   Q 563.12 540.06 567.91 543.21   Q 569.93 544.54 571.43 546.36   C 573.61 549.01 571.84 552.39 568.92 553.30   C 561.30 555.67 556.54 549.93 551.48 545.52   A 2.16 2.16 0.0 0 0 549.91 545.01   C 543.88 545.47 538.03 543.26 535.44 537.62   C 533.80 534.02 535.56 529.94 539.03 528.21   C 546.00 524.73 554.72 526.51 558.66 533.38   Q 558.97 533.91 558.88 534.52   Q 558.79 535.23 558.36 535.84   Q 557.88 536.53 558.58 537.00   Z   M 545.60 538.69   C 545.31 536.39 545.49 535.17 547.87 534.38   Q 551.64 533.11 547.83 531.97   Q 545.45 531.26 542.43 533.21   A 1.22 1.21 78.5 0 0 541.89 534.03   Q 541.34 537.52 545.15 539.04   A 0.33 0.33 0.0 0 0 545.60 538.69   Z"/>
<path d="   M 1021.23 553.49   L 1021.42 553.95   Q 1022.47 556.59 1019.76 557.43   Q 1001.40 563.18 979.45 572.16   Q 966.52 577.45 952.31 579.57   Q 947.57 580.28 942.72 580.04   Q 940.48 579.92 940.43 577.67   L 940.42 577.38   Q 940.37 574.65 943.10 574.52   Q 957.85 573.84 971.04 568.95   C 986.62 563.16 1001.70 556.78 1018.44 552.10   Q 1020.46 551.54 1021.23 553.49   Z"/>
<path d="   M 12.26 604.43   Q 11.77 604.53 11.75 604.03   L 11.49 599.22   A 0.66 0.66 0.0 0 1 12.02 598.54   L 43.85 592.22   Q 46.58 591.68 47.84 594.17   Q 48.54 595.54 46.14 597.30   A 2.85 2.84 21.4 0 1 45.01 597.79   L 12.26 604.43   Z"/>
<path d="   M 124.08 619.98   C 133.89 618.53 143.69 617.68 153.64 616.00   A 2.58 2.57 76.3 0 1 156.53 617.76   Q 156.64 618.08 156.68 618.41   Q 157.01 621.13 154.30 621.58   Q 142.51 623.51 130.50 624.79   C 122.89 625.60 115.56 627.40 108.21 629.19   C 100.13 631.15 91.33 631.89 82.96 633.31   Q 80.60 633.71 79.59 631.54   Q 79.41 631.16 79.42 630.75   Q 79.51 627.97 82.25 627.51   Q 87.77 626.58 94.22 625.84   C 104.39 624.68 113.96 621.48 124.08 619.98   Z"/>
<path d="   M 1024.00 728.38   L 1024.00 736.01   C 931.84 760.18 840.23 785.82 748.15 810.94   Q 745.67 811.62 743.93 809.73   C 741.89 807.49 742.90 804.96 745.74 804.18   Q 837.37 779.07 927.32 754.37   Q 975.57 741.11 1024.00 728.38   Z"/>
<path d="   M 101.55 786.32   Q 73.29 795.83 44.83 804.60   Q 43.57 804.98 41.94 803.15   Q 41.67 802.84 41.59 802.45   Q 41.06 799.65 43.78 798.78   Q 67.49 791.19 93.95 782.61   Q 103.45 779.53 112.83 776.00   C 139.08 766.13 158.86 758.86 180.45 751.41   C 183.06 750.51 185.70 751.42 185.40 754.58   A 2.19 2.17 83.1 0 1 183.95 756.44   Q 150.36 768.03 115.99 781.28   Q 112.23 782.72 101.55 786.32   Z"/>
<path d="   M 268.90 803.16   Q 303.55 792.19 337.13 786.61   Q 347.70 784.85 353.57 784.32   Q 355.59 784.13 356.82 785.75   Q 357.20 786.26 357.16 786.85   Q 356.95 789.42 354.40 789.79   Q 320.50 794.67 288.14 803.67   C 274.15 807.56 259.26 812.91 245.82 815.80   C 222.17 820.88 198.73 827.21 175.31 833.40   A 2.78 2.77 74.6 0 1 171.93 831.48   L 171.70 830.68   Q 171.05 828.41 173.32 827.78   Q 207.30 818.36 239.29 811.15   C 249.37 808.88 259.25 806.21 268.90 803.16   Z"/>
<path d="   M 375.10 979.86   Q 375.04 980.15 374.75 980.15   L 367.46 980.11   A 0.27 0.27 0.0 0 1 367.20 979.79   Q 373.51 945.76 379.40 918.30   C 381.82 906.99 392.58 897.24 403.83 894.11   Q 419.98 889.61 434.77 885.74   Q 579.11 847.95 721.11 810.36   C 723.47 809.73 726.94 808.51 728.25 811.42   Q 730.06 815.43 725.87 816.54   Q 576.26 856.23 467.12 884.61   Q 435.27 892.89 405.52 901.21   Q 396.12 903.83 390.01 912.83   Q 388.08 915.67 386.90 921.01   Q 380.68 949.25 375.10 979.86   Z"/>
</g>
<g fill="rgba(0,0,0,0)" id="Group-rgba(0,0,0,0)">
<path d="   M 367.85 396.00   C 377.48 392.66 385.43 382.44 378.34 372.40   C 374.80 367.37 370.91 364.99 366.74 361.25   Q 365.42 360.07 365.59 358.47   Q 365.64 357.96 366.07 357.69   Q 367.93 356.50 369.80 355.98   Q 383.58 352.21 401.64 346.67   Q 411.63 343.60 417.54 343.61   Q 428.66 343.63 437.82 349.38   Q 618.37 462.70 868.09 622.22   C 874.12 626.08 880.51 632.92 877.72 640.82   C 875.61 646.80 870.03 649.56 864.41 651.30   Q 729.07 693.37 637.51 722.38   Q 626.27 725.94 615.60 723.18   Q 610.88 721.96 602.08 716.60   Q 496.80 652.61 384.94 584.81   Q 376.36 579.62 367.86 574.40   Q 257.60 506.68 153.74 442.98   C 149.72 440.52 145.20 438.11 144.17 432.97   C 142.56 424.93 150.12 419.96 156.60 418.10   Q 178.54 411.83 200.57 405.47   Q 205.82 403.95 209.53 407.06   Q 216.20 412.63 223.22 418.21   C 226.86 421.10 230.51 423.92 234.84 425.54   C 242.81 428.51 250.65 427.80 258.82 425.57   Q 312.61 410.92 359.76 398.46   Q 363.88 397.37 367.85 396.00   Z   M 450.95 519.63   Q 444.24 523.72 438.34 527.39   C 433.49 530.40 434.39 535.65 438.37 538.86   Q 448.54 547.05 460.41 555.18   C 465.60 558.73 470.89 560.89 476.63 556.63   A 1.41 1.41 0.0 0 1 478.27 556.60   Q 491.66 565.71 504.15 574.92   Q 515.79 583.51 520.79 586.00   Q 538.21 594.68 558.59 593.08   Q 575.52 591.75 587.36 581.19   Q 599.78 570.09 612.94 560.73   C 622.77 553.73 627.26 542.39 622.76 530.70   Q 619.34 521.82 610.11 515.40   Q 595.29 505.10 582.27 496.13   A 0.68 0.67 43.1 0 1 582.23 495.05   Q 585.17 492.68 581.88 489.61   Q 579.51 487.41 577.06 485.71   Q 567.58 479.16 557.13 472.31   C 552.08 468.99 544.69 466.13 539.15 469.29   Q 534.08 472.18 528.53 475.28   A 1.80 1.80 0.0 0 1 526.55 475.13   Q 495.77 451.33 458.02 462.58   C 443.27 466.98 427.98 478.56 431.80 495.84   C 433.87 505.16 443.12 513.52 450.97 518.95   A 0.41 0.40 46.9 0 1 450.95 519.63   Z"/>
<ellipse cx="0.00" cy="0.00" transform="translate(334.02,375.55) rotate(16.7)" rx="8.74" ry="8.11"/>
<rect x="-20.10" y="-3.50" transform="translate(289.72,388.51) rotate(-16.0)" width="40.20" height="7.00" rx="3.04"/>
<path d="   M 713.17 501.28   Q 713.72 501.99 713.38 502.83   C 712.21 505.70 710.42 506.32 708.02 504.81   Q 671.19 481.53 635.44 459.53   Q 629.46 455.85 623.13 452.39   C 621.64 451.58 621.41 449.45 623.01 448.52   C 625.81 446.89 629.54 448.22 632.15 449.83   Q 670.78 473.68 709.89 498.33   Q 711.88 499.58 713.17 501.28   Z"/>
<path d="   M 465.60 510.10   C 461.11 506.70 455.82 502.89 453.76 497.60   C 449.70 487.15 458.15 479.73 467.18 476.82   Q 491.05 469.12 510.43 483.89   A 0.60 0.60 0.0 0 1 510.37 484.88   L 467.13 510.19   Q 466.34 510.66 465.60 510.10   Z"/>
<rect x="-16.82" y="-3.44" transform="translate(191.39,496.32) rotate(32.9)" width="33.64" height="6.88" rx="3.38"/>
<path d="   M 483.67 552.10   L 574.81 499.35   A 1.11 1.09 47.0 0 1 575.99 499.40   Q 587.39 507.19 599.00 515.20   Q 607.83 521.30 609.43 522.91   C 620.71 534.27 619.46 548.51 606.20 557.63   Q 594.94 565.38 584.91 574.44   Q 578.77 579.97 573.76 582.59   C 559.74 589.92 541.12 588.37 527.04 582.28   Q 521.15 579.73 513.12 573.80   Q 497.46 562.22 483.83 553.10   Q 483.54 552.91 483.47 552.57   A 0.44 0.43 68.4 0 1 483.67 552.10   Z   M 558.36 535.84   Q 558.79 535.23 558.88 534.52   Q 558.97 533.91 558.66 533.38   C 554.72 526.51 546.00 524.73 539.03 528.21   C 535.56 529.94 533.80 534.02 535.44 537.62   C 538.03 543.26 543.88 545.47 549.91 545.01   A 2.16 2.16 0.0 0 1 551.48 545.52   C 556.54 549.93 561.30 555.67 568.92 553.30   C 571.84 552.39 573.61 549.01 571.43 546.36   Q 569.93 544.54 567.91 543.21   Q 563.12 540.06 558.58 537.00   Q 557.88 536.53 558.36 535.84   Z"/>
<ellipse cx="0.00" cy="0.00" transform="translate(513.64,509.88) rotate(11.0)" rx="5.52" ry="4.52"/>
<rect x="-43.13" y="-3.42" transform="translate(274.11,536.90) rotate(31.6)" width="86.26" height="6.84" rx="3.28"/>
<path d="   M 547.87 534.38   C 545.49 535.17 545.31 536.39 545.60 538.69   A 0.33 0.33 0.0 0 1 545.15 539.04   Q 541.34 537.52 541.89 534.03   A 1.22 1.21 78.5 0 1 542.43 533.21   Q 545.45 531.26 547.83 531.97   Q 551.64 533.11 547.87 534.38   Z"/>
<path d="   M 309.99 596.22   Q 310.03 595.58 310.44 595.14   Q 312.76 592.65 315.27 594.25   Q 333.20 605.68 349.67 615.83   C 358.53 621.29 368.04 625.98 376.90 631.43   Q 401.98 646.89 427.75 663.39   Q 430.15 664.92 429.01 667.54   Q 428.40 668.93 425.77 669.23   A 3.90 3.85 57.7 0 1 423.23 668.64   Q 400.18 653.89 374.63 638.00   C 365.55 632.35 355.88 627.66 346.69 621.98   Q 330.00 611.68 312.11 600.37   Q 309.82 598.92 309.99 596.22   Z"/>
<rect x="-25.90" y="-3.40" transform="translate(449.56,644.40) rotate(34.2)" width="51.80" height="6.80" rx="3.35"/>
<rect x="-28.05" y="-3.42" transform="translate(539.13,698.43) rotate(31.9)" width="56.10" height="6.84" rx="3.36"/>
<path d="   M 725.48 720.00   C 725.84 714.12 725.51 709.33 723.40 704.06   Q 722.39 701.54 724.54 699.89   Q 724.89 699.62 725.29 699.46   Q 728.44 698.19 729.77 701.32   Q 732.65 708.08 732.31 713.79   C 731.95 719.90 732.14 724.93 734.47 730.44   A 3.31 3.29 63.7 0 1 733.08 734.58   Q 732.78 734.75 732.46 734.87   Q 729.36 736.05 728.03 733.02   Q 725.08 726.36 725.48 720.00   Z"/>
<rect x="-17.02" y="-3.43" transform="translate(586.61,727.13) rotate(31.5)" width="34.04" height="6.86" rx="3.25"/>
</g>
</g></svg>