<?xml version="1.0" encoding="UTF-8"?><svg xmlns="http://www.w3.org/2000/svg" width="48px" height="48px" viewBox="-24 -24 1072 1072">
  <g fill="none" stroke="#1b245a" stroke-width="8" stroke-linecap="round" stroke-linejoin="round">
    <path d="M 172.896,606.392 C 199.692,598.833 216.781,592.619 236.729,583.463 C 254.56,573.147 271.13,560.984 285.589,548.197 C 302.207,530.145 311.75,517.92 325.914,495.598 C 335.248,477.173 344.32,454.554 351.053,431.909 C 355.852,408.99 358.759,386.016 359.779,367.573 C 359.677,335.289 361.106,318.809 366.207,297.747 C 372.74,281.42 382.228,264.838 392.229,251.407 C 394.462,250.12 398.74,244.333 406.965,236.606 C 416.783,228.811 429.231,220.743 441.137,214.65 C 457.407,208.476 476.351,203.739 493.455,202.043 C 511.905,203.002 529.516,206.524 548.224,213.03 C 566.328,222.293 582.851,233.798 598.0,247.72 C 609.771,261.97 617.758,274.117 624.183,286.594 C 628.906,298.583 632.254,310.86 634.271,323.1 C 635.006,335.291 634.735,353.128 635.994,365.325 C 639.251,379.43 645.568,395.879 652.212,407.929 C 662.811,422.22 673.531,433.099 691.579,448.255" data-line="nan" stroke-width="32"/>
    <path d="M 657.019,558.655 C 646.7,541.334 639.813,533.216 629.219,525.971 C 618.038,521.839 606.331,519.95 594.389,520.331 L 554.128,530.685" data-line="nan" stroke-width="32"/>
    <path d="M 763.202,590.977 C 784.489,584.259 797.822,581.988 812.653,583.19 C 820.867,585.514 828.889,588.947 839.612,596.637 C 843.451,600.678 847.223,606.271 852.592,619.511 L 854.01,635.73" data-line="nan" stroke-width="32"/>
    <path d="M 296.942,659.75 C 299.441,648.017 305.122,636.241 312.002,627.181 C 320.841,619.502 330.03,614.52 341.536,611.243 C 350.958,610.367 361.969,612.156 369.033,614.705 C 377.736,619.677 383.645,624.137 391.325,631.707 Q 399.638,642.585 438.741,701.365" data-line="nan" stroke-width="32"/>
    <path d="M 485.986,4.275 C 521.469,4.799 557.727,9.322 573.949,12.653 C 594.134,18.028 614.291,24.779 630.458,31.286 C 646.55,38.767 662.924,47.522 679.154,57.481 C 695.175,68.721 707.48,78.447 723.765,92.903 C 746.682,116.947 756.561,129.14 768.285,145.459 C 785.243,173.842 800.266,206.315 811.223,238.516 C 818.731,270.828 823.093,303.222 824.052,331.53 L 824.28,397.39" data-line="nan" stroke-width="32"/>
    <path d="M 552.422,374.852 C 551.551,354.666 548.945,340.879 544.021,327.91 C 536.946,317.698 525.208,307.438 512.475,301.194 C 498.314,298.173 485.6,298.695 472.751,302.66 C 462.986,308.071 452.77,317.333 445.032,328.726 C 440.767,340.933 439.329,350.754 439.066,395.029" data-line="nan" stroke-width="32"/>
    <path d="M 854.01,635.73 L 854.874,698.482" data-line="nan" stroke-width="32"/>
    <path d="M 854.695,841.681 C 853.775,861.879 851.203,881.748 846.19,901.415 L 838.669,920.382" data-line="nan" stroke-width="32"/>
    <path d="M 169.051,396.418 L 176.176,260.921" data-line="0.0" stroke-width="32"/>
    <path d="M 172.38655536196154,501.4540965705139 A 132.81508863492004,132.81508863492004 0 0,0 265.7804891767536,359.6439905478349" data-line="1.0" stroke-width="32"/>
    <path d="M 552.425,630.102 L 552.422,374.852" data-line="5.0" stroke-width="32"/>
    <path d="M 654.432,640.996 L 657.019,558.655" data-line="7.0" stroke-width="32"/>
    <path d="M 756.6599690713368,582.3146304904527 A 71.14925242536178,71.14925242536178 0 0,0 658.022468102508,560.2217624310209" data-line="8.0" stroke-width="32"/>
    <path d="M 754.898,666.422 L 755.938,593.269" data-line="9.0" stroke-width="32"/>
    <path d="M 176.06095408132126,260.89658050508535 A 323.4859042149624,323.4859042149624 0 0,1 370.0976994699332,28.627551676192752" data-line="12.0" stroke-width="32"/>
    <path d="M 370.122,28.687 L 485.986,4.275" data-line="13.0" stroke-width="32"/>
    <path d="M 267.053,359.502 C 266.3747299697539,318.25722837729893 267.4292585332625,277.58952673776434 286.396,236.465" data-line="15.0" stroke-width="32"/>
    <path d="M 286.8416079937738,236.6668914546279 A 231.08393237616335,231.08393237616335 0 0,1 726.2228152315392,363.77610944753144" data-line="16.0" stroke-width="32"/>
    <path d="M 439.066,395.029 L 438.741,701.365" data-line="18.0" stroke-width="32"/>
    <path d="M 838.6963321828924,920.3952639128395 A 176.61867443113192,176.61867443113192 0 0,1 681.8140285996205,1019.8921797629994" data-line="20.0" stroke-width="32"/>
    <path d="M 681.813,1019.802 L 576.764,1019.329" data-line="21.0" stroke-width="32"/>
    <path d="M 576.7623928075077,1019.3499103903112 A 201.7145116334172,201.7145116334172 0 0,1 408.9304936633496,902.4510368060403" data-line="22.0" stroke-width="32"/>
    <path d="M 854.874,698.482 L 854.695,841.681" data-line="22.0" stroke-width="32"/>
    <path d="M 408.158,902.806 L 296.942,659.75" data-line="23.0" stroke-width="32"/>
  </g>
</svg>